/* XPM */
static char * image[] = {
"64 64 330 2",
"aa c #6DD31C",
"ab c #5DC31B",
"ac c #4CB203",
"ad c #399F01",
"ae c #359B00",
"af c #45AB02",
"ag c #50B604",
"ah c #5DC313",
"ai c #68CE14",
"aj c #5CC20C",
"ak c #51B70B",
"al c #5CC204",
"am c #60C604",
"an c #48AE02",
"ao c #3DA301",
"ap c #319601",
"aq c #2D9200",
"ar c #6CD215",
"as c #73D91C",
"at c #64CA14",
"au c #49AF0A",
"av c #54BA0B",
"aw c #59BF1A",
"ax c #64CA22",
"ay c #69CF23",
"az c #61C71B",
"aA c #40A601",
"aB c #51B711",
"aC c #56BC1C",
"aD c #59BF14",
"aE c #64CA0C",
"aF c #62C807",
"aG c #58BE05",
"aH c #4DB313",
"aI c #65CB1B",
"aJ c #68CE1B",
"aK c #218700",
"aL c #258B00",
"aM c #2D9309",
"aN c #3EA40A",
"aO c #54BA04",
"aP c #45AB0A",
"aQ c #4CB20A",
"aR c #288E00",
"aS c #71D723",
"aT c #7CE22C",
"aU c #7CE224",
"aV c #75DA24",
"aW c #55BB13",
"aX c #60C60D",
"aY c #58BE0B",
"aZ c #68CE0D",
"a0 c #88EE2E",
"a1 c #8CF233",
"a2 c #88EE32",
"a3 c #84EA2C",
"a4 c #1D8300",
"a5 c #44AA12",
"a6 c #349A09",
"a7 c #7DE333",
"a8 c #84EA39",
"a9 c #71D72A",
"a! c #6AD00F",
"a# c #75DB31",
"a$ c #70D632",
"a% c #65CB2A",
"a& c #5DC322",
"a( c #83E927",
"a) c #60C614",
"a* c #6DD323",
"a+ c #68CE29",
"a, c #60C622",
"a- c #79DE24",
"a. c #157A00",
"a/ c #0E7300",
"a: c #0A6E00",
"a; c #197F00",
"a< c #0C0200",
"a= c #1C0C05",
"a> c #452510",
"a? c #6B3816",
"a@ c #985424",
"a[ c #B36C32",
"a] c #D37E39",
"a^ c #E28E42",
"a_ c #EA9748",
"a` c #F09F50",
"a{ c #EC9C4C",
"a| c #E5994B",
"a} c #D2813C",
"a~ c #945425",
"ba c #743917",
"bb c #44220E",
"bc c #120601",
"bd c #210E05",
"be c #492610",
"bf c #9E5E2B",
"bg c #BB6C32",
"bh c #CD7B37",
"bi c #DC8B41",
"bj c #4C2B13",
"bk c #261106",
"bl c #834B22",
"bm c #6B401E",
"bn c #4E3017",
"bo c #533419",
"bp c #744621",
"bq c #935A28",
"br c #C47B3A",
"bs c #E49345",
"bt c #F2A552",
"bu c #E99547",
"bv c #E0883D",
"bw c #D07D35",
"bx c #59371B",
"by c #4F3219",
"bz c #389E0A",
"bA c #291307",
"bB c #AB652D",
"bC c #BE7F41",
"bD c #C88947",
"bE c #D88F48",
"bF c #DC9349",
"bG c #E69D51",
"bH c #F0A14F",
"bI c #DC843C",
"bJ c #DD9146",
"bK c #E39649",
"bL c #D4914A",
"bM c #A4642D",
"bN c #5B2D13",
"bO c #5A3116",
"bP c #F9AB56",
"bQ c #F7AB59",
"bR c #EA9F50",
"bS c #EEA14E",
"bT c #F9AC58",
"bU c #9E602E",
"bV c #D48C45",
"bW c #F6A956",
"bX c #C97739",
"bY c #C97C39",
"bZ c #643216",
"b0 c #D18640",
"b1 c #EEA250",
"b2 c #C47534",
"b3 c #74421E",
"b4 c #6DD32A",
"b5 c #C67836",
"b6 c #DD893D",
"b7 c #BB7A3D",
"b8 c #612F14",
"b9 c #542C13",
"b! c #8B5227",
"b# c #A76934",
"b$ c #DB9B4A",
"b% c #71D71D",
"b& c #F0A84E",
"b( c #EA9846",
"b) c #A15C26",
"b* c #A66631",
"b+ c #9F5924",
"b, c #CD823B",
"b- c #000000",
"b. c #AB6B32",
"b/ c #B96C2E",
"b: c #160903",
"b; c #B47235",
"b< c #D68C30",
"b= c #85EB32",
"b> c #F19F4E",
"b? c #C58946",
"b@ c #78DE2C",
"b[ c #81E733",
"b] c #C5953F",
"b^ c #FDB558",
"b_ c #E3A34D",
"b` c #B7692E",
"b{ c #534211",
"b| c #C6A630",
"b} c #EBC43D",
"b~ c #BB9536",
"ca c #A67437",
"cb c #AE8236",
"cc c #A58233",
"cd c #B88A36",
"ce c #C16F34",
"cf c #B15F2A",
"cg c #B3642B",
"ch c #B87A37",
"ci c #DAA33B",
"cj c #B47729",
"ck c #5F3A1B",
"cl c #2B1803",
"cm c #59430D",
"cn c #BFA32C",
"co c #DCC322",
"cp c #8F7F23",
"cq c #66751A",
"cr c #777623",
"cs c #978126",
"ct c #C5862D",
"cu c #C37D2B",
"cv c #B77324",
"cw c #9C6826",
"cx c #A26C27",
"cy c #BE7A2A",
"cz c #BB7626",
"cA c #BF7927",
"cB c #728816",
"cC c #EBB937",
"cD c #D0A02B",
"cE c #966616",
"cF c #734110",
"cG c #64360B",
"cH c #4B1E07",
"cI c #421B05",
"cJ c #3C1805",
"cK c #A37516",
"cL c #D9AC23",
"cM c #D9B71E",
"cN c #A6A61C",
"cO c #496D16",
"cP c #2E6411",
"cQ c #5E8514",
"cR c #96971B",
"cS c #C7B720",
"cT c #E1B327",
"cU c #D4A921",
"cV c #AB9322",
"cW c #5F6C18",
"cX c #395914",
"cY c #BA9D21",
"cZ c #D3A720",
"c0 c #D2A61F",
"c1 c #C9A824",
"c2 c #8C831E",
"c3 c #265F14",
"c4 c #A7A421",
"c5 c #E5C422",
"c6 c #CAA11C",
"c7 c #8A5512",
"c8 c #642A0B",
"c9 c #532309",
"c! c #4D2007",
"c# c #5B360A",
"c$ c #8C5A11",
"c% c #B78B18",
"c& c #CBB41E",
"c( c #B6AF1C",
"c) c #4A7714",
"c* c #D7C01F",
"c+ c #C29A19",
"c, c #1F630E",
"c- c #14590D",
"c. c #AB9118",
"c/ c #BF9919",
"c: c #C8B81E",
"c; c #3C6A10",
"c< c #25630F",
"c= c #E2C31F",
"c> c #854C12",
"c? c #5C2209",
"c@ c #785411",
"c[ c #787314",
"c] c #5E7C13",
"c^ c #26590E",
"c_ c #644F0F",
"c` c #814B0F",
"c{ c #7D4A0F",
"c| c #7B460E",
"c} c #336810",
"c~ c #5A1E09",
"da c #512207",
"db c #511F08",
"dc c #733D0D",
"dd c #A16F17",
"de c #BA9419",
"df c #C3951C",
"dg c #C2A01D",
"dh c #756C12",
"di c #42560D",
"dj c #33400C",
"dk c #76450C",
"dl c #34500D",
"dm c #998717",
"dn c #6A340E",
"do c #884616",
"dp c #965319",
"dq c #6D3B0C",
"dr c #5D2407",
"ds c #56320A",
"dt c #7D451E",
"du c #86481C",
"dv c #984E21",
"dw c #8B451C",
"dx c #7D3A15",
"dy c #73310E",
"dz c #6B2B0D",
"dA c #62260A",
"dB c #79330F",
"dC c #793611",
"dD c #8C4E20",
"dE c #533116",
"dF c #964B1D",
"dG c #874117",
"dH c #803B13",
"dI c #A75A25",
"dJ c #C06F2E",
"dK c #C38342",
"dL c #8A4B1E",
"dM c #84471B",
"dN c #CC8A44",
"dO c #815328",
"dP c #C2813F",
"dQ c #41A712",
"dR c #49AF11",
"dS c #51B718",
"dT c #75DB2B",
"dU c #693618",
"dV c #9F6A35",
"dW c #6B4320",
"dX c #2C1508",
"dY c #9D6430",
"dZ c #603B1C",
"d0 c #79DF33",
"d1 c #81E62C",
"d2 c #70D616",
"d3 c #97FD3B",
"d4 c #9CFF3F",
"aaabacadaeadafagahaiaaaaaaaiajakacacacacalalamalalacafadadadafacanaoapaqadaoaoafaoafacajarasasatajacafadaeapaeadafauavawabaxaxay",
"aaazakafadaeadaAauaBaCahaDavakagacacacavajaEaFajalaGaganaoafacacacafaoadaoadadadadaoafakahaiatataGacafadadadadaoafauaHawabaIaxaI",
"aaaJatakaoaqaKaKaLaMaMapapaNauakavaCahahataIaiaiaiaiaJataGagaOaOaOakavakacaoaqaqaqaqapadaAaPakakacanaoaoaoaoaAafaPaPaHaBaDazaIaJ",
"aaaaaiahaQadapaqaqaRaqaqaeaoaQakavavajahataaaSaTaUaUaVasaraEalajajajahajacaoaqaKaKaLaKaLaqapafafafafafacanafafacafaPaPaQaWahatai",
"araraiaXajaYaGagacafafaQakaDahaYacacacajaZaVa0a1a2a3aUasaaaaaiahahajajajacaoapaLaKaKa4aKa4aqaeafacacagavaGagacacananacacagaGaEaE",
"aaaaaaaaasasasarajavavakakavavakacacacalaEasaUa3aUaUasaraiahabahaYabahahahaWa5aNa6a6a6aMapa6aoafacacalalajataiaratajajaGaGaGamaE",
"aaaSaTa7a8a8a7a9ayabaBauafafafafanacajajajataZa!aZaFalaOacacacakaDahabaya#a$a%a&aCaHavakakakaGagacagaOalaZasa(a1a(aUaraiaXajaha)",
"a*a*a9a#a#a#a+a,awaWavaQaQacafafafafanacaQacagagacagacacacacacacaQaBaWawa&a%axabahaCahahahahahajaGagaOaOalataVa-a-araraiaEa)a)at",
"aaaIababahakaQaPafaPagajajajaOanadapadapapadadadaoafacacacacacacanafaoaoaoaPanacacagakavaYabazabaYavacanacanacauaQacaOalamaEaiai",
"ajahaYavavaQanafaoafafacacacacafafafaNadadapaeapadadadaoaoaoaoadadadafafaoadaqaqaqaMaMaNaPaHaQaQauanananauaQaQacafafafanaOaGajaX",
"acaOajajahaYavacafaAadaeapaeadafakaYavaQafaoaoaNadadaeapaqaqaLaLaqa6aBajagaoaKa.a/a:a/a;aKaqapadaeadaoauakahatataOafadadaoafacaO",
"aAafacaOajavacafadaqaeadaNaoaPacakavakaQaQa<a<a=a>a?a@a[a]a^a_a`a{a|a^a}a[a~babba=a<a<aKaqapadadaeaeaNanavahahavafadaqaqaqaeaoaA",
"adadafacagacafada4a4apaoaQakavakacanaPauaQbcbcbdbebabfbgbha^a|a{a{a{bia}bga@babjbka<bcaoafafaoaoadadaoafacacacaAaeaqaRaLaRaqapae",
"adafafacaOagacadaqaqadaoafaPauaQafbdbda>blbmbnbobpbqa[brbibsa{bta{bubvbwbra[bqbpbxbya?bla>bdbdapapaqaqaeaoaoadapaqaqapapaebzaNaA",
"afacagaOalaGacafafaoaoadadadadaoafbdbAbeblbBa[bCbDbEbFbGa{btbtbHa{a^bIbIbJbKbLbDbCa[bMbla>bkbkaqaRaRaLaLaRaqapapaqapaoafaPaQacak",
"afafacagakacafafaoaAaAaAaoadadbNbNbNbObmbfbrbua`bPbQbtbRa|a|bSbHa{bubIbIa{bQbTbTbta^brbUbpbobNbNbNaeapapaeadaoaAaoaoaoafanananac",
"aoaAafaQaQaQaPaoadadaoaoaoaoaobNbNbpbMbrbVbKbtbtbWbta_bibXbYa|bHbHa|bsbsbSbtbQbQbtbHa|bVbrbMbpbZbNaoaAaAafanacacacafafaAafafafaf",
"acakajabaIazabaCafadaqaKaKbNbNbpblbMb0btbtb1a|bKa{a{bubib2bYa|btbtbHa{bSbta|bJbJbSbtbHbHa{b0bMbpb3bNbNaoaoafanacanacacacanafanaf",
"ahahaiayb4b4b4axaQapa4a.a;bZbZblbCbFbRbtbtbKbYb5b6bua{a{bsa|b1btbtbHbSbtbtbFbBbBbFbta{a|b1a{bFb7blbZb8adaoaoafananacaOaOaOacacac",
"aGakakaHaHaHaHa5aNaqaKbeb9bab!b#bFbta|bKbta|bYb5bia|b1btbWb1bKbKbSbtb1btbWbFbBbMbFbtbJb6a{bWbTb$b#b!bab9beaWaOacananacaOaOaOajam",
"agacaoaNadapaMaqaMapadbNbNblb7bKbta|bYbYa|btbRa|a{btbtbtbWa|bYbrbKbtbtbSbtb1bJbFb1a|brb2bKbQbQbSa|bCblbOb9azaXavanafacacaOajaZai",
"azaYacafaAaAafaPaubcbdb9bpbUbFbTbTa|b5b5bKbtbRa|a{bHb1btbWbKb5b5bKbQbtbtbSbtbWbQbWa|bYbra|bSa|a|btbLbMbpbObdbcanaAafacaOajaraab%",
"a*aJaYavagavajahajbkbAbobMb0a{bPbQbSbibibRa|brbXbia|b1b&bWbSb6b6a{b&bQbtbSbtbPbTbWbta|bKbta|brb5bia^b0bMbObdbdadadaoanaOaXaiaaaS",
"aSaaaaaiaiatajajalbbbebpbra{a{a{a|bKa|a_btbKbYb2bibua{bSbKbKb(b(bSbSbKa|b1a{bFbVbsa|a{bHbHbKbYb5bibua_brbpa>a>apapapaeaNacaYaJaa",
"aiaaaaaaasaaaXalalbpblb)bVa`a_bib2b5bKbHbtbSbKbKbSa{a|b6b5bhbsbHa|bib2bYbRbKb*b+a[b,bva{bHbSa|bKa|a`btbLbfblblapaqaLaLaqaAaQahai",
"acakaYa)aaaaaab-a<bpb.bYbKbta{bib5bYa|btbtbtbWbWb&b1a|b6b/b2bKbHbubib5bYbGbJbBb)bgbhbia_bSbHbtbtbtbtbta|brb*bab-b-aRaRapaAacakag",
"akakaYaIaSa-aVa<b:bob;a|btbtbtbRa|a|bSbSbSbtbQbQbtbtbHbsb<bhbsb(a{a{a|bRbta`bFbEbKbRa{bHbHbtbtbtbtbtbWbtbKa[bob:a<apbzaAakavakag",
"aTaTa3a2a1a1a3b:b:bjb;a_a{bta{a{bRa|bSbtbSa|bEbEa|bHbta{b6b6bsbSbtbSbRa|a{a{btbta{a|b1btbtbtbtbtbtbRbJbFb1bCbob:bcafavabaya*a*a*",
"a2a2a0a2b=a3aUb:bdbebfb,bvb(b(bibrbYbKbHb>b,a~a@b,a{bHbHa|b(a|bHbta|bYb2bibubua^bYbYbKbtbWbWbtbtbtbFbBbBbGb?bxb:bcacahayaVb@a7b[",
"aaaIahaWavaBakb:a=bebUa}a^b(bub6b5bYbKbtb>b,a@a~a}a{bHbSbKbsbSb&btbKbYbXbibububibXbha|bRbFbFbRbWbQbEbBa[bGb?bob:bcafava)aya9a-aT",
"avacafadapadadb:b:bybCb1btbHbHa{a|a|btbtbHa|bEbJa|bHa{bib5bYbsbWbtbtbKbGa{a`a`a{a|a|btbJbBbBb$bWbta{bEbJbtbCbyb:bcakaDa)aJa*b%b%",
"aOacaoadaqapaoa<b:bxb]b^b_bFb$b$b$b$a|a|b(a_bHa{a{bsb6bhb`b`a}bKbJbJbKbKbKbKbKbKa|bRbRbibBb)b,b_bSb&bWbtbKb.bybca<aVaraaararaZai",
"afafadadadadaobcb:b{b|b}b~cacbcacccdb,bvbIbIbIbIa]bhceb`cfcfcga[bgbgbgbgcececebXbXa]bvbIbwbYchcdcib_b}cicjbqckb-b-ayabaCavavagaO",
"adapadadadaoafa=clcmcncocncpcqcqcrcsctb<b<cucvcwcwcxcvcycuczcvcvcvcvcvcvczcAczcucucucuchcdcccrcBcncCb}cDcEcFcGcHcIaMaMaLaRaMapae",
"aqaqaqaqaqaqaqcJcJcGcKcLcMcNcOcPcQcRcScTcUcVcWcXcXcqcYcLcLcZcZcZc0c0cZcZcZcZcLcLcTc1c2cqcqcOc3cOc4coc5c6c7c8c9cHcHaKa4aKaLaRaqap",
"aqaLa4a;a/a/a.cHc!c#c$c%c&c(cQc)cBc(c*cTc+c2cOc,c-cOc.c+c+c/c/c/c+c+c+c+c+c+c+c0c5c:cBc;cPc<c,c)cNc=c=c+c>c?c9cHcHaAaoaAafafaAaA",
"adapaLa4a.a/a.cHc!c9cGc7c/c&c(c(c*coc*c0cEc@c[c]c<c^c_c`c>c{c{c{c{c`c{c`c{c{c|cEcMc&cBc;c^c}c]cRc:c5cMc%c{c~cHcHcHafanagalajavag",
"afafaoadapaqaqc9c!dadbdcdddedfc0dgc+c/cKdccGc$dhdidjc9c~c~c?c?c?c?c~c?c~c~c~c~dkcKc.dhdidldidhdmdec+dfcKdcc9dbcHcHadaPakabazazaI",
"agacacacacacafc9c9c9c?dndodpc>c`c|dkdkdqdrdrdqdqc#dsc?c?c?c?c?c?c?c?c~c?c~c~c~c8dcdkcGc#dsc#cGdkc|c>dpc>dnc?c9c9cHaqaeaPaWabatat",
"alalaOalalamalb-b-b9dtdua@dvdwdxdydndzdndzdzdzdzdzdzdAc?drdrc?drc?c?c?dAdAdAdAdAdAc8dndydBdBdCdxdxdwdvdvdDdtdEb-b-a4aRapafagalam",
"acagaOalalalala<bcbnb#b0b0a]bYb2b/cgb)dFdwdGdHdCdydydzc8dAdrdrdrc?drdrdAc8dzdndydydxdGdFdpdIcgdJb2bYa}b0b0b#bnb:a<aqaqaeaoafacag",
"anacacagagagaca<b:bodKbQbtbRb>b(bsb6bhb2b`cgbBb)a@dpb!dLdLdudMdMdMdududLdLdLdpa@b)bMcgb`b2bhb6bvbua{a`btbPdKbnb:a<afafaAaAaAafaf",
"aIazazatahajaGbcb:bob?b^bPbHbHa{a{a{b(a|bFbFbJb6bEbVbVbEbVb0dNbVbVb0b0bVbVbVbVbEbEbJbJbsa|a|a|bSa{btbtbtb^b?bob:bcajavavakavaDaD",
"a8b[a7a-a*aIatbcb:bocabLa|btbtbtbHbtbtbtbWbWbWbtbtbQbQbWbWbQbWbWbQbWbQbQbQbWbQbQbWbtbWbtbtbtbtbtbtbtb1a|bLcabob:bcaIazabaIayaVa9",
"aTaTa*aIahaQaua<b:bbbxdOdPa|btbtbtbtbtbtbtbtbtbtbtbtbtbtbtbtbWbtbtbtbtbtbWbtbtbtbtbtbtbtbtbtbSbtbtbta_dPdObxa>b:a<a5dQa5dRaWabaJ",
"atajavacaNapapapaqbdbAb9b;bsbVbLbSbtbtbtbtbtbtbtbtbHbtbtbtbHbtbHbtbSbtbtb&btbHbtbSbtbtbtbtbtbtbSbEbVbsb;bNbAa=aLa4a4a4aKaMadafac",
"ajajaGacaQauaHdSaWb:bdb9b;a[a~b*bFbWbWbtbtb&bSbtbtbtbHbtbtbtbtbtbtbtbSbtbtbtbtbtbtbSbtbtbWbWbWbLbMa~a[b;bnbdb:aqaMaRaqaeaoanavaY",
"atatahahataaaSdTa-aSayahaQbZdUblbLb_dNdKbVbKbSbSbtbWbtbtbtbtbtbtbtbtbtbtbtbtbtbtbSbSbKbVdKdNbSbVb!bZbZacaQacanafananacagaja)aEai",
"avavaWaYahabatatabahatajavbNbZb!bFdVdWbpbfbrbEbHbPbQbPbPbtbPbtbtbtbWbWbtbPbQbTbPa{bsbrbfdWdWdVbFb!bZbNazazazabahaWavavaOavaGavaY",
"acaQakaCaWaHaQaQacacavahaZatahajajbkbAa>bla[bibKdNdKdKdKdPdPdPdPdPbrdKdKdKdKdKdNbKbia[bla>dXbkajaXaJa*a9b4a+a%azabahavacanafafaf",
"afaPaWabazayaaaIaIaIaaaaaaaaaXajaGbdbdbbdtbgbsdYdWdZdZdZdZdZdZdZckckdZdZckckdZdWdYbsbgdtbbbdbdajaXataJaIabaWavaWaWakaQanafadaeap",
"afacawa&aydTa-dTb@dTdTa*a*aiajacanacaOaGacafafdXdXdXdXdXdXdXdXdXdXdXdXdXdXdXdXdXdXafacagaOalaYajajaYaYaQafaoaNaoafafafaAadadapap",
"acafaQauaHaHavaWaCawaYaWavauafaoaoafafafaoaoafbkbdbkbAbAbkbkbAbkbkbkbkbkbkbkbkbkbdacaGalalaFalaGagacafadadapaeaeaeaeaeapaeadadad",
"afafafaoadaNaNaoaoafafafadadadadaoaoaoaoaoaoaQacaQacafafaoafaQaHawaCakafaoaoanakavajaYavajavagacaAadaqaqaqaqaqaqaqaqaqaqaqapadad",
"adaoacalataaaIazatahavacafadaoafagavavakagakagaOacacacafaoaoafaPaPaQacaPaPaHabababakafaNaMaLaLaLaqaRaLaLaRaLaLaLaRaqapaqaqaqaRaR",
"aqadacajaVaUaTaSa*aIahacafafacagaXaZatatajajalaOagacacananafafafanacaQakaWaCaxazawaHaeaKa.a/a/a;a4aLaLaLaLaRaRaqapaNaoadapaRa4a4",
"aKaLadafauaHaHaHaPaNa6apadaoafagaja)atatatahaGagagagaGalajahataIaya*ayaIavakaHaQaPaNaqaLaKaKaqaqapaeadapapapapaAdSabawaBafaeaqaL",
"aKaLaqapapaqaqaqaLaKa4a4aLapaoafaQaHaWaCaCakaQacacacaQavajataJa*aTb[a7aSaIavaQafaoadapaqaeaoafananafafafaoaoafakazb4a+ahaQaoadae",
"adadaoadadadadaqaqaLaLaLaLaLaLaqaqaMapa6a6a6adadaeapaqaMaeaNaPavaIa*b@d0dTdTayabakaQaAaAafacaOalaOaOacacafacacajazaIaXaYacanafaf",
"afafafafafafaoadadapapaqaqaLaKaKaLaLaMaqadadadapaqaLa4a4a4aLadafakataydTa#b@b4azaWaQafaAafacagaOacacafafafacagavajaGagacacananaf",
"apadafacaQaQacaPafadadadadadadaoafacaGaGalalacafadaRa4aKaqadafagaGalajajahajaQaPaNapaqaqaqaqaqaqaLaRaqapadaoafanacanafafaAaoaoad",
"afaPaQaWahabahavaQaQafafacaQacacaOalaFaZaFamaOacafbza6a6aoafagalaOagacacacafaAaoadadapaqaqaLaLaLaLaLaMaNaPaQacacanacacacacaQaQaQ",
"aIaIaIaIaaa*b4a*aIaWababazabaCacafafacacacacafacaQavahahakagacacafafafaoaoaAafacacacacanaAaoafafauavabaIa*ayaIataXaXaEaib%a-aTd1",
"aTaUaSasdTb@a7b@ayaIazazb4a*awa5aoadaoaoaoaoaoaPavata*ayataGacafaoadadadadafacagaOalajalagacagaGajaJaVaTb[aTa-asaaard2asa(a1d3d4"
};
