/* XPM */
static char * image[] = {
"64 64 178 2",
"aa c #6DD31C",
"ab c #5DC31B",
"ac c #4CB203",
"ad c #399F01",
"ae c #359B00",
"af c #45AB02",
"ag c #50B604",
"ah c #5DC313",
"ai c #68CE14",
"aj c #5CC20C",
"ak c #51B70B",
"al c #5CC204",
"am c #60C604",
"an c #48AE02",
"ao c #3DA301",
"ap c #319601",
"aq c #2D9200",
"ar c #6CD215",
"as c #73D91C",
"at c #64CA14",
"au c #49AF0A",
"av c #54BA0B",
"aw c #59BF1A",
"ax c #64CA22",
"ay c #69CF23",
"az c #61C71B",
"aA c #40A601",
"aB c #51B711",
"aC c #56BC1C",
"aD c #59BF14",
"aE c #64CA0C",
"aF c #62C807",
"aG c #58BE05",
"aH c #4DB313",
"aI c #65CB1B",
"aJ c #68CE1B",
"aK c #218700",
"aL c #258B00",
"aM c #2D9309",
"aN c #3EA40A",
"aO c #54BA04",
"aP c #45AB0A",
"aQ c #4CB20A",
"aR c #288E00",
"aS c #71D723",
"aT c #7CE22C",
"aU c #7CE224",
"aV c #75DA24",
"aW c #55BB13",
"aX c #60C60D",
"aY c #58BE0B",
"aZ c #68CE0D",
"a0 c #88EE2E",
"a1 c #8CF233",
"a2 c #88EE32",
"a3 c #84EA2C",
"a4 c #1D8300",
"a5 c #44AA12",
"a6 c #349A09",
"a7 c #7DE333",
"a8 c #84EA39",
"a9 c #71D72A",
"a! c #D09664",
"a# c #C38C5D",
"a$ c #9B6F48",
"a% c #9E7149",
"a& c #83E927",
"a( c #60C614",
"a) c #6DD323",
"a* c #75DB31",
"a+ c #68CE29",
"a, c #60C622",
"a- c #CC9362",
"a. c #B48155",
"a/ c #A2744B",
"a: c #906745",
"a; c #79DE24",
"a< c #C8905F",
"a= c #B07E53",
"a> c #B98557",
"a? c #BB8659",
"a@ c #BE895A",
"a[ c #AA7A4E",
"a] c #C7905F",
"a^ c #B58359",
"a_ c #8D643F",
"a` c #996D47",
"a{ c #AD7C51",
"a| c #8B6544",
"a} c #936B46",
"a~ c #A5794C",
"ba c #389E0A",
"bb c #856143",
"bc c #7B5A40",
"bd c #956B48",
"be c #815E42",
"bf c #8F6A46",
"bg c #735741",
"bh c #73553E",
"bi c #8E6D4C",
"bj c #6DD32A",
"bk c #9C7B4E",
"bl c #A47E3F",
"bm c #765A42",
"bn c #B39257",
"bo c #A47E41",
"bp c #CFB466",
"bq c #957448",
"br c #AC843E",
"bs c #41A712",
"bt c #78DE2C",
"bu c #947043",
"bv c #CBAA55",
"bw c #B28B43",
"bx c #D1B666",
"by c #AC8B4D",
"bz c #85EB32",
"bA c #81E733",
"bB c #AE8843",
"bC c #CCAD5A",
"bD c #49AF11",
"bE c #71D71D",
"bF c #C7A85B",
"bG c #AB8543",
"bH c #75DB2B",
"bI c #C5A454",
"bJ c #A68043",
"bK c #7BE138",
"bL c #5DC322",
"bM c #51B718",
"bN c #C8A753",
"bO c #9F805C",
"bP c #70D632",
"bQ c #C19E4E",
"bR c #D1C0B2",
"bS c #AA8E6B",
"bT c #946F3E",
"bU c #6AD00F",
"bV c #C0A061",
"bW c #CDBCB1",
"bX c #BCA99B",
"bY c #997D63",
"bZ c #B5976F",
"b0 c #A9958F",
"b1 c #BCADA5",
"b2 c #B6A49C",
"b3 c #A7864B",
"b4 c #B19E98",
"b5 c #C5B5AB",
"b6 c #C5A658",
"b7 c #BD994D",
"b8 c #9C8377",
"b9 c #AB9791",
"b! c #9E8680",
"b# c #9E7A42",
"b$ c #9B827E",
"b% c #73D915",
"b& c #197F00",
"b( c #0E7300",
"b) c #157A00",
"b* c #40A60A",
"b+ c #3CA210",
"b, c #DEC670",
"b- c #D0B15C",
"b. c #AE8F53",
"b/ c #B6934B",
"b: c #B8954D",
"b; c #8F6F3F",
"b< c #6F5843",
"b= c #9A7645",
"b> c #615043",
"b? c #6A5442",
"b@ c #5F4F43",
"b[ c #79DF33",
"b] c #81E62C",
"b^ c #70D616",
"b_ c #97FD3B",
"b` c #9CFF3F",
"aaabacadaeadafagahaiaaaaaaaiajakacacacacalalamalalacafadadadafacanaoapaqadaoaoafaoafacajarasasatajacafadaeapaeadafauavawabaxaxay",
"aaazakafadaeadaAauaBaCahaDavakagacacacavajaEaFajalaGaganaoafacacacafaoadaoadadadadaoafakahaiatataGacafadadadadaoafauaHawabaIaxaI",
"aaaJatakaoaqaKaKaLaMaMapapaNauakavaCahahataIaiaiaiaiaJataGagaOaOaOakavakacaoaqaqaqaqapadaAaPakakacanaoaoaoaoaAafaPaPaHaBaDazaIaJ",
"aaaaaiahaQadapaqaqaRaqaqaeaoaQakavavajahataaaSaTaUaUaVasaraEalajajajahajacaoaqaKaKaLaKaLaqapafafafafafacanafafacafaPaPaQaWahatai",
"araraiaXajaYaGagacafafaQakaDahaYacacacajaZaVa0a1a2a3aUasaaaaaiahahajajajacaoapaLaKaKa4aKa4aqaeafacacagavaGagacacananacacagaGaEaE",
"aaaaaaaaasasasarajavavakakavavakacacacalaEasaUa3aUaUasaraiahabahaYabahahahaWa5aNa6a6a6aMapa6aoafacacalalajataiaratajajaGaGaGamaE",
"aaaSaTa7a8a8a7a9ayabaBauafafafafanacajajajataZa!a!a!a!a!a!a!a!a!a!a!a!a!a#a$a%a$aCaHavakakakaGagacagaOalaZasa&a1a&aUaraiaXajaha(",
"a)a)a9a*a*a*a+a,awaWavaQaQacafafafafana!a!a!a!a!a!a!a!a!a!a!a-a!a!a!a-a-a-a.a/a/a/a/a:a$a/ahahajaGagaOaOalataVa;a;araraiaEa(a(at",
"aaaIababahakaQaPafaPagajajajaOa!a!a!a!a!a!a!a!a!a!a-a!a-a!a!a!a!a!a!a!a!a-a-a!a-a<a#a=a/a$a$a$a:aYavacanacanacauaQacaOalamaEaiai",
"ajahaYavavaQanafaoafafaca!a!a!a!a!a!a!a!a!a!a-a!a-a-a-a-a-a-a!a!a!a!a<a>a?a-a!a!a!a!a-a#a#a@a#a[a%a%a%anauaQaQacafafafanaOaGajaX",
"acaOajajahaYavacafaAada!a!a!a!a!a-a!a!a<a#a?a@a>a.a.a.a-a?a-a-a!a!a-a-a-a#a.a#a?a<a-a!a]a@a-a!a]a=a%a%a$akahatataOafadadaoafacaO",
"aAafacaOajavacafada!a!a!a-a!a!a-a]a.a>a=a[a#a?a]a!a-a!a-a-a-a-a-a-a-a-a]a#a<a=a$a[a[a#a#a@a-a>a^a]a>a.a/a[a_ahavafadaqaqaqaeaoaA",
"adadafacagacafada!a!a!a!a!a!a#a.a>a<a<a<a!a!a<a#a#a#a?a#a.a.a.a/a/a/a/a[a?a?a]a#a=a`a:a`a^a#a]a]a.a.a[a>a^a{a$aAaeaqaRaLaRaqapae",
"adafafacaOaga!a!a!a!a!a!a!a!a#a-a-a!a!a#a{a=a[a$a$a$a`a`a[a=a=a%a%a%a%a%a%a$a/a=a=a.a.a$a|a}a{a{a-a<a#a>a~a~a$a%a%aqapapaebaaNaA",
"afacagaOalaGa!a!a!a!a-a!a!a!a#a@a?a/a/a/a$a:a}a%a}a|bba|a`a%a%a%a%a%a%a%a%a`a|a:a:a$a/a>a:bca:a|a`a%a?a#a#a/a|a`a%apaoafaPaQacak",
"afafacagakaca-a!a!a!a-a-a>a{a%a%a$a`a`a|a|a:a`a%a$a`a$a$a|a|bba|a|bba|a|a$a$a`a:a}a|a|a}a$bdbba|a|a|bba|a>a-a/bea|aoaoafanananac",
"aoaAafaQaQaQa!a!a!a]a{a/a/a$a$bda:a|a|a%a%a%a|bfa|bebebebcbgbhbhbhbhbhbcbebea|a}a:a`a$a|a|a:a=a$a|a|bba:a=a^a/a|bhafafaAafafafaf",
"acakajabaIaza!a!a@a/a$a$a$a`a|a}a}a`a`a|a|bebcbcbcaoaNaNaNaPaPaHabaJayayaIazbcbcbcbea|a|bdbia|a{a/a>a>a>a{a$bdbebeacacacanafanaf",
"ahahaiaybjbja#a.a/a$a/bdbea|bda:bdbkbbbfblbhadaqaLa4a4a4a4aLaqaeafakaDazabaIazazazbhbhbhbebea|bea:a/a/a/bda|bcbmbcacaOaOaOacacac",
"aGakakaHaHaHa|a}a$bda|bca|a`a|bnbobpa}bqbrafaPaPbsaNbaadapapadadaAaPauakahaJa9btbta)abauaoaqbcbcbca|a}a|bebebea%a^anacaOaOaOajam",
"agacaoaNadapa-a^a%a/a$bia%a|bubvbwbxbobybrafaQawababalacafafanafaoadadafavatbtbza2bAa9aJakaoapaLa|a/a>a#a@a]a]a]a#afacacaOajaZai",
"azaYacafaAaAa{a?a-a>a@a!a^a}bBbvbwbCbybubradaQaHaWakacacafaoafafaoadapaeaAaQa(araTbzbAaTa)abaBbDbea|a/a~bda{a{a[a$afacaOajaraabE",
"a)aJaYavagava$a%a/a|bda/a%bebFbCbwbCbGa}braoafaQaQaQaQaPafaoadadaeapaqaqaeaAagaXaaaTbAa7bHa)azahbcbca%bdbea$a$a$a%aoanaOaXaiaaaS",
"aSaaaaaiaiata%a%a%bba}a%a%bbbIbCbwbCbJbubracacakavaCababahakafadaqaLaKaRadaQabaIaya+a+aIaDaQaPaAbcbea%bdbba/a$a/a%apaeaNacaYaJaa",
"aiaaaaaaasaaa%a%a%a|a:a%a%bebIbvbwbvblbubraOaGajabaIaya)bjaIaWaPaeaMaRaMaPaWaxa+axababaDakafbaapbcbca%a$a$a%a%a%a%aLaLaqaAaQahai",
"acakaYa(aaaabba}a%a|a:a%a%bbbIbCbwbvblbubrbrajabahaIa)a9bKa7aTa)bLbMaHaBaWahahabahaiaSaVaSaxaWanbcbea%a`a:a%a%a%a%aRaRapaAacakag",
"akakaYaIaSa;bha|a$a|a}a$a%bbbIbCbwbNbGbObrbraDahaCahazbjbPbKbtbHa)ayaza(ahaDavaGajaia;a3bzbtazaYbcbca%a}bea%a%a%a%apbaaAakavakag",
"aTaTa3a2a1a1bca|a%a|a}a%a%bbbQbvbwbNbnbRbSbTaQaQacauaPaPa5a5a5aHaWaYajajaGaGaGambUarasaVaSaaataYbcbea%a}a|a%a$a%a%afavabaya)a)a)",
"a2a2a0a2bza3bca|a%a|a:a%a{a%a|bIbwbNbVbWbXbYafaoadadadaqaRaKaLaqadafacacacaOamaZararaaatahaDaYavbcbea%a`bba%a%a`a}acahayaVbta7bA",
"aaaIahaWavaBbha|a%a|a}a=a=a/bbbIbrbCbFbZbRb0b1apadapapaqaqaqaqaqaeadadaAacaGaiaaa)aJahacafanagaObhbea%a}bba%a%a:bcafava(aya9a;aT",
"avacafadapadbca|a%a}a`a/a%a%bebIbwbCbJbnb1b2b1adadadadaNaoaoaPaNaNaNaAaPavaIaya)axahakacanaQajbcbea|a}a`bea%a%a|bgakaDa(aJa)bEbE",
"aOacaoadaqapbca|a%a|a:a%a%a%bbbIbwbvbub3b4b5b2anacacacakaCabbLbLawahabaxa9bta)ayajavavaYajaiasbmbea$a[a|a|a}a%a|bcaVaraaararaZai",
"afafadadadadbca$a%a|bfa%a%a%bbb6b7bJblbib8b9b!afafafaQavataaa)a)axazazaJa9aTa;aaaYaOajaEarasaUbcbca%a/a>a=a$a%a:bhayabaCavavagaO",
"adapadadadaoafa%a%bbbfa%a%a%beb6bCbJbla}b#b$aqaLaLaLadafaYaraiaXavacauagaEb%aUaVaXaYajatarasa;bcbea%a%a%a%a%a%a|bcaMaMaLaRaMapae",
"aqaqaqaqaqaqaqa%a%a}a}a%a%a%bbbFbGbIblbubBaLa4a4a4aKapafakajagagacanafanagalatahauafaQaWaYaba(bcbea$a%a}a%a%a%a|bcaKa4aKaLaRaqap",
"aqaLa4b&b(b(b)a%a%a%a%a%a%a%bebIbqbNbJbubra4b)a4aKaqaoafaoaNadaoafacacacanaAaNaMaKa4aLapb*afaobcbca%a`bea%a%a%a`bcaAaoaAafafaAaA",
"adapaLa4b)b(b)a%a%a%a%a%a%a$beb#b#bNbJbubraLaKaLapadadadaLaLaRapaAananananaPa5b+aMaRaRaqapapaqbcbea`a}a|a%a%a%a%afafanagalajavag",
"afafaoadapaqaqa$a$a%a%a%a%a%beblbBbNblbubraoaNadaoaNapaKb)b)aLapadadadaAakaza9a9abaHaAapaqaLaRbcbea`bea%a%a$a$a%aeadaPakabazazaI",
"agacacacacacafbea:a/a$a%a%a%bbbIbrbvbJbubracadadadaqaqa4b)b)aqapadadadadauaCa,bLaHaNadaqaLaRapbcbca`a|a%a%a}a|a%aRaqaeaPaWabatat",
"alalaOalalamalbha:a%a%a%a%a%bbbNbwbNbla}brafapaqaqaqaqaqaqaqapa6aoafafaAada6aMaLa4b&a4aKaRapb*bcbea$a$a%a%a}a|a$aKa4aRapafagalam",
"acagaOalalalalbca|a%a%a%a%a%bbbybwbvblbfbBb,aPaNb*aPaHaHaHakavavaYajaYakacaoapaRa4a4aLapadaoaQbcbcbda|a%a%a:a|a%aqaqaqaeaoafacag",
"anacacagagagacbcbfa%a%a%a%a|bbbhbrbvbrbqb-b-ahataIaaaSaSa9aVaVasasasbEaaatalaganaoaoafafaQacakbcbea`a}a%a%a:a|a%afafafaAaAaAafaf",
"aIazazatahajaGbca|a%a%a}a|a_a}beb3bNbGb.bQbwabaIaaaaaaasasaaaaaaaaaiaaaiatajaGaOagakakavavavagbcbcbea%a%a%a}a|a%ajajavavakavaDaD",
"a8bAa7a;a)aIatbca|a%a%a`a.a/a$beb/bNbwbIbTaNahaiaIaIaYajajaGaOakaOaGalajalajavavahahabaYavavacbcbcbea$a%a%a:a|a%a)aIazabaIayaVa9",
"aTaTa)aIahaQaubca}a%a%a.a[a`a%bcbBbvb:b#bubLa)bHayatakacacacanafafanacacagagagakavaYajaYavagacbcbcbea%a%a%a:a|a%a5a5bsa5bDaWabaJ",
"atajavacaNapapapa%a%a%a%a%bca%bbbGbCb6bubrbPbKa*a)abavaQanacafafaAaAaAafanacacacacacacagaOacanbcbcbca%a%a%a}a|a%a4a4a4aKaMadafac",
"ajajaGacaQauaHbMa%a%a%a%a%bca`bcbBbCb#bubrbLazazahaQacanafacacacafaoadadaoafanacagagacagaGavagbcbca|a%a%a%a}a|a%aMaRaqaeaoanavaY",
"atatahahataaaSbHa%a%a%a%a%bba`bebrb6bfbubraoafaPafafafacacacaGaOanaAadadaNaAanacavaGaOaOaYaYajbcbea$a%a%a%a`bda`ananacagaja(aEai",
"avavaWaYahabatata%a%a%a%a%bea`bbb/bJbJbfbrafanacaQakavajajaha(ahavaQafadadadaoafafacacagaGaGajbcbca$a%a%a%a%a:bcaWavavaOavaGavaY",
"acaQakaCaWaHaQaQa`a%a%a%a%bea`bbb6brbJb;bracakaYahabaIaIayaJaIa(aYakafaoadadadadadafacagacaObcbca|a$a%a%a%a%a:bcabahavacanafafaf",
"afaPaWabazayaaaIbca}a%a%a%bea`bebJbIbJbublafacagavahaIaaaaatahakauafafafafafafaAaoaoacacaOaObcbea=a{a%a%a%a%a:bcaWakaQanafadaeap",
"afacawbLaybHa;bHbca|a%a$a%bba`bcbibNbJa|b<afafafacavataiaiajacafadaNaoafacagacacafafacagaOalbcbea%a{a%a%a%a$a:bcafafafaAadadapap",
"acafaQauaHaHavaWbca:a$a|a`a`bebcb=bNbrbmb>aoafacacagavavacacacauaQaQafafaPafafacacacaGalalaFbcbca$a%a%a%a`a|a:bhaeaeaeapaeadadad",
"afafafaoadaNaNaobca:a%bba}a%bea}bubNbTb>aoaoaQacaQacafafaoafaQaHawaCakafaoaoanakavajaYavajavbcbea$a%a%a%a`bea:bcaqaqaqaqaqapadad",
"adaoacalataaaIazbha}a%bba}a%bea`bbbIbbb>agakagaOacacacafaoaoafaPaPaQacaPaPaHabababakafaNaMaLbcbca$a%a%a%a$a:bcbcaRaqapaqaqaqaRaR",
"aqadacajaVaUaTaSbha:a%a}a|a`bea`bebyb>atajajalaOagacacananafafafanacaQakaWaCaxazawaHaeaKb)b(bcbea$a%a$a|a%a:bcaqapaNaoadapaRa4a4",
"aKaLadafauaHaHaHbca:a%a%bebdbea`bebub?atatahaGagagagaGalajahataIaya)ayaIavakaHaQaPaNaqaLaKaKbcbca$a%a$bea%a}bcaAbMabawaBafaeaqaL",
"aKaLaqapapaqaqaqbcbba`a%a|a`a:a|bcb>b@aCaCakaQacacacaQavajataJa)aTbAa7aSaIavaQafaoadapaqaeaobcbea$a%a`bea%a:bcakazbja+ahaQaoadae",
"adadaoadadadadaqaqbca:a%bda$a$bcbcb?b>a6a6a6adadaeapaqaMaeaNaPavaIa)btb[bHbHayabakaQaAaAafacbcbca$a%a`bebdbcbcajazaIaXaYacanafaf",
"afafafafafafaoadadbca:a%bea`a|bcbcbcaMaqadadadapaqaLa4a4a4aLadafakataybHa*btbjazaWaQafaAafacbcbea$a$a`bea}bcbcavajaGagacacananaf",
"apadafacaQaQacaPafbca:a`bebdbcbcbcbcaGaGalalacafadaRa4aKaqadafagaGalajajahajaQaPaNapaqaqaqaqbcbea$bea%a`bcbcbcanacanafafaAaoaoad",
"afaPaQaWahabahavaQbcbebebca}bebcbcbcaFaZaFamaOacafbaa6a6aoafagalaOagacacacafaAaoadadapaqaqaLbcbcbebea$bebcbgb?acanacacacacaQaQaQ",
"aIaIaIaIaaa)bja)aIbgbhbcb?bcbcbgbcbcacacacacafacaQavahahakagacacafafafaoaoaAafacacacacanaAaobcbcbha|a:bhb?b<b>ataXaXaEaibEa;aTb]",
"aTaUaSasbHbta7btayb>b?b?b>b?b<b>b@adaoaoaoaoaoaPavata)ayataGacafaoadadadadafacagaOalajalagacagaGa|a|bcb?b>b>b>asaaarb^asa&a1b_b`"
};
