/* XPM */
static char * image[] = {
"64 64 206 2",
"aa c #6DD31C",
"ab c #5DC31B",
"ac c #4CB203",
"ad c #399F01",
"ae c #359B00",
"af c #45AB02",
"ag c #50B604",
"ah c #5DC313",
"ai c #68CE14",
"aj c #5CC20C",
"ak c #51B70B",
"al c #5CC204",
"am c #60C604",
"an c #48AE02",
"ao c #3DA301",
"ap c #319601",
"aq c #2D9200",
"ar c #6CD215",
"as c #73D91C",
"at c #64CA14",
"au c #49AF0A",
"av c #54BA0B",
"aw c #59BF1A",
"ax c #64CA22",
"ay c #69CF23",
"az c #61C71B",
"aA c #40A601",
"aB c #51B711",
"aC c #56BC1C",
"aD c #59BF14",
"aE c #64CA0C",
"aF c #62C807",
"aG c #58BE05",
"aH c #4DB313",
"aI c #65CB1B",
"aJ c #68CE1B",
"aK c #218700",
"aL c #258B00",
"aM c #2D9309",
"aN c #3EA40A",
"aO c #54BA04",
"aP c #45AB0A",
"aQ c #4CB20A",
"aR c #288E00",
"aS c #71D723",
"aT c #7CE22C",
"aU c #7CE224",
"aV c #75DA24",
"aW c #55BB13",
"aX c #60C60D",
"aY c #58BE0B",
"aZ c #68CE0D",
"a0 c #88EE2E",
"a1 c #8CF233",
"a2 c #88EE32",
"a3 c #84EA2C",
"a4 c #1D8300",
"a5 c #44AA12",
"a6 c #349A09",
"a7 c #7DE333",
"a8 c #84EA39",
"a9 c #71D72A",
"a! c #D09664",
"a# c #C38C5D",
"a$ c #9B6F48",
"a% c #9E7149",
"a& c #83E927",
"a( c #60C614",
"a) c #6DD323",
"a* c #75DB31",
"a+ c #68CE29",
"a, c #60C622",
"a- c #CC9362",
"a. c #B48155",
"a/ c #A2744B",
"a: c #A7784E",
"a; c #8D643F",
"a< c #79DE24",
"a= c #B07E53",
"a> c #996D47",
"a? c #906745",
"a@ c #BB8659",
"a[ c #C8905F",
"a] c #B98557",
"a^ c #C7905F",
"a_ c #A9794F",
"a` c #B58359",
"a{ c #956B48",
"a| c #AD7C51",
"a} c #815F41",
"a~ c #389E0A",
"ba c #BE895A",
"bb c #936C45",
"bc c #8B6544",
"bd c #846243",
"be c #755B42",
"bf c #6B5542",
"bg c #5F4F42",
"bh c #625142",
"bi c #7B5A41",
"bj c #715741",
"bk c #6E5A43",
"bl c #866941",
"bm c #7D6244",
"bn c #766145",
"bo c #9B7641",
"bp c #8C6A43",
"bq c #6DD32A",
"br c #8F7040",
"bs c #9F8046",
"bt c #947143",
"bu c #9E7A43",
"bv c #AE8641",
"bw c #9B7A49",
"bx c #A38451",
"by c #B59551",
"bz c #B69046",
"bA c #B59852",
"bB c #AB833E",
"bC c #B89347",
"bD c #BFA35F",
"bE c #C6A767",
"bF c #BB9D58",
"bG c #B7944D",
"bH c #AF8943",
"bI c #917050",
"bJ c #9A7950",
"bK c #BD9A4D",
"bL c #A57E3F",
"bM c #AB8C52",
"bN c #BA9549",
"bO c #A7803F",
"bP c #DAC06A",
"bQ c #D6BA63",
"bR c #D1B25A",
"bS c #A37D41",
"bT c #B28C43",
"bU c #B28E4A",
"bV c #B99750",
"bW c #C3A65E",
"bX c #CAAB5A",
"bY c #C9A752",
"bZ c #CFB05C",
"b0 c #D8BD65",
"b1 c #A68044",
"b2 c #D4B760",
"b3 c #CCAB55",
"b4 c #C19D4D",
"b5 c #71D71D",
"b6 c #C7AA5D",
"b7 c #C4A14F",
"b8 c #C5A454",
"b9 c #D0B057",
"b! c #D0AF57",
"b# c #BD9C52",
"b$ c #85EB32",
"b% c #A48148",
"b& c #78DE2C",
"b( c #81E733",
"b) c #A98449",
"b* c #AC8A4B",
"b+ c #197F00",
"b, c #0E7300",
"b- c #157A00",
"b. c #D8C2A5",
"b/ c #D4C4B4",
"b: c #CDBCAB",
"b; c #BCAA9D",
"b< c #A79084",
"b= c #DECAA2",
"b> c #CFC0B6",
"b? c #AB9690",
"b@ c #A7928C",
"b[ c #AD947B",
"b] c #B7A39C",
"b^ c #A9958E",
"b_ c #C2B1A4",
"b` c #B1956F",
"b{ c #846349",
"b| c #BEA488",
"b} c #CABAB0",
"b~ c #AE9986",
"ca c #7C6453",
"cb c #856F65",
"cc c #CBB690",
"cd c #8D7055",
"ce c #AE9371",
"cf c #B09E96",
"cg c #A88A67",
"ch c #B6986A",
"ci c #C5B5A9",
"cj c #9D8475",
"ck c #BEAAA1",
"cl c #A58E82",
"cm c #9A7E6A",
"cn c #41A712",
"co c #49AF11",
"cp c #51B718",
"cq c #75DB2B",
"cr c #A5884D",
"cs c #5DC322",
"ct c #967449",
"cu c #81E62C",
"cv c #70D616",
"cw c #97FD3B",
"cx c #9CFF3F",
"aaabacadaeadafagahaiaaaaaaaiajakacacacacalalamalalacafadadadafacanaoapaqadaoaoafaoafacajarasasatajacafadaeapaeadafauavawabaxaxay",
"aaazakafadaeadaAauaBaCahaDavakagacacacavajaEaFajalaGaganaoafacacacafaoadaoadadadadaoafakahaiatataGacafadadadadaoafauaHawabaIaxaI",
"aaaJatakaoaqaKaKaLaMaMapapaNauakavaCahahataIaiaiaiaiaJataGagaOaOaOakavakacaoaqaqaqaqapadaAaPakakacanaoaoaoaoaAafaPaPaHaBaDazaIaJ",
"aaaaaiahaQadapaqaqaRaqaqaeaoaQakavavajahataaaSaTaUaUaVasaraEalajajajahajacaoaqaKaKaLaKaLaqapafafafafafacanafafacafaPaPaQaWahatai",
"araraiaXajaYaGagacafafaQakaDahaYacacacajaZaVa0a1a2a3aUasaaaaaiahahajajajacaoapaLaKaKa4aKa4aqaeafacacagavaGagacacananacacagaGaEaE",
"aaaaaaaaasasasarajavavakakavavakacacacalaEasaUa3aUaUasaraiahabahaYabahahahaWa5aNa6a6a6aMapa6aoafacacalalajataiaratajajaGaGaGamaE",
"aaaSaTa7a8a8a7a9ayabaBauafafafafanacajajajataZa!a!a!a!a!a!a!a!a!a!a!a!a!a#a$a%a$aCaHavakakakaGagacagaOalaZasa&a1a&aUaraiaXajaha(",
"a)a)a9a*a*a*a+a,awaWavaQaQacafafafafana!a!a!a!a!a!a!a!a!a!a!a-a!a!a!a!a-a-a.a/a/a:a/a;a$a:ahahajaGagaOaOalataVa<a<araraiaEa(a(at",
"aaaIababahakaQaPafaPagajajajaOa!a!a!a!a!a!a!a!a!a!a-a!a!a!a!a!a-a!a!a!a!a!a-a-a-a-a#a=a/a>a%a$a?aYavacanacanacauaQacaOalamaEaiai",
"ajahaYavavaQanafaoafafaca!a!a!a!a!a!a!a!a!a!a!a-a-a-a-a-a-a!a!a!a-a!a-a.a@a-a!a!a!a!a-a#a@a#a#a:a%a%a%anauaQaQacafafafanaOaGajaX",
"acaOajajahaYavacafaAada!a!a!a!a!a!a!a!a[a#a]a#a]a=a.a.a[a@a-a!a!a!a-a-a-a#a.a#a@a^a-a!a^a#a[a!a!a=a%a%a%akahatataOafadadaoafacaO",
"aAafacaOajavacafada!a!a!a-a!a!a-a^a]a=a=a_a#a]a^a!a!a!a!a-a[a[a-a-a-a-a^a@a-a=a$a:a_a#a#a#a-a`a=a^a@a.a/a:a;ahavafadaqaqaqaeaoaA",
"adadafacagacafada!a!a!a!a!a!a#a.a=a-a-a^a-a!a^a#a#a#a@a#a.a.a=a:a/a/a/a:a@a#a^a#a=a>a{a{a`a#a[a[a.a.a_a@a`a|a{aAaeaqaRaLaRaqapae",
"adafafacaOaga!a!a!a!a!a!a!a!a#a-a!a-a-a^a=a=a:a%a$a$a>a>a|a=a=a%a%a%a%a$a$a$a/a=a=a.a=a/a}a{a|a=a[a[a#a.a:a:a$a%a%aqapapaea~aNaA",
"afacagaOalaGa!a!a!a!a-a!a!a!a#baa@a/a/a%a>a?bba%a{bcbdbca{a%a%a%a%a%a%a$a%a>bca?a?a$a/a=a{a}a?a?a>a$a#a#a#a/bcbba%apaoafaPaQacak",
"afafacagakaca-a!a!a!a-a-a]a|a%a%a%a>a>bca?a?a>a%a$a$a$a$bcbdbdbdbdbdbcbca$a$a>a?bba?bcbba$a{a}a}bca?a}bca@a-a/a}bcaoaoafanananac",
"aoaAafaQaQaQa!a!a!a#a_a/a%a%a/a>a{a}bca$a$a{bbbbbdbebebebfbgbhbhbhbhbhbfbebibbbbbba{a{bbbca?a|a%bcbcbca?a=a`a/bcbiafafaAafafafaf",
"acakajabaIaza!a!a#a/a%a%a$a>a}a{a{a%a{bdbcbdbjbjbkbhbgbgbfblbmbnbmbma;bhbkbobpbdbdbcblbda{a?a?a|a/a.a@a`a|a$a{a}biacacacanafanaf",
"ahahaiaybqbqa#a.a/a%a%a{a}a}a%a%a?bibjbfblbobbbdbrblbfbgbsbtbpbpblbrbubsbebvbobpbcblbdbwbtbibdbma{a/a/a%a{bcbibibiacaOaOaOacacac",
"aGakakaHaHaHbcbba$a%a}bia}a$a}a}bbbjbkbxbtbdbpbpbpbtbobkbybwbpbpbpbubzbAbmbBbCbDbEbFbybGbHbea>blbibca?a?a}a}a}a$a`anacaOaOaOajam",
"agacaoaNadapa-a`a$a%bIa$bJa?bla>bubAbnbKbwbpbtbtbLbHbKbmbobKbMbAbKbNbNbObbbBbNbPbQbRbNbBbBbpbDbrbca%a`a#baa[a[a[a#afacacaOajaZai",
"azaYacafaAaAa|a@a!a`a#a!a=a?bSbTbKbUblbBbVbWbXbXbYbNbHblbubBbZb0bZbNbHb1btbBbCbRb2b3bNbBbBbtb4boblbca/a/a{a=a=a_a$afacaOajaraab5",
"a)aJaYavagava$a%a:bca{a:a%a}b6bRbTbObtbBbzbQb0bRbKb7bzbtbLbBb3bPb3bHb8bLbbbBbNbQbQb9bCbBbBbbb1bNbxa}a$a{a}a$a$a%a%aoanaOaXaiaaaS",
"aSaaaaaiaiata%a%a/a}a?a%a%a}bYb!bBbObbbBbzbQb0bRbNb4bCbtb1bBbYbPb3bHbYbLbtbBbNbQbQb9bCbBbBbtbBbTbXbda/a{bca$a%a$a%apaeaNacaYaJaa",
"aiaaaaaaasaaa%a$a%bca?a%a%a}b8bXbHbObbbBbzb2b0b!bNbNbzbtbLbBb3bPb9bHbNb1btbBbCbQbQb9bzbBbBbbbBbBbYa}a$a$a$a$a%a$a%aLaLaqaAaQahai",
"acakaYa(aaaabdbba%bca?a%a%bdb8bXbHbObbbBbCbQb0b9bNbNbzbbb1bBb3bPb3bHbNbLbtbBbCbQbQbRbCbBbBbtb1bBb8bda$a$a?a/a%a%a%aRaRapaAacakag",
"akakaYaIaSa<bibca%a}bba$a%a}bYb3bBbObrbBbCbRbPb9bNb4bCbtbLbBb3bPb3bTbCbSbtbBbNbRbQb9bzbBbBbtbObBb8a}a$a>a}a/a%a%a%apa~aAakavakag",
"aTaTa3a2a1a1bibca/bca{a%a%bdb#b3bBbObbbBbCbRbQbRbNb4bCbrbOb1b3b2b3bTbYbLbtbBbNbQbZb!bCbBbObpbObHb8bca$a>bda$a%a%a%afavabaya)a)a)",
"a2a2a0a2b$a3bibda%bca?a%a_a$bcbYbHbBbbbBbzb9bRbRbNb4bNbtbLbBbYbRb3bTb8bLbtb%bUbZbRbRbzbLb%bbbBbvb8a}a%a{a}a%a%a{bbacahayaVb&a7b(",
"aaaIahaWavaBbibca$bca{a=a=a/a}b8bBbObtbBbCbRbRbRbNb4bNbobLbBb3b2b3bTbYbLbtbNbNbKbNbKb)b*bNbtbSbvbYa}a$a{bca%a%a?biafava(aya9a<aT",
"avacafadapadbibca/a>a>a/a%a%a}b8bHbObtbBbzbQb0b9bNb4bNa;bLbBbYb!bYbTbYbSbtbBb#b2b2b2b8bTbBbbbBbBbMa?a>bba}a%a%bcbiakaDa(aJa)b5b5",
"aOacaoadaqapbibca/a}a{a$a$a%bdbYbBbBbrb1bzbRbZbRbKb4bNbtbLbBb3b!b3bTbYbSbtbBbNbRbRbRbCbBbBbtbSbSa}a$a_a?bdbba%bcbiaVaraaararaZai",
"afafadadadadbia$a%a}bba%a%a$bdb8bBbObrbBbzbRb9bRbCb7bKa;bLbBb3b!b3bHbYbSbbbBbCb9b!b!bNbBbBbbbObObma%a:a.a|a>a%a?biayabaCavavagaO",
"adapadadadaoafa%a/bca?a%a%a%bdb8bBbObbbBbzb!b!b!bNb7bNbbbSbHbYb!b3bTbYbLbtbBbNb9b!b!bNbObBbrbObBbma%a%a%a%a%a%a?biaMaMaLaRaMapae",
"aqaqaqaqaqaqaqa%a$a{bba%a%a%a}b8bBb1bbbBbzb!b!bRbNb7bCbtbLbBb3b9b3bTbYbLbtbBbNbRb!b!bNbBbBbbbObOa}a$a$a>a%a%a%a?biaKa4aKaLaRaqap",
"aqaLa4b+b,b,b-a%a$a$a%a%a%a%bdb8bBbBbpbBbzbRb9bRbCbKbCbpbLbBbYbRb3bHbYbLbtbBbCb9b9b!bzbHbUbJb)b1a}a$a>a}a%a%a%bbbiaAaoaAafafaAaA",
"adapaLa4b-b,b-a%a$a%a%a%a%a$bdbXb4b#bMb#b8bQb2bQb3bXbYbMbAbKbZb0bRbDbZbybMbKbYbQbQb2bEb.b/b:b;b<bda$a{bca%a%a%a%afafanagalajavag",
"afafaoadapaqaqa$a$a/a%a%a%a%bdbXbRbRbRbZbZb2bZbZbRbRbRbRbZbZbZbRbRbZbZb2bRbZbZbZbZb!b=b>b?b@b<b<a}a>a}a%a%a$a%a%aeadaPakabazazaI",
"agacacacacacafbia?a%a%a%a%a%a}bob1b1b%bObSbSbSbubSbsb%b1b1b1bSbSbObObSbSb1bSb1b1bSbSb[b]b^b_b`boa}a{bca%a%a?bca%aRaqaeaPaWabatat",
"alalaOalalamalbia?a%a%a%a%a$a}bSblb{bebpbtbSbSbSbobobtbebdbpbub1bubtbub{bebpbtbSbSbSb|b}b^b_b/b~b{a$a$a%a%a{bda/aKa4aRapafagalam",
"acagaOalalalalbibca%a%a%a%a%a}b)bObtbebobTb3b3b!bCbKbHbeblbObYb3bYbHbDa;bebobCb9b3b3b=b]cacbb]b/bca>a}a%a%a?bca$aqaqaqaeaoafacag",
"anacacagagagacbia?a/a%a%a>bca}a}bObObtbBbCb!b!bRbNb7bNbtbObBb3bZb3bTbYbObtbBbNbRb9b9ccb@bIbkcdb_a}a>a{a%a%a{bca/afafafaAaAaAafaf",
"aIazazatahajaGbibca$a$bbbcbca>a}bBbObtbBbzb!b!bRbNb7bNa;b1bBb3b!b9bHbYbLbtbBbNb9b9bRcecfcgbpchcia}a}a%a%a%a?bca$ajajavavakavaDaD",
"a8b(a7a<a)aIatbia?a/a%a$a=a/a$a}bObObpbBbzb!b9bRbNb7bNbtbLbBbYb!b3bHbYbLbobBbNbRb9bRbxcjckb;ciclbia}a%a$a%a{bca/a)aIazabaIayaVa9",
"aTaTa)aIahaQaubia?a%a%a=a_bba>bmbObObbbBbzbRb9bRbNb4bNbtbObBb3b!b3bHbYbLbtbBbNb9bRb9bzbocmcjcmbba}a}a%a%a%bbbca$a5a5cna5coaWabaJ",
"atajavacaNapapapa%a%a%a%a%a}a>bibBbBbpbObzbRb9b9bNb4bNbbbOb1bYb!b3bHb8bLbtbBbNb9b9bRbCbBbLbpbLbObia}a%a%a$a?bca$a4a4a4aKaMadafac",
"ajajaGacaQauaHcpa%a%a%a%a%a}a>a;bObObpb)b*bRb!bRbNbUb*btb1bBb3b!b3bHbYbLbtbBbCb9b9bRbzbBbBbtbObOa}b{a%a%a%bbbca/aMaRaqaeaoanavaY",
"atatahahataaaScqa%a%a%a%a%a}a>bmbObObtbNbGbNbKbKcrbyb#btbSbBb3b!b3bzbYbObbbBbNb9b!bRbCbBbBbbbObBa}a%a%a%a%a$bba{ananacagaja(aEai",
"avavaWaYahabatata%a%a%a%a%a}a>a}bObLbbbBbNbRb2b2b8b3bNbrbLbBbYb!b3bHb8bLbtbBbNbRb9b9bzbBbBbtbObBa}a$a$a%a%a%a{a}aWavavaOavaGavaY",
"acaQakaCaWaHaQaQa{a%a%a%a%a}a>a}bBbObbbBbCbRb9bZbKbKbNbtbSbBbYb!b3bHb8bLbtbBbNb!b!bRbCbBbBbpbObObca$a%a%a%a$a?biabahavacanafafaf",
"afaPaWabazayaaaIbia?a%a%a$a}a>a}bObObtbBbCb9b!b!bNb7bNbpbLbBb3bZb3bzbYbLbtbBbNbRb!bRbCbBbBbtbObda=a=a%a%a%a$bcbiaWakaQanafadaeap",
"afacawcsaycqa<cqbibba%a$a$bdbba}bBbObpbBbzb9b9b!bNbKbCbbbLbBb3b!b3bBb7bLbbbBbNb!b9b!bzbBbBbpbLbda$a|a%a%a%a$a?biafafafaAadadapap",
"acafaQauaHaHavaWbia?a/a}a$a$a}a}bVbVbMb#b8bQb2b2bYb3b8bMbyb#bZb2bRbYb2bybMbKb8b2b2bQb8bKb#bMbAbda$a%a%a%a{bca?biaeaeaeapaeadadad",
"afafafaoadaNaNaobia?a/bca>a$a}a?bxbZbZbZbZbRbZbZbZbZb2b2bZbZb2bZbRbRbZbZb2b2bZb2bZbZbZbZbZbZb!bda$a%a%a%a{bcbcbiaqaqaqaqaqapadad",
"adaoacalataaaIazbia?a$a}a>a$a}a{bibSbSb1bSbSbSbSb1b1bSbSbObSbSbSbSbSb1b1bSbSbSbSbSbSb1b1b1bSboa;a$a%a%a%a$a?bibiaRaqapaqaqaqaRaR",
"aqadacajaVaUaTaSbia?a$a{bca$a}a$bmbdbebpbtb%bSb1btbobtbebdbpbSb%bwbrbubdbebpctbSbSb1btbpbpbebda}a$a%a$bca$a{biaqapaNaoadapaRa4a4",
"aKaLadafauaHaHaHbibca$a/a}a>a}a>bmbpbebLbHb3b3b9bNbKbHbnblbObYb3bYbTbDa;bibLbNb9b3b9bzbObobebpbma$a$a$a}a$bbbiaAcpabawaBafaeaqaL",
"aKaLaqapapaqaqaqbia}a>a%bda>a>a}bibLbtbBbzb!b9bRbNbNbCbtbObBb3b9b3bTbYbLa;bBbNb9b!b!bNbObBbtbObia$a$a$a}a%a?biakazbqa+ahaQaoadae",
"adadaoadadadadaqaqbia?a%a{a$a$a}a;bLbrbBbzb!b!bRbNbzbHbtbLbBb3b9b3bTbYbSbtbBbNb9b9b9bCbBbBbpbOa;a$a/a{a}a{a}biajazaIaXaYacanafaf",
"afafafafafafaoadadbia?a$a}a>bcbibib1brbObzb!b!bZbNbKbNbrb1bBb3bRb3bTb8bLbtbBbNb9b9b9bCbBbBbtbLbma$a$a$a}a?bibiavajaGagacacananaf",
"apadafacaQaQacaPafbia?a?a}a{a}bibmbLa;bObBbYb9b9bKbBbBbtbObBbKb9b3bBbHbLbrbObCb!b9b3bzbBbBbdbSa}a>a}a%a{bibibianacanafafaAaoaoad",
"afaPaQaWahabahavaQa}a}a}bia?a}bibma;bfbLbBbNb#b#bKbBboa;a;bLbBbNbYbBbLbpbdbLbNb4b7bNbObBbobjbca}a}a}a$a}bibibfacanacacacacaQaQaQ",
"aIaIaIaIaaa)bqa)aIbjbibibfbibibjbnbfbkbkblbobtbLa;blbebkbnbma;btbobrbnbfbebebmblbobtblbmbibebhbjbia}a{bibfbfbgataXaXaEaib5a<aTcu",
"aTaUaSascqb&a7b&aybhbfbfbhbfbfbhbhbhbhbhbhbhbhbhbfbgbgbgbhbhbhbgbhbgbgbhbgbhbhbhbgbgbgbgbgbgbhbhbha}bibfbgbhbgasaaarcvasa&a1cwcx"
};
