/* XPM */
static char *image[] = {
"64 64 266 2",
"aa c #6DD31C",
"ab c #5DC31B",
"ac c #4CB203",
"ad c #399F01",
"ae c #359B00",
"af c #45AB02",
"ag c #50B604",
"ah c #5DC313",
"ai c #68CE14",
"aj c #5CC20C",
"ak c #51B70B",
"al c #5CC204",
"am c #60C604",
"an c #48AE02",
"ao c #3DA301",
"ap c #319601",
"aq c #2D9200",
"ar c #6CD215",
"as c #73D91C",
"at c #64CA14",
"au c #49AF0A",
"av c #54BA0B",
"aw c #59BF1A",
"ax c #64CA22",
"ay c #69CF23",
"az c #61C71B",
"aA c #40A601",
"aB c #51B711",
"aC c #56BC1C",
"aD c #59BF14",
"aE c #64CA0C",
"aF c #62C807",
"aG c #58BE05",
"aH c #4DB313",
"aI c #65CB1B",
"aJ c #68CE1B",
"aK c #218700",
"aL c #258B00",
"aM c #2D9309",
"aN c #3EA40A",
"aO c #54BA04",
"aP c #45AB0A",
"aQ c #4CB20A",
"aR c #288E00",
"aS c #71D723",
"aT c #7CE22C",
"aU c #7CE224",
"aV c #75DA24",
"aW c #55BB13",
"aX c #60C60D",
"aY c #58BE0B",
"aZ c #68CE0D",
"a0 c #88EE2E",
"a1 c #8CF233",
"a2 c #88EE32",
"a3 c #84EA2C",
"a4 c #1D8300",
"a5 c #44AA12",
"a6 c #349A09",
"a7 c #7DE333",
"a8 c #84EA39",
"a9 c #71D72A",
"a! c #6AD00F",
"a# c #75DB31",
"a$ c #70D632",
"a% c #65CB2A",
"a& c #5DC322",
"a( c #83E927",
"a) c #60C614",
"a* c #6DD323",
"a+ c #68CE29",
"a, c #60C622",
"a- c #79DE24",
"a. c #157A00",
"a/ c #0E7300",
"a: c #0A6E00",
"a; c #197F00",
"a< c #389E0A",
"a= c #6DD32A",
"a> c #75DB2B",
"a? c #6D4616",
"a@ c #714917",
"a[ c #744D18",
"a] c #6E4816",
"a^ c #77501B",
"a_ c #7B531A",
"a` c #794B1B",
"a{ c #845B1B",
"a| c #8D641E",
"a} c #8E6220",
"a~ c #AC792C",
"ba c #B67F30",
"bb c #B27C2E",
"bc c #9B6D25",
"bd c #8A5F1E",
"be c #A9762A",
"bf c #BD8433",
"bg c #9F7026",
"bh c #916620",
"bi c #A57428",
"bj c #C08634",
"bk c #946821",
"bl c #B78030",
"bm c #A17127",
"bn c #71D71D",
"bo c #70D616",
"bp c #85EB32",
"bq c #78DE2C",
"br c #81E733",
"bs c #8C5F20",
"bt c #81E62C",
"bu c #734419",
"bv c #7C431F",
"bw c #90661F",
"bx c #755222",
"by c #7D4C23",
"bz c #80571B",
"bA c #8A5327",
"bB c #B0754F",
"bC c #835D2D",
"bD c #7D5416",
"bE c #7D5820",
"bF c #7A5223",
"bG c #BD8C6A",
"bH c #9E6942",
"bI c #41A712",
"bJ c #3CA210",
"bK c #733416",
"bL c #8B4E2F",
"bM c #DEAA83",
"bN c #9F774A",
"bO c #ECC4A4",
"bP c #AE7A5B",
"bQ c #793B1C",
"bR c #8D5335",
"bS c #EACCAA",
"bT c #A68459",
"bU c #753619",
"bV c #7C3E20",
"bW c #E5BD9B",
"bX c #A47D52",
"bY c #AA7456",
"bZ c #DAA57F",
"b0 c #BD835C",
"b1 c #8A552B",
"b2 c #825522",
"b3 c #A36C44",
"b4 c #A46B4B",
"b5 c #874A2A",
"b6 c #B37752",
"b7 c #AB6C46",
"b8 c #A05F40",
"b9 c #985B3A",
"b! c #7B361E",
"b# c #802E21",
"b$ c #238100",
"b% c #664723",
"b& c #6D4C24",
"b( c #574C4B",
"b) c #285CC8",
"b* c #C60541",
"b+ c #323872",
"b, c #363E5E",
"b- c #3B4465",
"b. c #4F5063",
"b/ c #584F50",
"b: c #624E3C",
"b; c #3F4A6D",
"b< c #3F517D",
"b= c #43527E",
"b> c #49AF11",
"b? c #7F3A16",
"b@ c #6E3B27",
"b[ c #465985",
"b] c #4A5E8A",
"b^ c #585A6A",
"b_ c #4B5577",
"b` c #464F74",
"b{ c #6C5030",
"b| c #4A4E69",
"b} c #4D618D",
"b~ c #455B8A",
"ca c #32436E",
"cb c #5A4C45",
"cc c #823E1A",
"cd c #51B718",
"ce c #894624",
"cf c #7F4935",
"cg c #5E79A0",
"ch c #5A749C",
"ci c #546C98",
"cj c #4A577E",
"ck c #5E4A3A",
"cl c #465177",
"cm c #554E55",
"cn c #4F546D",
"co c #455582",
"cp c #506692",
"cq c #577099",
"cr c #60779B",
"cs c #374975",
"ct c #694643",
"cu c #8C4927",
"cv c #77391B",
"cw c #935332",
"cx c #AA745C",
"cy c #68667E",
"cz c #5D789F",
"cA c #6A89AB",
"cB c #6581A5",
"cC c #4F6491",
"cD c #495A86",
"cE c #5E6788",
"cF c #977168",
"cG c #A05E3C",
"cH c #E0BDA5",
"cI c #7F7D90",
"cJ c #CAAFA1",
"cK c #C59372",
"cL c #FDD2AE",
"cM c #F0BE96",
"cN c #AF826E",
"cO c #675765",
"cP c #586E95",
"cQ c #607CA2",
"cR c #546B95",
"cS c #53526D",
"cT c #E1AF8A",
"cU c #CC9C7C",
"cV c #BD8057",
"cW c #A96641",
"cX c #253B6B",
"cY c #2D3E6A",
"cZ c #6886A9",
"c0 c #62494F",
"c1 c #C4906E",
"c2 c #B37E5F",
"c3 c #6785A8",
"c4 c #9C3B00",
"c5 c #2D3D67",
"c6 c #3A4A76",
"c7 c #FF3600",
"c8 c #5D3B37",
"c9 c #5D3D3C",
"c! c #8F7269",
"c# c #AE9388",
"c$ c #C4B4AB",
"c% c #B69E94",
"c& c #8B6A61",
"c( c #3B3C59",
"c) c #52393E",
"c* c #79574F",
"c+ c #AB8F84",
"c, c #B7A197",
"c- c #AF9185",
"c. c #9B8682",
"c/ c #414A6C",
"c: c #CA9572",
"c; c #C38A64",
"c< c #7A3716",
"c= c #9B5B36",
"c> c #4A4B66",
"c? c #1D376C",
"c@ c #79DF33",
"c[ c #97FD3B",
"c] c #9CFF3F",
"aaabacadaeadafagahaiaaaaaaaiajakacacacacalalamalalacafadadadafacanaoapaqadaoaoafaoafacajarasasatajacafadaeapaeadafauavawabaxaxay",
"aaazakafadaeadaAauaBaCahaDavakagacacacavajaEaFajalaGaganaoafacacacafaoadaoadadadadaoafakahaiatataGacafadadadadaoafauaHawabaIaxaI",
"aaaJatakaoaqaKaKaLaMaMapapaNauakavaCahahataIaiaiaiaiaJataGagaOaOaOakavakacaoaqaqaqaqapadaAaPakakacanaoaoaoaoaAafaPaPaHaBaDazaIaJ",
"aaaaaiahaQadapaqaqaRaqaqaeaoaQakavavajahataaaSaTaUaUaVasaraEalajajajahajacaoaqaKaKaLaKaLaqapafafafafafacanafafacafaPaPaQaWahatai",
"araraiaXajaYaGagacafafaQakaDahaYacacacajaZaVa0a1a2a3aUasaaaaaiahahajajajacaoapaLaKaKa4aKa4aqaeafacacagavaGagacacananacacagaGaEaE",
"aaaaaaaaasasasarajavavakakavavakacacacalaEasaUa3aUaUasaraiahabahaYabahahahaWa5aNa6a6a6aMapa6aoafacacalalajataiaratajajaGaGaGamaE",
"aaaSaTa7a8a8a7a9ayabaBauafafafafanacajajajataZa!aZaFalaOacacacakaDahabaya#a$a%a&aCaHavakakakaGagacagaOalaZasa(a1a(aUaraiaXajaha)",
"a*a*a9a#a#a#a+a,awaWavaQaQacafafafafanacaQacagagacagacacacacacacaQaBaWawa&a%axabahaCahahahahahajaGagaOaOalataVa-a-araraiaEa)a)at",
"aaaIababahakaQaPafaPagajajajaOanadapadapapadadadaoafacacacacacacanafaoaoaoaPanacacagakavaYabazabaYavacanacanacauaQacaOalamaEaiai",
"ajahaYavavaQanafaoafafacacacacafafafaNadadapaeapadadadaoaoaoaoadadadafafaoadaqaqaqaMaMaNaPaHaQaQauanananauaQaQacafafafanaOaGajaX",
"acaOajajahaYavacafaAadaeapaeadafakaYavaQafaoaoaNadadaeapaqaqaLaLaqa6aBajagaoaKa.a/a:a/a;aKaqapadaeadaoauakahatataOafadadaoafacaO",
"aAafacaOajavacafadaqaeadaNaoaPacakavakaQaQaQakavaWavavaHaoada6a<aNaHaIaaaiaCaNaMa4a.a4aKaqapadadaeaeaNanavahahavafadaqaqaqaeaoaA",
"adadafacagacafada4a4apaoaQakavakacanaPauaQaCabaya=aSaSaaajagavahaIa*a>aTa7aSaIaWaNaeadaoafafaoaoadadaoafacacacaAaeaqaRaLaRaqapae",
"adafafacaOagacadaqaqadaoafaPauaQafafacacakakaWaDababatajavaOahaia*a>aTaTaTaTaSaiaOafafaoadadadapapaqaqaeaoaoadapaqaqapapaea<aNaA",
"afacagaOalaGacafafaoaoadadadadaoafafagaga?a?a?a?a?a?a?a?a?a?a?a?a?a?a?a?a?a?a?a?a?aca?a?a?aqaqaqaRaRaLaLaRaqapapaqapaoafaPaQacak",
"afafacagakacafafaoaAaAaAaoadadaoafacaca?a@a[a[a]a?a[a[a[a^a^a[a[a_a`a[a_a_a[a@a[a@a?a@a[a@a?adadapaeapapaeadaoaAaoaoaoafanananac",
"aoaAafaQaQaQaPaoadadaoaoaoaoaoafafacaga]a@a{a{a?a]a{a|a}a~babababbbababaa~bca|a|a[a?a_a{a[a?aAa]aoaoaAaAafanacacacafafaAafafafaf",
"acakajabaIazabaCafadaqaKaKaqapadafaga?a]a?a{bda{bcbebea~bfbfbfbfbfbfbfbfbfbbbebebga}a{a|a[a]a]a?aeadadaoaoafanacanacacacanafanaf",
"ahahaiaya=a=a=axaQapa4a.a;a4aMa?a?a?a[a_a_bhbgbibfbjbfbfbfbfbfbfbfbfbfbfbfbfbfbfbfa~bcbca_a_a^a?a?a?aeadaoaoafananacaOaOaOacacac",
"aGakakaHaHaHaHa5aNaqaKaLapaNa?a@a[a[a_a|bka~bfbfbfbfbfbfbfbfbfbfbfbfbfbfbfbfbfbfbfbfbfblbca|a{a[a[a[a?a@akaWaOacananacaOaOaOajam",
"agacaoaNadapaMaqaMapadaoaQaka?a[a{a|a|bkbbbfbfbfbfbfbfbfbfbfbfbfbfbfbfbfbfbfbfbfbfbfbfbfblbca|a|a|a[a?a@ahazaXavanafacacaOajaZai",
"azaYacafaAaAafaPauauaQakavaja?a@a_a{a}bkbabfbfbfbfbfbfbfbfbebebfbmbababmbfbfbfbfbfbfbfbfbfbga|a|a_a[a]a]aYaYacanaAafacaOajaraabn",
"a*aJaYavagavajahajaYajavavaga?a@a^a{bkbmblbfbfbfbfbfbfa~bfbcbkbia|bcbgbhblbbbbbfbfbfbfbfbfbebca|a_a[a?a?acafaoadadaoanaOaXaiaaaS",
"aSaaaaaiaiatajajalavagaca@a?a@a^a|bkbibfbfbfbfbfbfbfbibkbbbca|a{a@a_a}bkbbbcbcblbfbfbfbfbfbfbebkbha_a[a]a?aoadapapapaeaNacaYaJaa",
"aiaaaaaaasaaaXalalaOacafa@a?a_a|a|biblbfbfbfbfbfbfbia}a}bkbka{a[a]a@a_bhbkbka}bcblbfbfbfbfbfbfa~bka}a{a@a]adadapaqaLaLaqaAaQahai",
"acakaYa)aaaaaaaIaIatacaoa@a?a[a_a|bebfbfbfbfbfbfbfbbbebea}bmbca{a_a{bhbia}bga~a~bfbfbfbfbfbfbfblbka_a`a?a?afaAadaqaRaRapaAacakag",
"akakaYaIaSa-aVaVaaaiakafapada?a[bkblbjbfbfbfbfbfbfbfbfbfbibba~bhbgbkbgbfbmbbbfbfbfbfbfbfbfbfbfbfbma_a?a?ananaAaoaeapa<aAakavakag",
"aTaTa3a2a1a1a3aUboaEagafa@a?a]a_babfblbfbfbfbfbfbfbfbfbfbfbfa~bcblbmbmbfbfbfbfbfbfbfbfbfbfbfbfblbfa}a]a@a@aoadadadafavabaya*a*a*",
"a2a2a0a2bpa3aUboaZalaOaca]a?a^a|babmbmbfbfbfbfbfbfbfbfbfbfbfbfblbfbfbfbfbfbfbfbfbfbfbfbfbfbfbebcblbga_a[a]adapapaoacahayaVbqa7br",
"aaaIahaWavaBakaGaGalaOaga@a?a_a}bsa|bgbfbfbfbfbfbfbfbfbfbfbfbfbfbfbfbfbfbfbfbfbfbfbfbfbfbfbfbea}a}a}a{a]a?adapapadafava)aya9a-aT",
"avacafadapadadafacagagaca@a?a_bda@bsbia~bfbfbfbfbfbfbfbfbfbfbfbfbfbfbfbfbfbfbfbfbfbfbfbfbfblbebca^a_a{a]a]aBakaQaQakaDa)aJa*bnbn",
"aOacaoadaqapaoafacacacaca@a?a_a|a[bcbibkbabfbfbfbfbfbfbfbfbfbfbfbfbfbfbfbfbfbfbfbfbfbfbfbfbcbcbea`a{a{a]a?bpa3bta-aVaraaararaZai",
"afafadadadadaoafacacacacbua?a_bdbva`a{bwblbfblbfbfbfbfbfbfbfbfbfbfbfbfbfbfbfbfbfbfbfbfbfbfbca}bxbybza{a?a]btaTbqa*ayabaCavavagaO",
"adapadadadaoafacagakavava]a?a[bAbBbCbDbwblbebebfbfbfbfbfbfbfbfbfbfbfbfbfbfbfbfbfbfbjbbbibfbgbEbFbGbHbva?a?bIaNbJa6aMaMaLaRaMapae",
"aqaqaqaqaqaqaqadafaQavahabatbKbLbMbNa[bwbebkbgbfbfbfbfbfbfbfbfbfbfbfbfbfbfbfbfbfbfbfbebkbebgbDbFbObPbKbQadaeaqaRaLaKa4aKaLaRaqap",
"aqaLa4a;a/a/a.a4aMaoaQabaya9bKbRbSbTa[bwbwa|bgbfbfbfbfbfbfbfbfbfbfbfbfbfbfbfbfbfbfbfa~a|a|bwbDa}bSbPbUbVanaQauafafaAaoaAafafaAaA",
"adapaLa4a.a/a.a;aLapafaYaIa>bKbRbWbXa[a|a|a|bcbfbfbfbfbfbfbfbfbfbfbfbfbfbfbfbfbfbfbja~a|a|a|a_bCbWbYbKbVafaQanauafafanagalajavag",
"afafaoadapaqaqaqaqadafaQajabbKbLbZb0b1a_a|a|bgblbibbbfbfbgbbbjbfbfbfbfblbgbbbfbfbgbba~bwa|bzb2b3bMb4bUbVadadaeaeaeadaPakabazazaI",
"agacacacacacafafafafafacacagbUb5b6b7b1a[a|a|bcbebwbcblblbwa~bfbfbfbfbfbfbkbebfbmbkbmbia|a|bDbyb8b6b9bUbVaoa<aqaRaRaqaeaPaWabatat",
"alalaOalalamalalalaOacacanafacbVbVbQbua^a|a|a|bwbwbwbca~bwbeblblbfbfbla~bkbebebwa|a|a|bwa|a_a[bQbybVa&bVakaAaeaLaKa4aRapafagalam",
"acagaOalalalalalagagacafafacacb!bQbua_a|a|a|a|a|a|a|bwbka|bwbwbgblbmbkbkbwbwbwa|a|a|a|bwa|a|bzbubub#aIataYacaAaeaqaqaqaeaoafacag",
"anacacagagagacafafafaoafacagavava]a]a[a_a_a{a|bha|bwbwa|bwa|a|bwbcbka|a|a|a|bwbwa|bwbwa|a_bDa_a@a?aja)aXajaGaOacafafafaAaAaAafaf",
"aIazazatahajaGaQacafafafacagagagakaca?a]a?a{a{a{a|a{bda}a|a|a|a|a|a|a|bwa|bwa|a{a|a|a{a{a@a?a?a?acakagavaYajatatajajavavakavaDaD",
"a8bra7a-a*aIatajajavakakacacacacacafb$aqa`b%b%b&a{bxbxa|a|bwbwa|a|a|a|a|a|a|a_b&a_bxb%a?b(b)acafaoadaoafagahaIa*a*aIazabaIayaVa9",
"aTaTa*aIahaQauaPaPanaQakakakakaQaQaQb*a5b+b,b-b.b&b/b/a[a|a|a|a}a^a{bwa|a|bDb:b.b&b/b;b-b<b=acafaoadadadaAaPaHaHa5a5bIa5b>aWabaJ",
"atajavacaNapapapaqaNauavababaDawavaWb?b@b,b<b[b]b^b_b`b/a^bDbDa^b(b{bDbDa_b:b|b=b^b}b~b=cacbccbQaAaoaeapapapaRaLa4a4a4aKaMadafac",
"ajajaGacaQauaHcdaWaWaYaWavaHauaPbyb!cecfb-b}cgchcib~b=cjcbckckcbclcmckckckcnb[cocpcqcrcqcsctcubVbQaAadadaoadapaqaMaRaqaeaoanavaY",
"atatahahataaaSa>a-aSayahaQafadadbVcvcwcxcyczcAcBcCcocDcCb[b=cocob=b=cob=cob}b}b=b}czcAcBcEcFcGbVbQafafacaQacanafananacagaja)aEai",
"avavaWaYahabatatabahatajavagaQaQbVbUb4cHcHcIb]cCcscscDcCcCcCcCb}cob]cCcCcCcCb]b=cab]cCcEcJbOcKbVbQaYabazazazabahaWavavaOavaGavaY",
"acaQakaCaWaHaQaQacacavahaZatahajbVbKbYcLcMcNcOcscab<cPcQcRcCcCcpb}cCcpcCcCczchcDcacacScFcTcLcUbVbQaJa*a9a=a+a%azabahavacanafafaf",
"afaPaWabazayaaaIaIaIaaaaaaaaaXajbVbKb4cKcVcWbRcXcYcocgcAcgchchcCcCcCciczczcZcBb}cacXc0cGb6c1c2bVcvataJaIabaWavaWaWakaQanafadaeap",
"afacawa&aya>a-a>bqa>a>a*a*aiajacbVacbVbVbVbVbVcYcYcochcAcAcAchb]b=cocic3cAcAcQb}cacXccbVbVbVbVbVajaYaYaQafaoaNaoafafafaAadadapap",
"acafaQauaHaHavaWaCawaYaWavauafaoaoafcvcvbQbQc4c5cYb[cichcAcPb=cacacac6b]cZcQcRb}cac5c7bQbQbQcvcvagacafadadapaeaeaeaeaeapaeadadad",
"afafafaoadaNaNaoaoafafafadadadadaoaoaoaoaoaoaQc8c9c!c#c#c$c%c&c9c(c)c*c+c$c,c-c.c/cXaYavajavagacaAadaqaqaqaqaqaqaqaqaqaqaqapadad",
"adaoacalataaaIazatahavacafadaoafagavavakagakagbQccb7cVb0c:c;b7ccb?c<c=cVc:c;cVbPc>c?afaNaMaLaLaLaqaRaLaLaRaLaLaLaRaqapaqaqaqaRaR",
"aqadacajaVaUaTaSa*aIahacafafacagaXaZatatajajalaObVbVbVbVbVbVbVbVanacbQcebVbVbVbVbVaHaeaKa.a/a/a;a4aLaLaLaLaRaRaqapaNaoadapaRa4a4",
"aKaLadafauaHaHaHaPaNa6apadaoafagaja)atatatahaGagbQbQbQbQcvbQbQbQaya*bQbQcvbQbQbQbQaNaqaLaKaKaqaqapaeadapapapapaAcdabawaBafaeaqaL",
"aKaLaqapapaqaqaqaLaKa4a4aLapaoafaQaHaWaCaCakaQacacacaQavajataJa*aTbra7aSaIavaQafaoadapaqaeaoafananafafafaoaoafakaza=a+ahaQaoadae",
"adadaoadadadadaqaqaLaLaLaLaLaLaqaqaMapa6a6a6adadaeapaqaMaeaNaPavaIa*bqc@a>a>ayabakaQaAaAafacaOalaOaOacacafacacajazaIaXaYacanafaf",
"afafafafafafaoadadapapaqaqaLaKaKaLaLaMaqadadadapaqaLa4a4a4aLadafakataya>a#bqa=azaWaQafaAafacagaOacacafafafacagavajaGagacacananaf",
"apadafacaQaQacaPafadadadadadadaoafacaGaGalalacafadaRa4aKaqadafagaGalajajahajaQaPaNapaqaqaqaqaqaqaLaRaqapadaoafanacanafafaAaoaoad",
"afaPaQaWahabahavaQaQafafacaQacacaOalaFaZaFamaOacafa<a6a6aoafagalaOagacacacafaAaoadadapaqaqaLaLaLaLaLaMaNaPaQacacanacacacacaQaQaQ",
"aIaIaIaIaaa*a=a*aIaWababazabaCacafafacacacacafacaQavahahakagacacafafafaoaoaAafacacacacanaAaoafafauavabaIa*ayaIataXaXaEaibna-aTbt",
"aTaUaSasa>bqa7bqayaIazaza=a*awa5aoadaoaoaoaoaoaPavata*ayataGacafaoadadadadafacagaOalajalagacagaGajaJaVaTbraTa-asaaarboasa(a1c[c]"
};
