/* XPM */
static char *grass[] = {
/* columns rows colors chars-per-pixel */
"64 64 96 2",
"   c #0A6E00",
".  c #0E7300",
"X  c #157A00",
"o  c #197F00",
"O  c #1D8300",
"+  c #218700",
"@  c #258B00",
"#  c #288E00",
"$  c #2D9200",
"%  c #2D9309",
"&  c #319601",
"*  c #359B00",
"=  c #349A09",
"-  c #399F01",
";  c #389E0A",
":  c #3DA301",
">  c #3EA40A",
",  c #3CA210",
"<  c #40A601",
"1  c #40A60A",
"2  c #45AB02",
"3  c #45AB0A",
"4  c #48AE02",
"5  c #49AF0A",
"6  c #41A712",
"7  c #44AA12",
"8  c #49AF11",
"9  c #4CB203",
"0  c #4CB20A",
"q  c #4DB313",
"w  c #50B604",
"e  c #51B70B",
"r  c #54BA04",
"t  c #54BA0B",
"y  c #58BE05",
"u  c #58BE0B",
"i  c #51B711",
"p  c #51B718",
"a  c #55BB13",
"s  c #56BC1C",
"d  c #59BF14",
"f  c #59BF1A",
"g  c #5CC204",
"h  c #5CC20C",
"j  c #5DC313",
"k  c #5DC31B",
"l  c #5DC322",
"z  c #60C604",
"x  c #60C60D",
"c  c #62C807",
"v  c #64CA0C",
"b  c #68CE0D",
"n  c #60C614",
"m  c #61C71B",
"M  c #64CA14",
"N  c #65CB1B",
"B  c #68CE14",
"V  c #68CE1B",
"C  c #6AD00F",
"Z  c #6CD215",
"A  c #6DD31C",
"S  c #70D616",
"D  c #71D71D",
"F  c #73D915",
"G  c #73D91C",
"H  c #60C622",
"J  c #64CA22",
"K  c #65CB2A",
"L  c #69CF23",
"P  c #68CE29",
"I  c #6DD323",
"U  c #6DD32A",
"Y  c #71D723",
"T  c #71D72A",
"R  c #75DA24",
"E  c #75DB2B",
"W  c #79DE24",
"Q  c #78DE2C",
"!  c #70D632",
"~  c #75DB31",
"^  c #79DF33",
"/  c #7CE224",
"(  c #7CE22C",
")  c #7DE333",
"_  c #7BE138",
"`  c #81E62C",
"'  c #83E927",
"]  c #84EA2C",
"[  c #88EE2E",
"{  c #81E733",
"}  c #85EB32",
"|  c #84EA39",
" . c #88EE32",
".. c #8CF233",
"X. c #97FD3B",
"o. c #9CFF3F",
/* pixels */
"A k 9 - * - 2 w j B A A A B h e 9 9 9 9 g g z g g 9 2 - - - 2 9 4 : & $ - : : 2 : 2 9 h Z G G M h 9 2 - * & * - 2 5 t f k J J L ",
"A m e 2 - * - < 5 i s j d t e w 9 9 9 t h v c h g y w 4 : 2 9 9 9 2 : - : - - - - : 2 e j B M M y 9 2 - - - - : 2 5 q f k N J N ",
"A V M e : $ + + @ % % & & > 5 e t s j j M N B B B B V M y w r r r e t e 9 : $ $ $ $ & - < 3 e e 9 4 : : : : < 2 3 3 q i d m N V ",
"A A B j 0 - & $ $ # $ $ * : 0 e t t h j M A Y ( / / R G Z v g h h h j h 9 : $ + + @ + @ $ & 2 2 2 2 2 9 4 2 2 9 2 3 3 0 a j M B ",
"Z Z B x h u y w 9 2 2 0 e d j u 9 9 9 h b R [ .. .] / G A A B j j h h h 9 : & @ + + O + O $ * 2 9 9 w t y w 9 9 4 4 9 9 w y v v ",
"A A A A G G G Z h t t e e t t e 9 9 9 g v G / ] / / G Z B j k j u k j j j a 7 > = = = % & = : 2 9 9 g g h M B Z M h h y y y z v ",
"A Y ( ) | | ) T L k i 5 2 2 2 2 4 9 h h h M b C b c g r 9 9 9 e d j k L ~ ! K l s q t e e e y w 9 w r g b G ' ..' / Z B x h j n ",
"I I T ~ ~ ~ P H f a t 0 0 9 2 2 2 2 4 9 0 9 w w 9 w 9 9 9 9 9 9 0 i a f l K J k j s j j j j j h y w r r g M R W W Z Z B v n n M ",
"A N k k j e 0 3 2 3 w h h h r 4 - & - & & - - - : 2 9 9 9 9 9 9 4 2 : : : 3 4 9 9 w e t u k m k u t 9 4 9 4 9 5 0 9 r g z v B B ",
"h j u t t 0 4 2 : 2 2 9 9 9 9 2 2 2 > - - & * & - - - : : : : - - - 2 2 : - $ $ $ % % > 3 q 0 0 5 4 4 4 5 0 0 9 2 2 2 4 r y h x ",
"9 r h h j u t 9 2 < - * & * - 2 e u t 0 2 : : > - - * & $ $ @ @ $ = i h w : + X .   . o + $ & - * - : 5 e j M M r 2 - - : 2 9 r ",
"< 2 9 r h t 9 2 - $ * - > : 3 9 e t e 0 0 0 e t a t t q : - = ; > q N A B s > % O X O + $ & - - * * > 4 t j j t 2 - $ $ $ * : < ",
"- - 2 9 w 9 2 - O O & : 0 e t e 9 4 3 5 0 s k L U Y Y A h w t j N I E ( ) Y N a > * - : 2 2 : : - - : 2 9 9 9 < * $ # @ # $ & * ",
"- 2 2 9 r w 9 - $ $ - : 2 3 5 0 2 2 9 9 e e a d k k M h t r j B I E ( ( ( ( Y B r 2 2 : - - - & & $ $ * : : - & $ $ & & * ; > < ",
"2 9 w r g y 9 2 2 : : - - - - : 2 2 w w 9 9 9 9 9 2 2 4 4 9 u V A Y W W Q W A B h 9 2 - $ $ $ $ # # @ @ # $ & & $ & : 2 3 0 9 e ",
"2 2 9 w e 9 2 2 : < < < : - - : 2 9 9 w 9 9 9 w y y y h h h N A W ( E R Y A N h y 9 9 2 : - - - & * & & * - : < : : : 2 4 4 4 9 ",
": < 2 0 0 0 3 : - - : : : : : 2 2 9 w 9 9 9 r g x b b b M M N I E ( W Y A M d e 0 0 4 4 4 4 < : : : < < 2 4 9 9 9 2 2 < 2 2 2 2 ",
"9 e h k N m k s 2 - $ + + $ & - 2 w h h r 9 4 2 : : > > > 3 3 q k V L L N m f f e 0 < - - - - - * - - : : 2 4 9 4 9 9 9 4 2 4 2 ",
"j j B L U U U J 0 & O X o O % & 2 9 h x w 9 - $ @ O O O O @ $ * 2 e d m k N m m m a 3 * $ $ $ # # $ * - : : 2 4 4 9 r r r 9 9 9 ",
"y e e q q q q 7 > $ + @ & > > : : 2 3 3 2 2 3 3 6 > ; - & & - - < 3 5 e j V T Q Q I k 5 : $ @ + + # - 3 e a r 9 4 4 9 r r r h z ",
"w 9 : > - & % $ % & - : 0 e 0 0 : - $ $ & 2 0 f k k g 9 2 2 4 2 : - - 2 t M Q }  .{ T V e : & @ @ & 1 e j m x t 4 2 9 9 r h b B ",
"m u 9 2 < < 2 3 5 5 0 e t h e 9 2 : - & - - 0 q a e 9 9 2 : 2 2 : - & * < 0 n Z ( } { ( I k i 8 3 5 0 e u u 9 4 < 2 9 r h Z A D ",
"I V u t w t h j h u h t t w 9 9 4 2 2 : : : 2 0 0 0 0 3 2 : - - * & $ $ * < w x A ( { ) E I m j t e w w 9 2 : - - : 4 r x B A Y ",
"Y A A B B M h h g t w 9 2 : - - - : 2 4 9 9 9 e t s k k j e 2 - $ @ + # - 0 k N L P P N d 0 3 < 2 3 4 4 < : - & & & * > 9 u V A ",
"B A A A G A x g g r 9 2 - $ $ & - : 2 9 9 r y h k N L I U N a 3 * % # % 3 a J P J k k d e 2 ; & - - < < : - - & $ @ @ $ < 0 j B ",
"9 e u n A A A N N M 9 : & & 3 5 0 9 2 2 9 e h k j N I T _ ) ( I l p q i a j j k j B Y R Y J a 4 2 2 2 2 2 2 < - $ # # & < 9 e w ",
"e e u N Y W R R A B e 2 & - q t q 2 2 2 0 e d j s j m U ! _ Q E I L m n j d t y h B W ] } Q m u 9 4 4 9 4 4 < : * & ; < e t e w ",
"( ( ]  .....] / S v w 2 : - > : > > 2 0 e a 0 0 9 5 3 3 7 7 7 q a u h h y y y z C Z G R Y A M u 9 4 4 2 < : - - - 2 t k L I I I ",
" . .[  .} ] / S b g r 9 9 2 - - & - 2 0 0 0 2 : - - - $ # + @ $ - 2 9 9 9 r z b Z Z A M j d u t 9 9 9 2 : - & & : 9 j L R Q ) { ",
"A N j a t i e y y g r w 9 9 9 2 4 9 9 2 - = - & - & & $ $ $ $ $ * - - < 9 y B A I V j 9 2 4 w r 9 9 9 2 : - & & - 2 t n L T W ( ",
"t 9 2 - & - - 2 9 w w 9 9 9 9 9 0 9 2 - & $ * - - - - > : : 3 > > > < 3 t N L I J j e 9 4 0 h x M n x h t i e 0 0 e d n V I D D ",
"r 9 : - $ & : 2 9 9 9 9 : - : 2 2 2 - & - - : 4 9 9 9 e s k l l f j k J T Q I L h t t u h B G G ' ] [  .] } ] ` W R Z A Z Z b B ",
"2 2 - - - - : 2 9 9 9 9 2 : : 2 2 : - - - : : 2 2 2 0 t M A I I J m m V T ( W A u r h v Z G / ' [ ..[ } { ` ( Q I L k s t t w r ",
"- & - - - : 2 9 w e t t 0 0 9 9 w 9 2 : - & $ @ @ @ - 2 u Z B x t 9 5 w v F / R x u h M Z G W R G A M u 0 6 > , = % % @ # % & * ",
"$ $ $ $ $ $ $ - 2 0 t j k M N M M h 9 2 & @ O O O + & 2 e h w w 9 4 2 4 w g M j 5 2 0 a u k n j i 5 2 < - * $ # @ + O + @ # $ & ",
"$ @ O o . . X O % : 0 k L T ~ ) I k 9 - $ O X O + $ : 2 : > - : 2 9 9 9 4 < > % + O @ & 1 2 : = @ + & : 4 0 5 2 2 < : < 2 2 < < ",
"- & @ O X . X o @ & 2 u N E ~ ~ L u 0 - & @ + @ & - - - @ @ # & < 4 4 4 4 3 7 , % # # $ & & $ + o o # - 2 0 4 5 2 2 4 w g h t w ",
"2 2 : - & $ $ $ $ - 2 0 h k m k 0 3 2 2 2 : > - : > & + X X @ & - - - < e m T T k q < & $ @ # # # $ $ * - - * * * - 3 e k m m N ",
"w 9 9 9 9 9 2 2 2 2 2 9 9 w e e 9 9 e w 9 9 - - - $ $ O X X $ & - - - - 5 s H l q > - $ @ # & ; > 6 3 1 : ; $ # # $ * 3 a k M M ",
"g g r g g z g g g r 9 9 4 2 9 9 w h Z M 9 2 & $ $ $ $ $ $ $ & = : 2 2 < - = % @ O o O + # & 1 q f l l d e < * @ + O # & 2 w g z ",
"9 w r g g g g g w w 9 2 2 9 9 w t j N B t 5 3 > 1 3 q q q e t t u h u e 9 : & # O O @ & - : 0 a k N N M u 9 < * $ $ $ * : 2 9 w ",
"4 9 9 w w w 9 2 2 2 : 2 9 w t t a t u j j u j M N A Y Y T R R G G G D A M g w 4 : : 2 2 0 9 e t h h n x h y r 9 2 2 2 < < < 2 2 ",
"N m m M j h y 0 9 2 2 2 9 w w w e 9 3 3 3 e k N A A A G G A A A A B A B M h y r w e e t t t w 9 9 e w t u h M M h h t t e t d d ",
"| { ) W I N M h h t e e 9 9 9 9 9 2 - $ - > j B N N u h h y r e r y g h g h t t j j k u t t 9 2 : - : 2 w j N I I N m k N L R T ",
"( ( I N j 0 5 3 3 4 0 e e e e 0 0 0 3 7 q l I E L M e 9 9 9 4 2 2 4 9 9 w w w e t u h u t w 9 2 : - - - < 3 q q 7 7 6 7 8 a k V ",
"M h t 9 > & & & $ > 5 t k k d f t a j k K ! _ ~ I k t 0 4 9 2 2 < < < 2 4 9 9 9 9 9 9 w r 9 4 2 < : * & & & # @ O O O + % - 2 9 ",
"h h y 9 0 5 q p a a u a t q 5 3 > 3 3 q s l m m j 0 9 4 2 9 9 9 2 : - - : 2 4 9 w w 9 w y t w 9 2 < - - : - & $ % # $ * : 4 t u ",
"M M j j M A Y E W Y L j 0 2 - - $ % $ - > : 2 3 2 2 2 9 9 9 y r 4 < - - > < 4 9 t y r r u u h r 9 2 2 9 0 9 4 2 4 4 9 w h n v B ",
"t t a u j k M M k j M h t w 0 0 3 2 : : : 2 4 9 0 e t h h j n j t 0 2 - - - : 2 2 9 9 w y y h g u u k m m m k j a t t r t y t u ",
"9 0 e s a q 0 0 9 9 t j b M j h h t y 9 2 9 e u j k N N L V N n u e 2 : - - - - - 2 9 w 9 r g h x V I T U P K m k j t 9 4 2 2 2 ",
"2 3 a k m L A N N N A A A A x h y y y y 9 2 9 w t j N A A M j e 5 2 2 2 2 2 2 < : : 9 9 r r g h x M V N k a t a a e 0 4 2 - * & ",
"2 9 f l L E W E Q E E I I B h 9 4 9 r y 9 2 2 2 9 t M B B h 9 2 - > : 2 9 w 9 9 2 2 9 w r g u h h u u 0 2 : > : 2 2 2 < - - & & ",
"9 2 0 5 q q t a s f u a t 5 2 : : 2 2 2 : : 2 9 9 w t t 9 9 9 5 0 0 2 2 3 2 2 9 9 9 y g g c g y w 9 2 - - & * * * * * & * - - - ",
"2 2 2 : - > > : : 2 2 2 - - - - : : : : : : 0 9 0 9 2 2 : 2 0 q f s e 2 : : 4 e t h u t h t w 9 < - $ $ $ $ $ $ $ $ $ $ $ & - - ",
"- : 9 g M A N m M j t 9 2 - : 2 w t t e w e w r 9 9 9 2 : : 2 3 3 0 9 3 3 q k k k e 2 > % @ @ @ $ # @ @ # @ @ @ # $ & $ $ $ # # ",
"$ - 9 h R / ( Y I N j 9 2 2 9 w x b M M h h g r w 9 9 4 4 2 2 2 4 9 0 e a s J m f q * + X . . o O @ @ @ @ # # $ & > : - & # O O ",
"+ @ - 2 5 q q q 3 > = & - : 2 w h n M M M j y w w w y g h j M N L I L N t e q 0 3 > $ @ + + $ $ & * - & & & & < p k f i 2 * $ @ ",
"+ @ $ & & $ $ $ @ + O O @ & : 2 0 q a s s e 0 9 9 9 0 t h M V I ( { ) Y N t 0 2 : - & $ * : 2 4 4 2 2 2 : : 2 e m U P j 0 : - * ",
"- - : - - - - $ $ @ @ @ @ @ @ $ $ % & = = = - - * & $ % * > 3 t N I Q ^ E E L k e 0 < < 2 9 r g r r 9 9 2 9 9 h m N x u 9 4 2 2 ",
"2 2 2 2 2 2 : - - & & $ $ @ + + @ @ % $ - - - & $ @ O O O @ - 2 e M L E ~ Q U m a 0 2 < 2 9 w r 9 9 2 2 2 9 w t h y w 9 9 4 4 2 ",
"& - 2 9 0 0 9 3 2 - - - - - - : 2 9 y y g g 9 2 - # O + $ - 2 w y g h h j h 0 3 > & $ $ $ $ $ $ @ # $ & - : 2 4 9 4 2 2 < : : - ",
"2 3 0 a j k j t 0 0 2 2 9 0 9 9 r g c b c z r 9 2 ; = = : 2 w g r w 9 9 9 2 < : - - & $ $ @ @ @ @ @ % > 3 0 9 9 4 9 9 9 9 0 0 0 ",
"N N N N A I U I N a k k m k s 9 2 2 9 9 9 9 2 9 0 t j j e w 9 9 2 2 2 : : < 2 9 9 9 9 4 < : 2 2 5 t k N I L N M x x v B D W ( ` ",
"( / Y G E Q ) Q L N m m U I f 7 : - : : : : : 3 t M I L M y 9 2 : - - - - 2 9 w r g h g w 9 w y h V R ( { ( W G A Z S G ' ..X.o."
};
