/* XPM */
static char *image[] = {
"64 64 324 2",
"aa c #6DD31C",
"ab c #5DC31B",
"ac c #4CB203",
"ad c #399F01",
"ae c #359B00",
"af c #45AB02",
"ag c #50B604",
"ah c #5DC313",
"ai c #68CE14",
"aj c #5CC20C",
"ak c #51B70B",
"al c #5CC204",
"am c #60C604",
"an c #48AE02",
"ao c #3DA301",
"ap c #319601",
"aq c #2D9200",
"ar c #6CD215",
"as c #73D91C",
"at c #64CA14",
"au c #49AF0A",
"av c #54BA0B",
"aw c #59BF1A",
"ax c #64CA22",
"ay c #69CF23",
"az c #61C71B",
"aA c #40A601",
"aB c #51B711",
"aC c #56BC1C",
"aD c #59BF14",
"aE c #64CA0C",
"aF c #62C807",
"aG c #58BE05",
"aH c #4DB313",
"aI c #65CB1B",
"aJ c #68CE1B",
"aK c #218700",
"aL c #258B00",
"aM c #2D9309",
"aN c #3EA40A",
"aO c #54BA04",
"aP c #45AB0A",
"aQ c #4CB20A",
"aR c #288E00",
"aS c #71D723",
"aT c #7CE22C",
"aU c #7CE224",
"aV c #75DA24",
"aW c #55BB13",
"aX c #60C60D",
"aY c #58BE0B",
"aZ c #68CE0D",
"a0 c #88EE2E",
"a1 c #8CF233",
"a2 c #88EE32",
"a3 c #84EA2C",
"a4 c #1D8300",
"a5 c #44AA12",
"a6 c #349A09",
"a7 c #7DE333",
"a8 c #84EA39",
"a9 c #71D72A",
"a! c #6AD00F",
"a# c #75DB31",
"a$ c #70D632",
"a% c #65CB2A",
"a& c #5DC322",
"a( c #83E927",
"a) c #60C614",
"a* c #6DD323",
"a+ c #68CE29",
"a, c #60C622",
"a- c #79DE24",
"a. c #157A00",
"a/ c #0E7300",
"a: c #0A6E00",
"a; c #197F00",
"a< c #389E0A",
"a= c #6DD32A",
"a> c #75DB2B",
"a? c #6F4816",
"a@ c #6D4616",
"a[ c #704917",
"a] c #744D18",
"a^ c #775019",
"a_ c #7B521A",
"a` c #784F1A",
"a{ c #8C631E",
"a| c #926621",
"a} c #AD792C",
"a~ c #B78030",
"ba c #B27C2E",
"bb c #8B5D22",
"bc c #855C1C",
"bd c #9F7026",
"be c #A57329",
"bf c #BD8433",
"bg c #C28835",
"bh c #A9772A",
"bi c #9F6D2A",
"bj c #9B6D24",
"bk c #855D24",
"bl c #7D5517",
"bm c #A17127",
"bn c #946921",
"bo c #B67F30",
"bp c #90661F",
"bq c #A36D29",
"br c #71D71D",
"bs c #8F6320",
"bt c #70D616",
"bu c #85EB32",
"bv c #78DE2C",
"bw c #81E733",
"bx c #704517",
"by c #81E62C",
"bz c #C08634",
"bA c #824E1F",
"bB c #965E34",
"bC c #976039",
"bD c #74451A",
"bE c #7C3E20",
"bF c #8F592D",
"bG c #895D1E",
"bH c #B97F59",
"bI c #AE7B4F",
"bJ c #925434",
"bK c #7A3B1D",
"bL c #41A712",
"bM c #3CA210",
"bN c #96683C",
"bO c #80583D",
"bP c #634728",
"bQ c #533D1A",
"bR c #5B4221",
"bS c #7C553A",
"bT c #B47C5A",
"bU c #CC8D66",
"bV c #C58B65",
"bW c #E2AF89",
"bX c #A26847",
"bY c #733315",
"bZ c #835D2C",
"b0 c #805623",
"b1 c #7F4924",
"b2 c #9D7346",
"b3 c #B38966",
"b4 c #594F3B",
"b5 c #36382A",
"b6 c #343627",
"b7 c #3B3C26",
"b8 c #343528",
"b9 c #714F38",
"b! c #E0AA81",
"b# c #F5C9A5",
"b$ c #814324",
"b% c #77391B",
"b& c #C0A279",
"b( c #E6C39D",
"b) c #8A4C2C",
"b* c #C49171",
"b+ c #AC9276",
"b, c #675844",
"b- c #4A4622",
"b. c #6C5C22",
"b/ c #7B6248",
"b: c #B17452",
"b; c #BC936A",
"b< c #C89778",
"b= c #DDAC8A",
"b> c #E4B594",
"b? c #A36344",
"b@ c #905128",
"b[ c #C99C78",
"b] c #DAB694",
"b^ c #A6876A",
"b_ c #E5DBC3",
"b` c #71706C",
"b{ c #6C6D60",
"b| c #D6C9A4",
"b} c #AE9959",
"b~ c #A8A387",
"ca c #D5CBAD",
"cb c #EBCEAB",
"cc c #FCDDBC",
"cd c #F9D3B2",
"ce c #C28C6A",
"cf c #EBC7A5",
"cg c #CD946C",
"ch c #DAA683",
"ci c #CD9472",
"cj c #AC714E",
"ck c #9F7D4E",
"cl c #F5CBA9",
"cm c #EEC29E",
"cn c #FBF4EE",
"co c #8C8B79",
"cp c #B4B4AC",
"cq c #C8AA58",
"cr c #ECDFBA",
"cs c #FDF7F3",
"ct c #FEE9CA",
"cu c #FEE5C4",
"cv c #40A60A",
"cw c #BD815C",
"cx c #EBBA94",
"cy c #BA895D",
"cz c #947143",
"cA c #EDD3B0",
"cB c #FCD8B6",
"cC c #B8A670",
"cD c #504F39",
"cE c #836C23",
"cF c #FEFAF2",
"cG c #7E4320",
"cH c #E6BC9A",
"cI c #EEC9A5",
"cJ c #DAA37C",
"cK c #B4A470",
"cL c #A1832C",
"cM c #C1A34C",
"cN c #957A27",
"cO c #D1A77F",
"cP c #EDBE9A",
"cQ c #CF9876",
"cR c #FEEED8",
"cS c #C4B27B",
"cT c #B39641",
"cU c #CFC49E",
"cV c #F2E5D2",
"cW c #FFEAD2",
"cX c #B0734F",
"cY c #753619",
"cZ c #9E693D",
"c0 c #FEE2BE",
"c1 c #FFF8E7",
"c2 c #E0D3B5",
"c3 c #BB9F67",
"c4 c #AB6B46",
"c5 c #985738",
"c6 c #7B401F",
"c7 c #DEA881",
"c8 c #F2C6A3",
"c9 c #F5D0AE",
"c! c #E3B28E",
"c# c #AB6B49",
"c$ c #8C4F30",
"c% c #915638",
"c& c #D09771",
"c( c #874929",
"c) c #864628",
"c* c #49AF11",
"c+ c #4C3B40",
"c, c #553E45",
"c- c #5D5669",
"c. c #6D6272",
"c/ c #776B78",
"c: c #7A717C",
"c; c #A56F50",
"c< c #A1623D",
"c= c #51B718",
"c> c #68461D",
"c? c #383F60",
"c@ c #2D467A",
"c[ c #415A88",
"c] c #5976A1",
"c^ c #4E6490",
"c_ c #3B5081",
"c` c #39466E",
"c{ c #643F3B",
"c| c #713820",
"c} c #383E5D",
"c~ c #566183",
"da c #6A7FA1",
"db c #6987A9",
"dc c #536B95",
"dd c #445682",
"de c #3B4B76",
"df c #2D3E6A",
"dg c #333E64",
"dh c #6D3A26",
"di c #713E2A",
"dj c #BF9F87",
"dk c #B6B5B6",
"dl c #506B98",
"dm c #495A85",
"dn c #455A84",
"do c #607DA1",
"dp c #4B5E8A",
"dq c #CFAB89",
"dr c #C8BEB0",
"ds c #B5A29E",
"dt c #7D5E59",
"du c #625963",
"dv c #8E3E0F",
"dw c #6C4B42",
"dx c #3E4F7A",
"dy c #A97253",
"dz c #D29B74",
"dA c #986143",
"dB c #5C4245",
"dC c #344771",
"dD c #685862",
"dE c #5A6E93",
"dF c #6381A6",
"dG c #4A4D6B",
"dH c #5E5566",
"dI c #504D65",
"dJ c #51465B",
"dK c #454D74",
"dL c #688BAF",
"dM c #324062",
"dN c #504F69",
"dO c #6E6878",
"dP c #8E8A96",
"dQ c #7C7683",
"dR c #837D8D",
"dS c #9A9BA0",
"dT c #A1A7AF",
"dU c #8C5031",
"dV c #732F0D",
"dW c #79DF33",
"dX c #97FD3B",
"dY c #9CFF3F",
"aaabacadaeadafagahaiaaaaaaaiajakacacacacalalamalalacafadadadafacanaoapaqadaoaoafaoafacajarasasatajacafadaeapaeadafauavawabaxaxay",
"aaazakafadaeadaAauaBaCahaDavakagacacacavajaEaFajalaGaganaoafacacacafaoadaoadadadadaoafakahaiatataGacafadadadadaoafauaHawabaIaxaI",
"aaaJatakaoaqaKaKaLaMaMapapaNauakavaCahahataIaiaiaiaiaJataGagaOaOaOakavakacaoaqaqaqaqapadaAaPakakacanaoaoaoaoaAafaPaPaHaBaDazaIaJ",
"aaaaaiahaQadapaqaqaRaqaqaeaoaQakavavajahataaaSaTaUaUaVasaraEalajajajahajacaoaqaKaKaLaKaLaqapafafafafafacanafafacafaPaPaQaWahatai",
"araraiaXajaYaGagacafafaQakaDahaYacacacajaZaVa0a1a2a3aUasaaaaaiahahajajajacaoapaLaKaKa4aKa4aqaeafacacagavaGagacacananacacagaGaEaE",
"aaaaaaaaasasasarajavavakakavavakacacacalaEasaUa3aUaUasaraiahabahaYabahahahaWa5aNa6a6a6aMapa6aoafacacalalajataiaratajajaGaGaGamaE",
"aaaSaTa7a8a8a7a9ayabaBauafafafafanacajajajataZa!aZaFalaOacacacakaDahabaya#a$a%a&aCaHavakakakaGagacagaOalaZasa(a1a(aUaraiaXajaha)",
"a*a*a9a#a#a#a+a,awaWavaQaQacafafafafanacaQacagagacagacacacacacacaQaBaWawa&a%axabahaCahahahahahajaGagaOaOalataVa-a-araraiaEa)a)at",
"aaaIababahakaQaPafaPagajajajaOanadapadapapadadadaoafacacacacacacanafaoaoaoaPanacacagakavaYabazabaYavacanacanacauaQacaOalamaEaiai",
"ajahaYavavaQanafaoafafacacacacafafafaNadadapaeapadadadaoaoaoaoadadadafafaoadaqaqaqaMaMaNaPaHaQaQauanananauaQaQacafafafanaOaGajaX",
"acaOajajahaYavacafaAadaeapaeadafakaYavaQafaoaoaNadadaeapaqaqaLaLaqa6aBajagaoaKa.a/a:a/a;aKaqapadaeadaoauakahatataOafadadaoafacaO",
"aAafacaOajavacafadaqaeadaNaoaPacakavakaQaQaQakavaWavavaHaoada6a<aNaHaIaaaiaCaNaMa4a.a4aKaqapadadaeaeaNanavahahavafadaqaqaqaeaoaA",
"adadafacagacafada4a4apaoaQakavakacanaPauaQaCabaya=aSaSaaajagavahaIa*a>aTa7aSaIaWaNaeadaoafafaoaoadadaoafacacacaAaeaqaRaLaRaqapae",
"adafafacaOagacadaqaqadaoafaPauaQafafacacakakaWaDababatajavaOahaia*a>aTaTaTaTaSaiaOafafaoadadadapapaqaqaeaoaoadapaqaqapapaea<aNaA",
"afacagaOalaGacafafaoaoadadadadaoafafagagacacaca?a@a@a?a@a@a@a@a@a@a@a@a@a@a@aaaiajaca@a@a@aqaqaqaRaRaLaLaRaqapapaqapaoafaPaQacak",
"afafacagakacafafaoaAaAaAaoadadaoafacacaga?a?a?a[a]a]a]a]a^a^a^a_a_a`a]a_a_a]a@a@a?a@a]a]a[a@adadapaeapapaeadaoaAaoaoaoafanananac",
"aoaAafaQaQaQaPaoadadaoaoaoaoaoafafacagaca[a[a[a]a{a{a{a|a}a}a~a}babababababba@a?a[a[a_bca]a@aAa[a[aoaAaAafanacacacafafaAafafafaf",
"acakajabaIazabaCafadaqaKaKaqapadafagaja@a@a_bcbcbda}bea}bfbgbfbfbgbfbgbfbfbhbibjbkbla|bma]a@a?a?a@adadaoaoafanacanacacacanafanaf",
"ahahaiaya=a=a=axaQapa4a.a;a4aMapafaca@a[a_bcbnbmbfa~a~bfa}a}a~bfbhbobfbfbfbfbgbfbebda}bobca[a]a_a]a@aeadaoaoafananacaOaOaOacacac",
"aGakakaHaHaHaHa5aNaqaKaLapaNaNaoa?a@a[a]a{bnbmbfbfbdbda}bna{bda}bjbhbgbfbfbfbfbfbfbfbfa~bja_bla{a]a@a@a?akaWaOacananacaOaOaOajam",
"agacaoaNadapaMaqaMapadaoaQakaQaQa?a@a_a{a{bebfbfbfa~a}bna{a{bpbjbabfbfbfbfbfbfbfbfbfbfbfa~bjbja}a_a@a[a[ahazaXavanafacacaOajaZai",
"azaYacafaAaAafaPauauaQakavajaka?a?a_a{a{a{bhbfbfbfbhbnbpbebjbnbebmbabfbfbfbfbfbfbfbfbfbfbfbabebmbqa|a_a[a?aYacanaAafacaOajaraabr",
"a*aJaYavagavajahajaYajavavagaca@a?bcbpbpbdbabfbfbfbhbdbdbfbha}bfbmbabfbfbfbfbfbfbfbfa~a}a~bgbabmbha|a_a[a?afaoadadaoanaOaXaiaaaS",
"aSaaaaaiaiatajajalavagacafaoa@a[a[bca{bna~bfbfbfbfbfbfbfbfbfbfbfbfbfbfbfbfbfbfbfbfbfbhbjbabfbfa~bja_a?a?aAaoadapapapaeaNacaYaJaa",
"aiaaaaaaasaaaXalalaOacafadaqa@a]a{a{a{bna~bfbfbfbfbfbfbfbfbfbfbfbfbfbfbfbfbfbfbfbfbfbfbabjbhbfbfbobba@a[aoadadapaqaLaLaqaAaQahai",
"acakaYa)aaaaaaaIaIatacaoapapa@a]a^bcbpa{bja~bfbfbfbfbfbfbfbfbfbfbfbfbfbfbfbfbabmbfbfbfbfa}bqbhbfbfbna_a?a?afaAadaqaRaRapaAacakag",
"akakaYaIaSa-aVaVaaaiakafapada@a]a]a{a{bpbda}bfbfbfbfbfbfbfbfbfbfbfbfbfbfbfbfbabjbhbobfbfbfbjbjbfbfa}bsa?a?anaAaoaeapa<aAakavakag",
"aTaTa3a2a1a1a3aUbtaEagafaoada@a]a{bpa{bja~bfbfbfbfbfbfbfbfbfbfbfbfbfbfbfa~a~bgbobjbhbfbfbfbmbma~bfa~bja?a?aoadadadafavabaya*a*a*",
"a2a2a0a2bua3aUbtaZalaOacacafa@a]a{a{bda~bfbfbfbfbfbfbfbfbfbfbfbfbfbfbfa~bja}bgboa|bhbgbfbfbobebjboa|a]a[a@adapapaoacahayaVbva7bw",
"aaaIahaWavaBakaGaGalaOagacaca@a[a^blbdbfbfbea}bfbfbfbfbfbea}bfa~bmbabgbfa}bmbha~a}bebhbfbfbgbebcbobba@a?aoadapapadafava)aya9a-aT",
"avacafadapadadafacagagacacaca@a]a^a{bdbfa}bdbebfbfbfbfa~bna}bfa~bmbebabfbgbjbjbgbfa|bnbfbabea|a`bjbka@a@avaBakaQaQakaDa)aJa*brbr",
"aOacaoadaqapaoafacacacacaoada@a]a{a{bja}bna}bfa~a~a~bfa~bjbebfbfbfbjbjbfbabjbmbobobbbbbha|a`bxbxbxa[a0a?a3bua3bya-aVaraaararaZai",
"afafadadadadaoafacacacacafaoa?a]a{a{bpbpbpbha}bnbpbabzbfbobjbmbfbfbjbdbobcbja}a|bAbBbCa_a]bDbEa?a@a@a0bubwbyaTbva*ayabaCavavagaO",
"adapadadadaoafacagakavavaQaQa?a]a{bpbpa{a{bjbjbpbhbmbha~bebhbaboa|bmbdbbbBbFbGblbBbHbHbCbIbJbKbEasaaataYaQbLaNbMa6aMaMaLaRaMapae",
"aqaqaqaqaqaqaqadafaQavahabata?a[a{a{a{bpa{a{a{bnbhbpbGbjbpa}bfbma`bGbibNbObPbQbRbSbTbUbVbWbXbYbKaBauafaAadaeaqaRaLaKa4aKaLaRaqap",
"aqaLa4a;a/a/a.a4aMaoaQabaya9a?a]a{a{a{bpa{bpa{a{bGbkbZb0bGa}a}a{a]b1b2b3b4b5b6b7b8b9bTb!b#bTb$bKb%aKapaoanaQauafafaAaoaAafafaAaA",
"adapaLa4a.a/a.a;aLapafaYaIa>a?a]a{a{a{a{a{a|a{a{a_b&b(bVb)bqbabGa]b*b+b4b3b,b-b.b7b6b/b!b#bWb:bEbKa;aRadafaQanauafafanagalajavag",
"afafaoadapaqaqaqaqadafaQajaba@a[a]bcbpa{a{a{bcbkb;b<b=b>b?b@bbbGa[b[b]b^b_b`b{b|b}b~cacbcccdcebEb%aqaqaeadadaeaeaeadaPakabazazaI",
"agacacacacacafafafafafacacaga?a]a^a{a{bla{a{a_bZcfb=cgchcicjbFbcckb]clcmcncob{cpcqcrcsctcuccb<bEb%bLaPcvaoa<aqaRaRaqaeaPaWabatat",
"alalaOalalamalalalaOacacanafa?a[a{a{bca^a{a{bcbZcbccb=cwcfcxcyczcActcccBcscCb.cDcEcacFctcucBb*cGb%a&a&aDakaAaeaLaKa4aRapafagalam",
"acagaOalalalalalagagacafafaca@a[a?a?a_a{a{a{blbScHcucIcJb#clb#cAcucucuctcscKcLcMcNcacscucucmbHbEbKaIaIataYacaAaeaqaqaqaeaoafacag",
"anacacagagagacafafafaoafacagava?a@a@a^bla{a|a{a{b2cOcmcPcQb>cBcccucucuctcRb_cScTcUcVcWcdcmcicXbKcYaja)aXajaGaOacafafafaAaAaAafaf",
"aIazazatahajaGaQacafafafacagagagakaca?a]a{a{a{a{a^cZbVb*b?cQb#cdccccc0c0cuc1c2c3cVcWcdcxcic4bJc5acakagavaYajatatajajavavakavaDaD",
"a8bwa7a-a*aIatajajavakakacacacacacafa?a[bla^a[a{a{bAcGc6bKb:c7cHcfc8clc9cucucBb#b#cIc!cgc#b)bKbEaoadaoafagahaIa*a*aIazabaIayaVa9",
"aTaTa*aIahaQauaPaPanaQakakakakaQaQaQa?a[a[a[a[a^a]bcbGbcbPb1c$c%b:c&b>clcdcdcmb!c7bVbXc(c)b$cYbEaoadadadaAaPaHaHa5a5bLa5c*aWabaJ",
"atajavacaNapapapaqaNauavababaDawavaWaha?a?a?a?a?a@a_a_a_a`c+c,c-c.c/c:c:c;cjb?c<c5bJc)cYcYbKanafaAaoaeapapapaRaLa4a4a4aKaMadafac",
"ajajaGacaQauaHc=aWaWaYaWavaHauaPaNaPaPaHaCa&azaza@a@bxc>c?c@c[c]c]c^c_c`c,c{c{c{c|c|c|bKaGavagacafaAadadaoadapaqaMaRaqaeaoanavaY",
"atatahahataaaSa>a-aSayahaQafadadaqaMaqadaNaoafaPa[a[afc}c?c~dadbdadcc^dcdddddedfdgaGb%c|aYaYajaOacafafacaQacanafananacagaja)aEai",
"avavaWaYahabatatabahatajavagaQaQaPafaoaoaoafanacaQakavdhdidjdkdldmdedndodmdpdddfdfacacagaGaGajalaYaYabazazazabahaWavavaOavaGavaY",
"acaQakaCaWaHaQaQacacavahaZatahajajavaGacafacakaYahabaIbKbEdqb_drdsdtdudbdmdpdndfdfafacagacaOalajaXaJa*a9a=a+a%azabahavacanafafaf",
"afaPaWabazayaaaIaIaIaaaaaaaaaXajaGaGaGaGacafacagavahaIb%dvb<ccc0b#c4dwdcdxdpdndfdfaoacacaOaOalajaXataJaIabaWavaWaWakaQanafadaeap",
"afacawa&aya>a-a>bva>a>a*a*aiajacanacaOaGacafafafacavatdibPdyc7b>dzdAdBdCdCdnc_dCdfafacagaOalaYajajaYaYaQafaoaNaoafafafaAadadapap",
"acafaQauaHaHavaWaCawaYaWavauafaoaoafafafaoaoafacacagavdgc?dwb)b)b)dDdEdFc^dmdedfdfacaGalalaFalaGagacafadadapaeaeaeaeaeapaeadadad",
"afafafaoadaNaNaoaoafafafadadadadaoaoaoaoaoaoaQacaQacafdfdfdGdHdIdJdKdcdLdodlc_dMdfajaYavajavagacaAadaqaqaqaqaqaqaqaqaqaqaqapadad",
"adaoacalataaaIazatahavacafadaoafagavavakagakagaOacacacdfdfdNdOdPdQdRdPdSdTdQdIdfdfakafaNaMaLaLaLaqaRaLaLaRaLaLaLaRaqapaqaqaqaRaR",
"aqadacajaVaUaTaSa*aIahacafafacagaXaZatatajajalaOagacacanc,cYc5cQcgb=b=dzb>c;cYc,awaHaeaKa.a/a/a;a4aLaLaLaLaRaRaqapaNaoadapaRa4a4",
"aKaLadafauaHaHaHaPaNa6apadaoafagaja)atatatahaGagagagaGalbKbYc(b)b)c$dUb)dUb)dVbKaPaNaqaLaKaKaqaqapaeadapapapapaAc=abawaBafaeaqaL",
"aKaLaqapapaqaqaqaLaKa4a4aLapaoafaQaHaWaCaCakaQacacacaQavajatcYcYcYbYbYcYbYbYaQafaoadapaqaeaoafananafafafaoaoafakaza=a+ahaQaoadae",
"adadaoadadadadaqaqaLaLaLaLaLaLaqaqaMapa6a6a6adadaeapaqaMaeaNaPavaIa*bvdWa>a>ayabakaQaAaAafacaOalaOaOacacafacacajazaIaXaYacanafaf",
"afafafafafafaoadadapapaqaqaLaKaKaLaLaMaqadadadapaqaLa4a4a4aLadafakataya>a#bva=azaWaQafaAafacagaOacacafafafacagavajaGagacacananaf",
"apadafacaQaQacaPafadadadadadadaoafacaGaGalalacafadaRa4aKaqadafagaGalajajahajaQaPaNapaqaqaqaqaqaqaLaRaqapadaoafanacanafafaAaoaoad",
"afaPaQaWahabahavaQaQafafacaQacacaOalaFaZaFamaOacafa<a6a6aoafagalaOagacacacafaAaoadadapaqaqaLaLaLaLaLaMaNaPaQacacanacacacacaQaQaQ",
"aIaIaIaIaaa*a=a*aIaWababazabaCacafafacacacacafacaQavahahakagacacafafafaoaoaAafacacacacanaAaoafafauavabaIa*ayaIataXaXaEaibra-aTby",
"aTaUaSasa>bva7bvayaIazaza=a*awa5aoadaoaoaoaoaoaPavata*ayataGacafaoadadadadafacagaOalajalagacagaGajaJaVaTbwaTa-asaaarbtasa(a1dXdY"
};
