/* XPM */
static char *image[] = {
"64 64 331 2",
"aa c #6DD31C",
"ab c #5DC31B",
"ac c #4CB203",
"ad c #399F01",
"ae c #359B00",
"af c #45AB02",
"ag c #50B604",
"ah c #5DC313",
"ai c #68CE14",
"aj c #5CC20C",
"ak c #51B70B",
"al c #5CC204",
"am c #60C604",
"an c #48AE02",
"ao c #3DA301",
"ap c #319601",
"aq c #2D9200",
"ar c #6CD215",
"as c #73D91C",
"at c #64CA14",
"au c #49AF0A",
"av c #54BA0B",
"aw c #59BF1A",
"ax c #64CA22",
"ay c #69CF23",
"az c #61C71B",
"aA c #40A601",
"aB c #51B711",
"aC c #56BC1C",
"aD c #59BF14",
"aE c #64CA0C",
"aF c #62C807",
"aG c #58BE05",
"aH c #4DB313",
"aI c #65CB1B",
"aJ c #68CE1B",
"aK c #218700",
"aL c #258B00",
"aM c #2D9309",
"aN c #3EA40A",
"aO c #54BA04",
"aP c #45AB0A",
"aQ c #4CB20A",
"aR c #288E00",
"aS c #71D723",
"aT c #7CE22C",
"aU c #7CE224",
"aV c #75DA24",
"aW c #55BB13",
"aX c #60C60D",
"aY c #58BE0B",
"aZ c #68CE0D",
"a0 c #88EE2E",
"a1 c #8CF233",
"a2 c #88EE32",
"a3 c #84EA2C",
"a4 c #1D8300",
"a5 c #44AA12",
"a6 c #349A09",
"a7 c #7DE333",
"a8 c #84EA39",
"a9 c #71D72A",
"a! c #6AD00F",
"a# c #75DB31",
"a$ c #70D632",
"a% c #65CB2A",
"a& c #5DC322",
"a( c #83E927",
"a) c #60C614",
"a* c #6DD323",
"a+ c #68CE29",
"a, c #60C622",
"a- c #79DE24",
"a. c #157A00",
"a/ c #0E7300",
"a: c #0A6E00",
"a; c #197F00",
"a< c #389E0A",
"a= c #6DD32A",
"a> c #75DB2B",
"a? c #6C4616",
"a@ c #6E4816",
"a[ c #704917",
"a] c #754D18",
"a^ c #7C531A",
"a_ c #775018",
"a` c #895F1E",
"a{ c #82561D",
"a| c #8C621E",
"a} c #926621",
"a~ c #AC792C",
"ba c #B27C2E",
"bb c #A47328",
"bc c #B67F30",
"bd c #946921",
"be c #845B1C",
"bf c #A9772A",
"bg c #A17227",
"bh c #BD8433",
"bi c #B78030",
"bj c #C08634",
"bk c #9F7026",
"bl c #9B6D25",
"bm c #8E6220",
"bn c #90651F",
"bo c #9E6C28",
"bp c #71D71D",
"bq c #8B5D21",
"br c #70D616",
"bs c #85EB32",
"bt c #78DE2C",
"bu c #81E733",
"bv c #81E62C",
"bw c #845822",
"bx c #A16F28",
"by c #7B4A1C",
"bz c #78421B",
"bA c #7B5026",
"bB c #905C2D",
"bC c #854A2A",
"bD c #793B1C",
"bE c #41A712",
"bF c #3CA210",
"bG c #834425",
"bH c #894B2C",
"bI c #8D4E30",
"bJ c #75421B",
"bK c #9E633D",
"bL c #BD8057",
"bM c #865629",
"bN c #835425",
"bO c #B0744E",
"bP c #7A4725",
"bQ c #77391B",
"bR c #834629",
"bS c #AC6E4B",
"bT c #935435",
"bU c #BE825C",
"bV c #C28A64",
"bW c #A76B49",
"bX c #96603F",
"bY c #926335",
"bZ c #8C5A33",
"b0 c #925D3B",
"b1 c #BC8865",
"b2 c #A46443",
"b3 c #B37653",
"b4 c #7C3E20",
"b5 c #743619",
"b6 c #DCAE8C",
"b7 c #A87757",
"b8 c #A2623D",
"b9 c #CA8C66",
"b! c #494433",
"b# c #393E36",
"b$ c #3B3827",
"b% c #53402C",
"b& c #995C38",
"b( c #CB946D",
"b) c #D49C74",
"b* c #D3A07C",
"b+ c #AA764D",
"b, c #9F6241",
"b- c #674C36",
"b. c #373627",
"b/ c #413D2D",
"b: c #7C664D",
"b; c #733416",
"b< c #8D5132",
"b= c #EABB97",
"b> c #D8A582",
"b? c #D39E7E",
"b@ c #93765C",
"b[ c #797564",
"b] c #9C917A",
"b^ c #4C451B",
"b_ c #44381F",
"b` c #795E3E",
"b{ c #E4A97E",
"b| c #DDA57C",
"b} c #443720",
"b~ c #484128",
"ca c #564C1C",
"cb c #877964",
"cc c #978970",
"cd c #CD9C7C",
"ce c #B57A55",
"cf c #F1C6A5",
"cg c #EBC9A9",
"ch c #A39179",
"ci c #A59B88",
"cj c #EBE2C9",
"ck c #8A805B",
"cl c #A79357",
"cm c #6D726B",
"cn c #A1896F",
"co c #E8B58D",
"cp c #BCA976",
"cq c #786E5D",
"cr c #737771",
"cs c #434B47",
"ct c #625E44",
"cu c #B5A36B",
"cv c #807445",
"cw c #CFC6A7",
"cx c #CDC4B0",
"cy c #C28D6C",
"cz c #A26C52",
"cA c #E4B38C",
"cB c #FBD8B6",
"cC c #F7E8D6",
"cD c #FDF3E4",
"cE c #DBBD69",
"cF c #E2D5AF",
"cG c #9FA3A3",
"cH c #555952",
"cI c #E8E6E1",
"cJ c #FEE9CC",
"cK c #FCDCBA",
"cL c #F0E4BE",
"cM c #F8D1AD",
"cN c #FEE6C5",
"cO c #F7D8B8",
"cP c #FBF6F2",
"cQ c #7B807B",
"cR c #DEDBCD",
"cS c #E3DAC2",
"cT c #F3D5B2",
"cU c #9C644A",
"cV c #E6B892",
"cW c #6F3014",
"cX c #874E35",
"cY c #FFF1DB",
"cZ c #F1EDE1",
"c0 c #9A8135",
"c1 c #FFE8C7",
"c2 c #FEFBF5",
"c3 c #AFA172",
"c4 c #655A2E",
"c5 c #8E7528",
"c6 c #DBD1B0",
"c7 c #EEC2A0",
"c8 c #FFF8E8",
"c9 c #EEEADE",
"c! c #BAA25A",
"c# c #FFEDD6",
"c$ c #D0C3A0",
"c% c #C1A34C",
"c& c #F1CCAB",
"c( c #D4CAAB",
"c) c #F5CFB1",
"c* c #642911",
"c+ c #49AF11",
"c, c #803E1C",
"c- c #6D3A27",
"c. c #2A3C68",
"c/ c #484C6C",
"c: c #7A5B53",
"c; c #EDC29C",
"c< c #B47C5C",
"c= c #875745",
"c> c #5A5164",
"c? c #2F416D",
"c@ c #593B3B",
"c[ c #51B718",
"c] c #6F5E65",
"c^ c #4A5D8A",
"c_ c #4C5374",
"c` c #694A46",
"c{ c #73564F",
"c| c #BB7F5A",
"c} c #C99472",
"c~ c #DEA986",
"da c #BB7D54",
"db c #4D628E",
"dc c #686376",
"dd c #8D797A",
"de c #4A5A85",
"df c #506692",
"dg c #617DA0",
"dh c #6F5959",
"di c #743D26",
"dj c #75412C",
"dk c #9F6851",
"dl c #9F684B",
"dm c #724A3D",
"dn c #667993",
"do c #546F99",
"dp c #516187",
"dq c #F4C9A6",
"dr c #31426D",
"ds c #344672",
"dt c #454D71",
"du c #525A7C",
"dv c #3B4263",
"dw c #525576",
"dx c #394A75",
"dy c #2D3E69",
"dz c #593F44",
"dA c #333E63",
"dB c #435683",
"dC c #5C79A1",
"dD c #3C517E",
"dE c #455986",
"dF c #2E4370",
"dG c #546C95",
"dH c #483948",
"dI c #CD9F80",
"dJ c #934F2D",
"dK c #394C77",
"dL c #4F6590",
"dM c #5A739A",
"dN c #41527E",
"dO c #8C4926",
"dP c #863E17",
"dQ c #4E6992",
"dR c #9C3B00",
"dS c #6683A5",
"dT c #FF3600",
"dU c #5A3A39",
"dV c #91726A",
"dW c #B39A8D",
"dX c #BAA598",
"dY c #C6B8AE",
"dZ c #3D3D5A",
"d0 c #805F58",
"d1 c #A3877D",
"d2 c #7A3715",
"d3 c #79DF33",
"d4 c #97FD3B",
"d5 c #9CFF3F",
"aaabacadaeadafagahaiaaaaaaaiajakacacacacalalamalalacafadadadafacanaoapaqadaoaoafaoafacajarasasatajacafadaeapaeadafauavawabaxaxay",
"aaazakafadaeadaAauaBaCahaDavakagacacacavajaEaFajalaGaganaoafacacacafaoadaoadadadadaoafakahaiatataGacafadadadadaoafauaHawabaIaxaI",
"aaaJatakaoaqaKaKaLaMaMapapaNauakavaCahahataIaiaiaiaiaJataGagaOaOaOakavakacaoaqaqaqaqapadaAaPakakacanaoaoaoaoaAafaPaPaHaBaDazaIaJ",
"aaaaaiahaQadapaqaqaRaqaqaeaoaQakavavajahataaaSaTaUaUaVasaraEalajajajahajacaoaqaKaKaLaKaLaqapafafafafafacanafafacafaPaPaQaWahatai",
"araraiaXajaYaGagacafafaQakaDahaYacacacajaZaVa0a1a2a3aUasaaaaaiahahajajajacaoapaLaKaKa4aKa4aqaeafacacagavaGagacacananacacagaGaEaE",
"aaaaaaaaasasasarajavavakakavavakacacacalaEasaUa3aUaUasaraiahabahaYabahahahaWa5aNa6a6a6aMapa6aoafacacalalajataiaratajajaGaGaGamaE",
"aaaSaTa7a8a8a7a9ayabaBauafafafafanacajajajataZa!aZaFalaOacacacakaDahabaya#a$a%a&aCaHavakakakaGagacagaOalaZasa(a1a(aUaraiaXajaha)",
"a*a*a9a#a#a#a+a,awaWavaQaQacafafafafanacaQacagagacagacacacacacacaQaBaWawa&a%axabahaCahahahahahajaGagaOaOalataVa-a-araraiaEa)a)at",
"aaaIababahakaQaPafaPagajajajaOanadapadapapadadadaoafacacacacacacanafaoaoaoaPanacacagakavaYabazabaYavacanacanacauaQacaOalamaEaiai",
"ajahaYavavaQanafaoafafacacacacafafafaNadadapaeapadadadaoaoaoaoadadadafafaoadaqaqaqaMaMaNaPaHaQaQauanananauaQaQacafafafanaOaGajaX",
"acaOajajahaYavacafaAadaeapaeadafakaYavaQafaoaoaNadadaeapaqaqaLaLaqa6aBajagaoaKa.a/a:a/a;aKaqapadaeadaoauakahatataOafadadaoafacaO",
"aAafacaOajavacafadaqaeadaNaoaPacakavakaQaQaQakavaWavavaHaoada6a<aNaHaIaaaiaCaNaMa4a.a4aKaqapadadaeaeaNanavahahavafadaqaqaqaeaoaA",
"adadafacagacafada4a4apaoaQakavakacanaPauaQaCabaya=aSaSaaajagavahaIa*a>aTa7aSaIaWaNaeadaoafafaoaoadadaoafacacacaAaeaqaRaLaRaqapae",
"adafafacaOagacadaqaqadaoafaPauaQafafacacakakaWaDababatajavaOahaia*a>aTaTaTaTaSaiaOafafaoadadadapapaqaqaeaoaoadapaqaqapapaea<aNaA",
"afacagaOalaGacafafaoaoadadadadaoafafagagacaca?a?a?a?a?a?a?a?a?a?a?a?a?a?a?a?a@a@a@a@a@a@aqaqaqaqaRaRaLaLaRaqapapaqapaoafaPaQacak",
"afafacagakacafafaoaAaAaAaoadadaoafaca@a[a?a?a]a]a[a]a]a]a^a_a_a_a]a_a_a^a_a]a]a[a[a[a[a[a@a@a@a@apaeapapaeadaoaAaoaoaoafanananac",
"aoaAafaQaQaQaPaoadadaoaoaoaoaoafa[aca[a[a[a[a^a`a]a{a|a}a~babaa~a}bbbcbababda|a|a[bebea@a@a[a@a[aoaoaAaAafanacacacafafaAafafafaf",
"acakajabaIazabaCafadaqaKaKaqapada[a?a_a^a[a_a}bfbgbfbfa~bhbhbhbha~bibhbjbhbabfa~bgbbbka^a[a^a^a@a@adadaoaoafanacanacacacanafanaf",
"ahahaiaya=a=a=axaQapa4a.a;a4aMapa[a?a{bla^a}bfbhbhbhbhbhbha~bibhbabibia~bhbhbhbhbhbjbibla^bdbma@a@aqaeadaoaoafananacaOaOaOacacac",
"aGakakaHaHaHaHa5aNaqaKaLapaNa@a?a?a[bmbcbla~bhbhbhbhbhbhbhblbka~bdbfbbbdbabhbhbhbhbhbhbiblbabga[a@a@a@a@akaWaOacananacaOaOaOajam",
"agacaoaNadapaMaqaMapadaoa[aka@a@a[a^blbhbibhbhbhbhbhbhbibkbnbnbda|bnbda|bda~bhbhbhbhbhbhbibhbfa|a[a[a[a[ahazaXavanafacacaOajaZai",
"azaYacafaAaAafaPauauaQaka[a?a_a`blbdblbhbhbhbhbhbhbhbhbhbfa~blbnbbblbdbfbfbibhbhbhbhbhbhbhbha~bnbobma^a[a@aYacanaAafacaOajaraabp",
"a*aJaYavagavajahajaYajava@a?a_a|bfbbbfbhbhbhbhbhbhbhbhbhbhbjbabgbha~bfbhbhbhbhbhbhbhbhbhbhbhbabga~a}a^a[a@afaoadadaoanaOaXaiaaaS",
"aSaaaaaiaiatajajalavagaca[a?a[a_a|a~bhbhbhbhbhbhbhbhbhbhbhbhbhbhbhbhbhbhbhbhbhbhbhbhbhbhbhbhbhbibda^a[a[a@aoadapapapaeaNacaYaJaa",
"aiaaaaaaasaaaXalalaOacafa[a?a_a|a|bfbhbhbhbhbhbhbhbhbhbhbhbhbhbhbhbhbhbhbhbhbhbhbhbhbhbhbhbhbhbibda|a^a@a@adadapaqaLaLaqaAaQahai",
"acakaYa)aaaaaaaIaIatacaoa[a?a]a{bbbhbhbhbhbhbhbhbhbhbhbhbhbhbhbhbhbhbhbhbhbhbhbhbhbhbhbhbhbhbhbha~bma_a@a@afaAadaqaRaRapaAacakag",
"akakaYaIaSa-aVaVaaaiakafapada?a_babhbha~bhbhbia~bhbhbhbhbhbhbhbia~bibhbhbhbhbhbhbhbababhbhbababhbhbqa?a?ananaAaoaeapa<aAakavakag",
"aTaTa3a2a1a1a3aUbraEagafa?a?a[a{babhbfblbibjbfbdbibhbhbibhbhbhbibdbfbhbhbhbibhbhbhblblbhbhbgblbhbha}a]a[a?aoadadadafavabaya*a*a*",
"a2a2a0a2bsa3aUbraZalaOaca[a?bqbabhbgbgbhbhbhbfbdbibhbfblbibhbhbibdbfbhbhbhblbgbhbhboblbhbhbhbfblbcbhbda[a?adapapaoacahayaVbta7bu",
"aaaIahaWavaBakaGaGalaOaga@a?a{bbbhblblbhbhbfbga~bhbhbfbdbibhbhbibda~bhbhbhbkblbhbhbcbbbbbibhbfa}bca~bqa[a@adapapadafava)aya9a-aT",
"avacafadapadadafacagagaca@a?a]a`biblblbhbhbkbkbhbhbhbfbdbibhbhbia|bbbhbhbhbkblbhbhbha~bdbcbhbfbdbcbda^a[a@aBakaQaQakaDa)aJa*bpbp",
"aOacaoadaqapaoafacacacaca[ada?a_bfblblbhbhblbdbabhbhbfbdbibhbhbaa^bkbhbhbhblbkbhbhbcbba}bibhbfbmbcbqa@a[a3bsa3bva-aVaraaararaZai",
"afafadadadadaoafacacacacafaoa?a]a}a^bmbhbha|a]bwbabjbga^babhbhbaa^bobhbhbhbmbqbhbhbda]a^bcbhbxbya}a^a@a@bubvaTbta*ayabaCavavagaO",
"adapadadadaoafacagakavavaQaQa?a[bybzbybmboa^bAbBbqbla|a]blbibibla[bqa~bibba^a^bobqbBbCa]blbda{bDbybya@a@aQbEaNbFa6aMaMaLaRaMapae",
"aqaqaqaqaqaqaqadafaQavahabatbDbGbHbIbGbJa^a{bKbLbBbwa{bMa^bkbla^bNa{a}bba|bwbwa{bMbObObNa^a]bPbIbHbGbDbDadaeaqaRaLaKa4aKaLaRaqap",
"aqaLa4a;a/a/a.a4aMaoaQabaya9bQbRbSbSbTbPa]bKbUbVbWbPbAbXbAbea|bMbSbYa{a`a_bZbZbPb0b1bVbSbNbJbHb2b3bTbDb4anaQauafafaAaoaAafafaAaA",
"adapaLa4a.a/a.a;aLapafaYaIa>b5bIb6b7bDbGb8b9b7b!b#b$b$b%b&bMbYb(b)b*b+bPb,b-b.b$b$b/b:b(bSbHbDbTb6b+b5b4afaQanauafafanagalajavag",
"afafaoadapaqaqaqaqadafaQajabb;b<b=b>bSb2b?b@b[b]b#b^b^b.b/b_b`b{b|b{b7b}b%b.b~cab.cbccb:cdceb2bVcfb7b5b4adadaeaeaeadaPakabazazaI",
"agacacacacacafafafafafacacagb;bIb6cfb(bScgchcicjckclckb#cmb[cncob|cocpcqcrcsctcucvcwcxcbcgcyceb=b=czb5b4aoa<aqaRaRaqaeaPaWabatat",
"alalaOalalamalalalaOacacanafb5bHb9cAb1bTcgcBcCcDcEcFcGcHcIcJcKcLcAcMcNcOcPcQcrcRcEcScDcTcKb7cUcVb)b,b5bDakaAaeaLaKa4aRapafagalam",
"acagaOalalalalalagagacafafaccWbRbHcXbRbHb)cTcYcZc0ctctc0cIcDcLc1cLcLcNcJc2c3c4cHc5c6c2cKcAb,bPbIbHbHb5bDaYacaAaeaqaqaqaeaoafacag",
"anacacagagagacafafafaoafacagavbDb5b;b5bGcec7c8c9c0c0c0c0c9cDcLc1cNcNcNcJc2cuc5c0c5cwc2cOb9bTbQb;b5b5a)aXajaGaOacafafafaAaAaAafaf",
"aIazazatahajaGaQacafafafacagagagakacbDbGb0b6cYcCcpc!c!cdc9c#cLc1cNc1cNcJcYc$c!c%cpcFc8c&bWbGbDb4acakagavaYajatatajajavavakavaDaD",
"a8bua7a-a*aIatajajavakakacacacacacafadbDbDb1cgcNc8cpcpc2cJc1c1c1cNcNcNcNcNc8c(clc9c#cTb6b<b5acafaoadaoafagahaIa*a*aIazabaIayaVa9",
"aTaTa*aIahaQauaPaPanaQakakakakaQaQaQaPb5b4bHb+cAc)cTcOcJcNcNcNcNcNc1cNcNcNcJcNcTcTb=bVb<bRc*acafaoadadadaAaPaHaHa5a5bEa5c+aWabaJ",
"atajavacaNapapapaqaNauavababaDawavaWc,c-c.c/c:b8bSb>c7c7cBcKcKcKcKcKcKcKcKcfc;cVc<b8c=c>c?c@bDbDaAaoaeapapapaRaLa4a4a4aKaMadafac",
"ajajaGacaQauaHc[aWaWaYaWavaHauaPbDbDbGcXc]c^c_c`c{czc|c|c}b>c~c~c~c~c~c~cdbUdab3c:c`c>dbdcc=bGb4bDaAadadaoadapaqaMaRaqaeaoanavaY",
"atatahahataaaSa>a-aSayahaQafadadbDbDbTbUb|dddedfdgdhdidjdic=czdkdldkdkcUdjdjdjdmdndodpdccdcyb,bDb4afafacaQacanafananacagaja)aEai",
"avavaWaYahabatatabahatajavagaQaQb4b5czb=dqb6dddrdsdtc_dudvdtdwdwdwdwdwc_dvc_dudtdxdydccdcfdqcyb4bDaYabazazazabahaWavavaOavaGavaY",
"acaQakaCaWaHaQaQacacavahaZatahajb4b5b7cMb=b)dkdzdAdBdodCdsdDc^c^dBdEdbdEdFdGdCc^dydHc=b9cAcMdIbDbDaJa*a9a=a+a%azabahavacanafafaf",
"afaPaWabazayaaaIaIaIaaaaaaaaaXajb4b5dlc}c|b2dJdidAdKdLdMdKdedGdLdEdbdfdbdxdbdodNdydzdOb8b3cyc<bPbDataJaIabaWavaWaWakaQanafadaeap",
"afacawa&aya>a-a>bta>a>a*a*aiajacb4acb4bDb4b4dPdAc?c?dxdedec^dLdfdbdbdLdQdededNdrdydydPb4b4b4bDb4ajaYaYaQafaoaNaoafafafaAadadapap",
"acafaQauaHaHavaWaCawaYaWavauafaoaoafbQbDbQb4dRdAdydNdMdSdSdMc^dNdsdKc^dGdndSdMc^dsc.dTbDbDbDbQbDagacafadadapaeaeaeaeaeapaeadadad",
"afafafaoadaNaNaoaoafafafadadadadaoaoaoaoaoaoaQdUdUdVdWdXdYdXdVc`dZdzd0dWdYdYdWd1c`dUaYavajavagacaAadaqaqaqaqaqaqaqaqaqaqaqapadad",
"adaoacalataaaIazatahavacafadaoafagavavakagakagd2bGbSbLbLb(bVbWc,d2d2b&bLcdbVdadabHd2afaNaMaLaLaLaqaRaLaLaRaLaLaLaRaqapaqaqaqaRaR",
"aqadacajaVaUaTaSa*aIahacafafacagaXaZatatajajalaObDbDbGbDbzbGc,bDanacb4b4b4b4bDbDbGaHaeaKa.a/a/a;a4aLaLaLaLaRaRaqapaNaoadapaRa4a4",
"aKaLadafauaHaHaHaPaNa6apadaoafagaja)atatatahaGagbDbDbDbDbQbDbDbDaya*bDbDbDbDbDbDbDaNaqaLaKaKaqaqapaeadapapapapaAc[abawaBafaeaqaL",
"aKaLaqapapaqaqaqaLaKa4a4aLapaoafaQaHaWaCaCakaQacacacaQavajataJa*aTbua7aSaIavaQafaoadapaqaeaoafananafafafaoaoafakaza=a+ahaQaoadae",
"adadaoadadadadaqaqaLaLaLaLaLaLaqaqaMapa6a6a6adadaeapaqaMaeaNaPavaIa*btd3a>a>ayabakaQaAaAafacaOalaOaOacacafacacajazaIaXaYacanafaf",
"afafafafafafaoadadapapaqaqaLaKaKaLaLaMaqadadadapaqaLa4a4a4aLadafakataya>a#bta=azaWaQafaAafacagaOacacafafafacagavajaGagacacananaf",
"apadafacaQaQacaPafadadadadadadaoafacaGaGalalacafadaRa4aKaqadafagaGalajajahajaQaPaNapaqaqaqaqaqaqaLaRaqapadaoafanacanafafaAaoaoad",
"afaPaQaWahabahavaQaQafafacaQacacaOalaFaZaFamaOacafa<a6a6aoafagalaOagacacacafaAaoadadapaqaqaLaLaLaLaLaMaNaPaQacacanacacacacaQaQaQ",
"aIaIaIaIaaa*a=a*aIaWababazabaCacafafacacacacafacaQavahahakagacacafafafaoaoaAafacacacacanaAaoafafauavabaIa*ayaIataXaXaEaibpa-aTbv",
"aTaUaSasa>bta7btayaIazaza=a*awa5aoadaoaoaoaoaoaPavata*ayataGacafaoadadadadafacagaOalajalagacagaGajaJaVaTbuaTa-asaaarbrasa(a1d4d5"
};
