/* XPM */
static char *image[] = {
"64 64 325 2",
"aa c #6DD31C",
"ab c #5DC31B",
"ac c #4CB203",
"ad c #399F01",
"ae c #359B00",
"af c #45AB02",
"ag c #50B604",
"ah c #5DC313",
"ai c #68CE14",
"aj c #5CC20C",
"ak c #51B70B",
"al c #5CC204",
"am c #60C604",
"an c #48AE02",
"ao c #3DA301",
"ap c #319601",
"aq c #2D9200",
"ar c #6CD215",
"as c #73D91C",
"at c #64CA14",
"au c #49AF0A",
"av c #54BA0B",
"aw c #59BF1A",
"ax c #64CA22",
"ay c #69CF23",
"az c #61C71B",
"aA c #40A601",
"aB c #51B711",
"aC c #56BC1C",
"aD c #59BF14",
"aE c #64CA0C",
"aF c #62C807",
"aG c #58BE05",
"aH c #4DB313",
"aI c #65CB1B",
"aJ c #68CE1B",
"aK c #218700",
"aL c #258B00",
"aM c #2D9309",
"aN c #3EA40A",
"aO c #54BA04",
"aP c #45AB0A",
"aQ c #4CB20A",
"aR c #288E00",
"aS c #71D723",
"aT c #7CE22C",
"aU c #7CE224",
"aV c #75DA24",
"aW c #55BB13",
"aX c #60C60D",
"aY c #58BE0B",
"aZ c #68CE0D",
"a0 c #88EE2E",
"a1 c #8CF233",
"a2 c #88EE32",
"a3 c #84EA2C",
"a4 c #1D8300",
"a5 c #44AA12",
"a6 c #349A09",
"a7 c #7DE333",
"a8 c #84EA39",
"a9 c #71D72A",
"a! c #6AD00F",
"a# c #75DB31",
"a$ c #70D632",
"a% c #65CB2A",
"a& c #5DC322",
"a( c #83E927",
"a) c #60C614",
"a* c #6DD323",
"a+ c #68CE29",
"a, c #60C622",
"a- c #79DE24",
"a. c #157A00",
"a/ c #0E7300",
"a: c #0A6E00",
"a; c #197F00",
"a< c #389E0A",
"a= c #6DD32A",
"a> c #75DB2B",
"a? c #6D4616",
"a@ c #6E4816",
"a[ c #704917",
"a] c #754D18",
"a^ c #775019",
"a_ c #784F19",
"a` c #7B521A",
"a{ c #734719",
"a| c #8D641E",
"a} c #9E6C28",
"a~ c #B27C2E",
"ba c #AD792C",
"bb c #B67F30",
"bc c #A17127",
"bd c #835A1C",
"be c #83571D",
"bf c #A57329",
"bg c #8E6220",
"bh c #9F7026",
"bi c #C08634",
"bj c #BC8332",
"bk c #A9762A",
"bl c #9B6D25",
"bm c #7F581B",
"bn c #926521",
"bo c #B78030",
"bp c #90661F",
"bq c #956922",
"br c #8C5E20",
"bs c #40A60A",
"bt c #71D71D",
"bu c #70D616",
"bv c #85EB32",
"bw c #654013",
"bx c #78DE2C",
"by c #81E733",
"bz c #A26F29",
"bA c #C38835",
"bB c #7F5625",
"bC c #81E62C",
"bD c #7C3E20",
"bE c #7A3C1D",
"bF c #9D623D",
"bG c #8B5A2A",
"bH c #9F6841",
"bI c #A77449",
"bJ c #C48B65",
"bK c #AE724D",
"bL c #965F30",
"bM c #41A712",
"bN c #3CA210",
"bO c #743619",
"bP c #DCA881",
"bQ c #C38460",
"bR c #CD926B",
"bS c #9D7548",
"bT c #6E4C31",
"bU c #553F1C",
"bV c #925C41",
"bW c #916B3A",
"bX c #6C2F12",
"bY c #7F4420",
"bZ c #8B4F30",
"b0 c #CB9C7A",
"b1 c #F2C5A1",
"b2 c #D29B74",
"b3 c #A4694A",
"b4 c #553E34",
"b5 c #303328",
"b6 c #3B3C26",
"b7 c #3B3B2C",
"b8 c #78634A",
"b9 c #BB8C65",
"b! c #7C5314",
"b# c #835D2D",
"b$ c #876024",
"b% c #894C2C",
"b& c #EBBD9B",
"b( c #C89771",
"b) c #574A37",
"b* c #4F4924",
"b+ c #746121",
"b, c #917458",
"b- c #99785A",
"b. c #5D5B45",
"b/ c #CEAA8A",
"b: c #905623",
"b; c #985D39",
"b< c #E6C9A4",
"b= c #9F7E50",
"b> c #743416",
"b? c #DEAD8B",
"b@ c #FAD4B2",
"b[ c #F9D9B7",
"b] c #E9CBAB",
"b^ c #B9B7AE",
"b_ c #A6996B",
"b` c #BFAB70",
"b{ c #C5BDA0",
"b| c #474644",
"b} c #ABA198",
"b~ c #D9BEA8",
"ca c #A68465",
"cb c #EDC3A2",
"cc c #A0784C",
"cd c #A88053",
"ce c #8D5132",
"cf c #E7BC9C",
"cg c #FEE5C3",
"ch c #FFE8C7",
"ci c #FEEDD4",
"cj c #FEFAF4",
"ck c #DEC787",
"cl c #C2AD6F",
"cm c #A2A7AB",
"cn c #BCBDB3",
"co c #F9EBDC",
"cp c #ECBB96",
"cq c #F6D2AF",
"cr c #C5A47D",
"cs c #BA7E5C",
"ct c #D29D7D",
"cu c #DAA683",
"cv c #C88F6E",
"cw c #CAA983",
"cx c #E3B593",
"cy c #FCDCBC",
"cz c #FFEBCD",
"cA c #B8A670",
"cB c #6C5C22",
"cC c #504F39",
"cD c #826B23",
"cE c #D5CBAD",
"cF c #FFF2E9",
"cG c #CEB28B",
"cH c #BB805D",
"cI c #B4A370",
"cJ c #A0832C",
"cK c #C1A34C",
"cL c #967A27",
"cM c #F5E4C6",
"cN c #F7DFBE",
"cO c #ECD0AD",
"cP c #F3C9A6",
"cQ c #F9CFAD",
"cR c #DBA47D",
"cS c #FDE1BF",
"cT c #C49D76",
"cU c #965536",
"cV c #E5DCC5",
"cW c #C4B27B",
"cX c #B29641",
"cY c #CFC39D",
"cZ c #F0E4CE",
"c0 c #EDC19B",
"c1 c #BD936A",
"c2 c #985738",
"c3 c #B37653",
"c4 c #FFF1DA",
"c5 c #E0CDAF",
"c6 c #BBA068",
"c7 c #F2C39F",
"c8 c #B67B59",
"c9 c #C79576",
"c! c #F5CCAB",
"c# c #824425",
"c$ c #E1AC84",
"c% c #E1AF89",
"c& c #78471F",
"c( c #8B5F1E",
"c) c #49AF11",
"c* c #76391D",
"c+ c #A2643F",
"c, c #A86D4D",
"c- c #977161",
"c. c #777180",
"c/ c #796E7B",
"c: c #746877",
"c; c #685E6F",
"c< c #53495C",
"c= c #493D4E",
"c> c #51B718",
"c? c #783615",
"c@ c #6A3521",
"c[ c #633F3B",
"c] c #514251",
"c^ c #354977",
"c_ c #435683",
"c` c #536B95",
"c{ c #5B78A3",
"c| c #56729C",
"c} c #3B507D",
"c~ c #27437B",
"da c #2B3C67",
"db c #2D3E6A",
"dc c #42517C",
"dd c #4A5E8A",
"de c #4C628E",
"df c #5C779D",
"dg c #6886A8",
"dh c #687A9C",
"di c #495274",
"dj c #363B5C",
"dk c #54433B",
"dl c #FF7B00",
"dm c #32436E",
"dn c #495A86",
"do c #52668F",
"dp c #617EA1",
"dq c #3A4D77",
"dr c #D3C7B9",
"ds c #9E765F",
"dt c #713E2A",
"du c #6C84A0",
"dv c #61494A",
"dw c #947974",
"dx c #BAABA7",
"dy c #C8BFB7",
"dz c #AD7D5B",
"dA c #314571",
"dB c #645E70",
"dC c #7A442B",
"dD c #A77150",
"dE c #6E4439",
"dF c #693928",
"dG c #465C8B",
"dH c #596684",
"dI c #75524B",
"dJ c #54434D",
"dK c #343E62",
"dL c #383E60",
"dM c #6486AB",
"dN c #494968",
"dO c #5C5669",
"dP c #3D476B",
"dQ c #273C6A",
"dR c #8C8C97",
"dS c #96959C",
"dT c #8A8593",
"dU c #807A89",
"dV c #434969",
"dW c #712D0C",
"dX c #79DF33",
"dY c #97FD3B",
"dZ c #9CFF3F",
"aaabacadaeadafagahaiaaaaaaaiajakacacacacalalamalalacafadadadafacanaoapaqadaoaoafaoafacajarasasatajacafadaeapaeadafauavawabaxaxay",
"aaazakafadaeadaAauaBaCahaDavakagacacacavajaEaFajalaGaganaoafacacacafaoadaoadadadadaoafakahaiatataGacafadadadadaoafauaHawabaIaxaI",
"aaaJatakaoaqaKaKaLaMaMapapaNauakavaCahahataIaiaiaiaiaJataGagaOaOaOakavakacaoaqaqaqaqapadaAaPakakacanaoaoaoaoaAafaPaPaHaBaDazaIaJ",
"aaaaaiahaQadapaqaqaRaqaqaeaoaQakavavajahataaaSaTaUaUaVasaraEalajajajahajacaoaqaKaKaLaKaLaqapafafafafafacanafafacafaPaPaQaWahatai",
"araraiaXajaYaGagacafafaQakaDahaYacacacajaZaVa0a1a2a3aUasaaaaaiahahajajajacaoapaLaKaKa4aKa4aqaeafacacagavaGagacacananacacagaGaEaE",
"aaaaaaaaasasasarajavavakakavavakacacacalaEasaUa3aUaUasaraiahabahaYabahahahaWa5aNa6a6a6aMapa6aoafacacalalajataiaratajajaGaGaGamaE",
"aaaSaTa7a8a8a7a9ayabaBauafafafafanacajajajataZa!aZaFalaOacacacakaDahabaya#a$a%a&aCaHavakakakaGagacagaOalaZasa(a1a(aUaraiaXajaha)",
"a*a*a9a#a#a#a+a,awaWavaQaQacafafafafanacaQacagagacagacacacacacacaQaBaWawa&a%axabahaCahahahahahajaGagaOaOalataVa-a-araraiaEa)a)at",
"aaaIababahakaQaPafaPagajajajaOanadapadapapadadadaoafacacacacacacanafaoaoaoaPanacacagakavaYabazabaYavacanacanacauaQacaOalamaEaiai",
"ajahaYavavaQanafaoafafacacacacafafafaNadadapaeapadadadaoaoaoaoadadadafafaoadaqaqaqaMaMaNaPaHaQaQauanananauaQaQacafafafanaOaGajaX",
"acaOajajahaYavacafaAadaeapaeadafakaYavaQafaoaoaNadadaeapaqaqaLaLaqa6aBajagaoaKa.a/a:a/a;aKaqapadaeadaoauakahatataOafadadaoafacaO",
"aAafacaOajavacafadaqaeadaNaoaPacakavakaQaQaQakavaWavavaHaoada6a<aNaHaIaaaiaCaNaMa4a.a4aKaqapadadaeaeaNanavahahavafadaqaqaqaeaoaA",
"adadafacagacafada4a4apaoaQakavakacanaPauaQaCabaya=aSaSaaajagavahaIa*a>aTa7aSaIaWaNaeadaoafafaoaoadadaoafacacacaAaeaqaRaLaRaqapae",
"adafafacaOagacadaqaqadaoafaPauaQafafacacakakaWaDababatajavaOahaia*a>aTaTaTaTaSaiaOafafaoadadadapapaqaqaeaoaoadapaqaqapapaea<aNaA",
"afacagaOalaGacafafaoaoadadadadaoafafa?a?a?acacaca?a?a?a?a?a?a?a?a?a?a?a?a?a?a?a@ajacafadaqaqaqaqaRaRaLaLaRaqapapaqapaoafaPaQacak",
"afafacagakacafafaoaAaAaAaoadadaoa[a?a]a]a[a?a?a?a?a^a^a]a^a_a_a`a^a^a]a]a]a]a{a@a@a@acafaoadadadapaeapapaeadaoaAaoaoaoafanananac",
"aoaAafaQaQaQaPaoadadaoaoaoaoa@a@a@a@a`a|a@a?a@a@a[a}a~a~a~a~baa~a~bbbca|a|a|bda@a@a@ana@ananaAaoaoaoaAaAafanacacacafafaAafafafaf",
"acakajabaIazabaCafadaqaKaKaqa@a@a@a?bebfa|a`bgbhbca~bibibibjbibibjbjbbbabkbablbmbda^a?a?adadadadaeadadaoaoafanacanacacacanafanaf",
"ahahaiaya=a=a=axaQapa4a.a@a@a^a`a]a]bnbjbfbhbkbjbibjbjbjbja~a~bjbababobjbabobobhbpbda^a?a?aqaqaRaRaqaeadaoaoafananacaOaOaOacacac",
"aGakakaHaHaHaHa5aNaqaKa@a@a@a`bga^bdbfbjbjbjbjbjbjbjbjbjbjbca}babqa|bhbablbabjbjblbpbda]a@a?aLaKaKaRadaPakaWaOacananacaOaOaOajam",
"agacaoaNadapaMaqaMapada@a{a?brbaa|bfbjbjbjbjbjbjbjbjbjbjbjbjbkbqbga|bpbqbabjbjbjbobla|bda]a?apa@aLapbsakahazaXavanafacacaOajaZai",
"azaYacafaAaAafaPauaua@a]bebqbcbcbkbjbjbjbjbjbjbjbjbjbjbjbjbkbcbfbqbhbhbpbhbabjbjbjbha|a|bda^a@a@aPauaQakaYaYacanaAafacaOajaraabt",
"a*aJaYavagavajahajaYa@a]bdbhbkbcbjbjbobkbjbjbjbjbjbjbjbjbjbkbkbjbfbabobhbhbobjbjbjbkbqbpbpa`a@a@avakagagacafaoadadaoanaOaXaiaaaS",
"aSaaaaaiaiatajajalavaga@a@bdbfbjbjbjbkblbjbjbjbjbjbjbjbjbjbjbjbjbjbjbjbjbjbjbjbjbjbjbkbpa|a`a]a@a?aPananaAaoadapapapaeaNacaYaJaa",
"aiaaaaaaasaaaXalalaOaca?a@a}bjbjbjbcbhbbbjbjbjbjbjbjbjbjbjbjbjbjbjbjbjbjbjbjbjbjbjbjbabpa|a|bda@a?adaAaAaoadadapaqaLaLaqaAaQahai",
"acakaYa)aaaaaaaIaIata?a]bmbkbjbobcbfbobjbjbibabfbobibjbjbjbjbjbjbjbjbjbjbjbjbjbjbjbkbqbpa|bma^a@a@afafafafafaAadaqaRaRapaAacakag",
"akakaYaIaSa-aVaVaaaia?a]bla~bjbbbqbkbjbjbja~bfbcbobjbjbjbjbjbjbjbjbjbjbjbjbjbjbjbjbabqa|bpbma^a@a@ananacananaAaoaeapa<aAakavakag",
"aTaTa3a2a1a1a3aUbuaEa?a^bkbjbja~blbabjbjbja}blbjbibjbobjbjbjbjbjbjbjbjbjbjbjbjbjbjbjbabqa|bpbda@a?ananafaAaoadadadafavabaya*a*a*",
"a2a2a0a2bva3aUbuaZalbwa]a^bfbablbabjbjbjbjbhblbjbjbcbfbjbjbjbjbjbjbjbjbjbjbjbjbjbjbjbjbabqa|bda[a[acacafaoadapapaoacahayaVbxa7by",
"aaaIahaWavaBakaGaGalaOa?a?bzbkbebjbjbjbobfbfbbbbbcbfbabjbjbkbkbjbjbkbkbjbjbjbjbjbhbobjbjbqbma^a@a?acacafaoadapapadafava)aya9a-aT",
"avacafadapadadafacagaga?a{bnbna_blbfbbbba|bkbAbbbqbkbibjbabcbkbjbjblblbjbjbjbjbjbcbcbobbbqbma^a@a@a)aXajavaBakaQaQakaDa)aJa*btbt",
"aOacaoadaqapaoafacacacaca@a{a{a?a{bmblbkbBbqbba~blbfbobobqbabjbjbobhbcbjbjbjbbbjbjbhblbabqa|bea[a@a3a0a2a3bva3bCa-aVaraaararaZai",
"afafadadadadaoafacacacaca?a?bwbDbEa{a]bebFbGbebla~brbna~bqbkbiboblbkbobjbjbfbqblbobha|bpbpbpbma@a@a1a0bvbybCaTbxa*ayabaCavavagaO",
"adapadadadaoafacagakavavaQaQacbDbDbHbIbFbJbKbGbmbrbLbLbrbkbqbzbjbabcbabjbfbkbha|bhbqa|a|a|a|bda]a@aaataYaQbMaNbNa6aMaMaLaRaMapae",
"aqaqaqaqaqaqaqadafaQavahabataIbObEbJbPbQbRbSbTbUbUbTbVbWbza_bdbabjbhbpbqbdblbfa|a|a|a|bpa|a|bda@a@auafaAadaeaqaRaLaKa4aKaLaRaqap",
"aqaLa4a;a/a/a.a4aMaoaQabaya9bXbYbZb0b1b2b3b4b5b6b5b7b8b9bLa]b!bpbobhbdbBb#b$a|a|bpa|a|a|bpbpbda@a@aKapaoanaQauafafaAaoaAafafaAaA",
"adapaLa4a.a/a.a;aLapafaYaIa>bOb%bJb&b1b(b)b5b*b+b6b,b-b.b/bSa]bpbbb:b;b2b<b=b!a|a|a|a|a|a|a|bda[a@a;aRadafaQanauafafanagalajavag",
"afafaoadapaqaqaqaqadafaQajabb>bZb?b@b[b]b^b_b`b{b|b}b~cacbcca[a|b:b%b9b&b0b0cda`a|a|a|bpa|bda^a@a@aqaqaeadadaeaeaeadaPakabazazaI",
"agacacacacacafafafafafacacagb>cecfcgchcicjckclcmb.cncocpcqcrbWbeb;csctcucvcbcwa]bda|a|bda|bda]a[a@bMaPbsaoa<aqaRaRaqaeaPaWabatat",
"alalaOalalamalalalaOacacanafb>bZcxcycgczcjcAcBcCcDcEcFb@cgczcGbWb2b1b?cHcbcgcwa]a|a|bda^bda|bda@a@a&a&aDakaAaeaLaKa4aRapafagalam",
"acagaOalalalalalagagacafafacb>b%b2cqchczcjcIcJcKcLcEcjcgcMchcNcOcPcQcpcRb[cScTa]a|a|a|bda^a]a]a@a?aIaIataYacaAaeaqaqaqaeaoafacag",
"anacacagagagacafafafaoafacagbXcUcscucPcycicVcWcXcYcZcichchchcgcyb@cucub1c0c1bWbda|a|a|b!a{a?a?a?ajaja)aXajaGaOacafafafaAaAaAafaf",
"aIazazatahajaGaQacafafafacagagcUc2c3cRb1cyc4c5c6coc4cgcycycSb[cQc7c8b3c9cHbGb!a|bda|bda?a?avagacacakagavaYajatatajajavavakavaDaD",
"a8bya7a-a*aIatajajavakakacacacbEbEcUc3b2cfcPcPc!cScgcycQcPb1b&cxb2b;bEc#c#bea|bda[bdbda@a@avacafaoadaoafagahaIa*a*aIazabaIayaVa9",
"aTaTa*aIahaQauaPaPanaQakakakakbEbEc#c#cebKb(c$c$c!cQcQcPc%bJb3ceb%c&a_c(c(b!a]a]a[a]a]a[a?agacafaoadadadaAaPaHaHa5a5bMa5c)aWabaJ",
"atajavacaNapapapaqaNauavababaDawc*bEc*bEb%c2c+b3c,bKc-c.c/c:c;c<c=b4b!a^a`a]a?a?a?a?a?a?aOacanafaAaoaeapapapaRaLa4a4a4aKaMadafac",
"ajajaGacaQauaHc>aWaWaYaWavaHauaPaNaPaPc*bEc?c@c[c[c[c]c^c_c`c{c|c}c~b|a?a@a?anacagagacagaGavagacafaAadadaoadapaqaMaRaqaeaoanavaY",
"atatahahataaaSa>a-aSayahaQafadadaqaMaqbDbDaodadbdcdcddc`dedfdgdgdhdidjdkdla@anacavaGaOaOaYaYajaOacafafacaQacanafananacagaja)aEai",
"avavaWaYahabatatabahatajavagaQaQaPafaoaoaoafdbdmdddndodpdqdcdddhdrdsc@dtadadaoafafacacagaGaGajalaYaYabazazazabahaWavavaOavaGavaY",
"acaQakaCaWaHaQaQacacavahaZatahajajavaGacafacdadmdednc`dudvdwdxdycMdzc?bDadadadadadafacagacaOalajaXaJa*a9a=a+a%azabahavacanafafaf",
"afaPaWabazayaaaIaIaIaaaaaaaaaXajaGaGaGaGacafdadAdedcc_dBdCbRb@cgcqdDc?bDafafafaAaoaoacacaOaOalajaXataJaIabaWavaWaWakaQanafadaeap",
"afacawa&aya>a-a>bxa>a>a*a*aiajacanacaOaGacafdadmdec}dAdqdEc3bPcxb2bVdFdtacagacacafafacagaOalaYajajaYaYaQafaoaNaoafafafaAadadapap",
"acafaQauaHaHavaWaCawaYaWavauafaoaoafafafaoaodadmdcdGc`dpdHdIb%ceb%dJdKdLaPafafacacacaGalalaFalaGagacafadadapaeaeaeaeaeapaeadadad",
"afafafaoadaNaNaoaoafafafadadadadaoaoaoaoaoaodadmdGc|dMdMdGdNc<dOdOdPdQdbaoaoanakavajaYavajavagacaAadaqaqaqaqaqaqaqaqaqaqaqapadad",
"adaoacalataaaIazatahavacafadaoafagavavakagakdQdmdOdRcmdSdTc.dUdUdBdVdQdbaPaHabababakafaNaMaLaLaLaqaRaLaLaRaLaLaLaRaqapaqaqaqaRaR",
"aqadacajaVaUaTaSa*aIahacafafacagaXaZatatajajalc*bEb(b?b2cxcub(bJb%bOaQdmaWaCaxazawaHaeaKa.a/a/a;a4aLaLaLaLaRaRaqapaNaoadapaRa4a4",
"aKaLadafauaHaHaHaPaNa6apadaoafagaja)atatatahaGc?bEceceb%ceb%b%b%c#dWayaIavakaHaQaPaNaqaLaKaKaqaqapaeadapapapapaAc>abawaBafaeaqaL",
"aKaLaqapapaqaqaqaLaKa4a4aLapaoafaQaHaWaCaCakaQacb>b>b>bOb>bObObObObya7aSaIavaQafaoadapaqaeaoafananafafafaoaoafakaza=a+ahaQaoadae",
"adadaoadadadadaqaqaLaLaLaLaLaLaqaqaMapa6a6a6adadaeapaqaMaeaNaPavaIa*bxdXa>a>ayabakaQaAaAafacaOalaOaOacacafacacajazaIaXaYacanafaf",
"afafafafafafaoadadapapaqaqaLaKaKaLaLaMaqadadadapaqaLa4a4a4aLadafakataya>a#bxa=azaWaQafaAafacagaOacacafafafacagavajaGagacacananaf",
"apadafacaQaQacaPafadadadadadadaoafacaGaGalalacafadaRa4aKaqadafagaGalajajahajaQaPaNapaqaqaqaqaqaqaLaRaqapadaoafanacanafafaAaoaoad",
"afaPaQaWahabahavaQaQafafacaQacacaOalaFaZaFamaOacafa<a6a6aoafagalaOagacacacafaAaoadadapaqaqaLaLaLaLaLaMaNaPaQacacanacacacacaQaQaQ",
"aIaIaIaIaaa*a=a*aIaWababazabaCacafafacacacacafacaQavahahakagacacafafafaoaoaAafacacacacanaAaoafafauavabaIa*ayaIataXaXaEaibta-aTbC",
"aTaUaSasa>bxa7bxayaIazaza=a*awa5aoadaoaoaoaoaoaPavata*ayataGacafaoadadadadafacagaOalajalagacagaGajaJaVaTbyaTa-asaaarbuasa(a1dYdZ"
};
