/* XPM */
static char * image[] = {
"64 64 131 2",
"aa c #6DD31C",
"ab c #5DC31B",
"ac c #4CB203",
"ad c #399F01",
"ae c #359B00",
"af c #45AB02",
"ag c #50B604",
"ah c #5DC313",
"ai c #68CE14",
"aj c #5CC20C",
"ak c #51B70B",
"al c #5CC204",
"am c #60C604",
"an c #754C28",
"ao c #2D9200",
"ap c #3DA301",
"aq c #6CD215",
"ar c #73D91C",
"as c #64CA14",
"at c #319601",
"au c #49AF0A",
"av c #54BA0B",
"aw c #59BF1A",
"ax c #64CA22",
"ay c #69CF23",
"az c #61C71B",
"aA c #40A601",
"aB c #51B711",
"aC c #56BC1C",
"aD c #59BF14",
"aE c #64CA0C",
"aF c #62C807",
"aG c #58BE05",
"aH c #48AE02",
"aI c #744B27",
"aJ c #4DB313",
"aK c #65CB1B",
"aL c #68CE1B",
"aM c #218700",
"aN c #258B00",
"aO c #2D9309",
"aP c #3EA40A",
"aQ c #45AB0A",
"aR c #4CB20A",
"aS c #288E00",
"aT c #71D723",
"aU c #7CE22C",
"aV c #7CE224",
"aW c #784F2B",
"aX c #7E5631",
"aY c #55BB13",
"aZ c #60C60D",
"a0 c #58BE0B",
"a1 c #68CE0D",
"a2 c #75DA24",
"a3 c #88EE2E",
"a4 c #8CF233",
"a5 c #845D3A",
"a6 c #B18D6C",
"a7 c #CDAB8B",
"a8 c #A98563",
"a9 c #1D8300",
"a! c #9E7856",
"a# c #DBBB9C",
"a$ c #C4A282",
"a% c #946D4B",
"a& c #349A09",
"a( c #7DE333",
"a) c #84EA39",
"a* c #71D72A",
"a+ c #8C6441",
"a, c #BD9A7A",
"a- c #D7B798",
"a. c #54BA04",
"a/ c #83E927",
"a: c #60C614",
"a; c #6DD323",
"a< c #75DB31",
"a= c #68CE29",
"a> c #60C622",
"a? c #D4B393",
"a@ c #9B7654",
"a[ c #79DE24",
"a] c #97714F",
"a^ c #B3906F",
"a_ c #D0AF90",
"a` c #7C532E",
"a{ c #A37E5C",
"a| c #8F6845",
"a} c #805731",
"a~ c #AC8867",
"ba c #389E0A",
"bb c #B69272",
"bc c #A78261",
"bd c #CBA782",
"be c #B88F63",
"bf c #C3996B",
"bg c #D8B797",
"bh c #BE9974",
"bi c #D1AE8A",
"bj c #CEA983",
"bk c #AE8459",
"bl c #D0AC87",
"bm c #A57C51",
"bn c #AA7E51",
"bo c #C59D73",
"bp c #A87C4F",
"bq c #C19769",
"br c #C8A176",
"bs c #CBA47C",
"bt c #D8B798",
"bu c #8E643D",
"bv c #B68C62",
"bw c #A77B4E",
"bx c #C49F7A",
"by c #B3895E",
"bz c #BD9366",
"bA c #956B42",
"bB c #B0865B",
"bC c #93693F",
"bD c #AC8256",
"bE c #BC9773",
"bF c #BB946C",
"bG c #9D734A",
"bH c #A1764A",
"bI c #996E44",
"bJ c #9C7146",
"bK c #845B34",
"bL c #885E36",
"bM c #916740",
"bN c #91663D",
"aaabacadaeadafagahaiaaaaaaaiajakacacacacalalamalalacafadadadanananananaoadapapafapafacajaqararasajacafadaeataeadafauavawabaxaxay",
"aaazakafadaeadaAauaBaCahaDavakagacacacavajaEaFajalaGagaHanaIanananaIananapadadadadapafakahaiasasaGacafadadadadapafauaJawabaKaxaK",
"aaaLasakapaoaMaMaNaOaOatataPauakavaCahahasaKaiaiaiaiaLaIananaIaIaIanananananaoaoaoaoatadaAaQakakacaHapapapapaAafaQaQaJaBaDazaKaL",
"aaaaaiahaRadataoaoaSaoaoaeapaRakavavajahasaaaTaUaVaWaIaIaIaIaIaWaXaWananananaIaIaMaNaMaNaoatafafafafafacaHafafacafaQaQaRaYahasai",
"aqaqaiaZaja0aGagacafafaRakaDaha0acacacaja1a2a3a4aIanaIaIaIaIa5a6a7a8aXaIaIaIaIananaMa9aMa9aoaeafacacagavaGagacacaHaHacacagaGaEaE",
"aaaaaaaaarararaqajavavakakavavakacacacalaEarananananaIaIaXa!a7a#a#a#a$a%aWaIanananaIanaOata&apafacacalalajasaiaqasajajaGaGaGamaE",
"aaaTaUa(a)a)a(a*ayabaBauafafafafaHacajajanananananaIana+a,a-a#a#a#a#a#a-a6a5aIaIaIanananakakaGagacaga.ala1ara/a4a/aVaqaiaZajaha:",
"a;a;a*a<a<a<a=a>awaYavaRaRacafafafafaHanananananaIaXa8a?a#a#a#a#a#a#a#a#a#a7a@aXaIananananaIahajaGaga.a.alasa2a[a[aqaqaiaEa:a:as",
"aaaKababahakaRaQafaQagajajaja.aHadananananaIanana]a$a#a#a#a#a#a#a#a#a#a#a#a#a-a,a+aIaIaIanananana0avacaHacaHacauaRaca.alamaEaiai",
"ajaha0avavaRaHafapafafacacacacafananananaIaIa5a^a-a#a#a#a#a#a#a#a#a#a#a#a#a#a#a#a_a8aXaIanananananaHaHaHauaRaRacafafafaHa.aGajaZ",
"aca.ajajaha0avacafaAadaeataeananananaIaIa`a{a7a#a#a#a#a#a#a#a#a#a#a#a#a#a#a#a#a#a#a#a$a%aWanananaIananauakahasasa.afadadapafaca.",
"aAafaca.ajavacafadaoaeadanananananaIana|a,a#a-a#a#a#a#a#a#a#a#a#a#a#a#a#a#a#a#a#a#a#a#a?a^aXananananananavahahavafadaoaoaoaeapaA",
"adadafacagacafada9a9atanananananaIa}a~a_a#a#a#a#a#a#a#a#a#a#a#a#a#a#a#a#a#a#a#a#a#a#a#a#a#a7a@a`aIaIanaIananacaAaeaoaSaNaSaoatae",
"adafafaca.agacadaoananaIanananana]a$a#a#a#a#a#a#a#a#a#a#a#a#a#a#a#a#a#a#a#a#a#a#a#a#a#a#a#a#a-a,a+aIaIananaIaIanaoaoatataebaaPaA",
"afacaga.alaGacafaIanaIaIanana5bba-a#a#a#a#a#a#a#a#a#a#a#a#a#a#a-a-a#a#a#a#a#a#a#a#a#a#a#a#a#a#a#a_bcaXaIaIaIaIananatapafaQaRacak",
"afafacagakacananananaIaIaXa{a7a#a#a#a#a#a#a#a#a#a#a#a#a#a#a#a#bdbda#a#a#a#a#a#a#a#a#a#a#a#a#a#a#a#a#a$a%aWaIanananananafaHaHaHac",
"apaAafaRananaIanaIaIaIa|a,a#a#a#a#a#a#a#a#a#a#a#a-a#a#a#a#a#a#bebfbga#a#a#a#a#a#a#a#a#a#a#a#a#a#a#a#a#a-a6a5ananananananafafafaf",
"acakajananananaIaIa5a~a?a#a#a#a#a#a#a#a#a#a-bdbhbia#a#a#a#a#bjbkbfbia#a#a#a#blbibga#a#a#a#a#a#a#a#a#a#a#a#a7a@aWananaIaIananaHaf",
"ahananaIaIaIanaWa@a$a#a#a#a#a#a#a#a#a#a-bdbebmbna7a#a#a#a#a#bobpbqbra#a#a#a#bsbfbrbia#a#a#a#a#a#a#a#a#a#a#a#bta,buaIaIaIanananan",
"ananananaIaIbubbbta#a#a#a#a#a#a#a#a-bdbvbnbwbwbnbxa#a#a#a#a?a{bnbqbfa?a#a#a#bsbfbfbfbsbia#a#a#a#a#a#a#a#a#a#a#a#a_a{aXaIanaIanan",
"ananananaXa{a_a#a#a#a#a#a#a#a#a?bxbybnbwbmbnbwbwbxa-a#a#a#bxbpbnbzbfbsa#a#a#bsbfbfbfbfbfbsbga#a#a#a#a#a#a#a#a#a#a#bta$a%aWaIaIan",
"anananaIbAbhbda?a-a#a#a#a#a?bobBbnbwbwbwbwbwbwbwboa#a#a#btbvbpbnbqbqboa?a#a#blbfbfbfbfbfbfboblbga#a#a#a#a#a#a#a#a#a#a#bia+aIanan",
"aIanananbCbwbmbkbvbobda7bhbDbwbwbwbwbwbwbwbwbwbwbEa-a#a#bjbnbpbnbqbfbfbla#a#blbfbfbfbfbfbfbfbqbra7bta#a#a#a#a#a#a#a?bsboa+aIanan",
"ananaIaIbCbnbpbmbwbwbnbnbwbwbpbpbwbwbwbwbnbwbwbwbFa#a#a#bfbpbpbnbqbfbfboa#a#bsbfbfbfbfbfbfbfbfbfbfbra?a#a#a#btbibsbfbfbqbuaIanan",
"ananaIanbCbpbpbpbpbpbpbwbpbpbpbwbnbwbwbpbpbpbpbwbvbta#a?bkbwbpbnbqbqbfbfbla#bsbfbfbfbfbqbfbfbfbfbfbfbfbjbiblbrbfbfbfbfbqbuananan",
"ananananbCbnbpbpbpbpbpbpbpbpbpbpbwbwbpbpbpbpbwbwbya-a#bxbpbpbpbpbqbqbfbfbra#blbfbfbfbfbfbfbfbfbfbfbfbfbfbfbfbfbqbfbfbfbqbuananan",
"ananananbCbpbpbpbpbpbpbpbwbpbpbpbpbpbwbpbpbpbpbwbBa?btbvbwbpbpbnbybfbfbfbfbgblbfbfbfbfbfbfbfbfbfbfbfbfbfbfbfbfbfbfbfbfbqbuananan",
"ananananbCbpbpbpbwbpbpbpbpbpbpbpbpbpbpbpbpbpbpbwbka?bjbnbpbpbpbnbqbfbfbfbfbsbsbfbfbfbfbfbfbfbfbfbfbfbfbfbfbfbfbfbfbfbfbqbuananan",
"ananananbCbnbpbpbpbpbpbpbpbpbpbpbpbpbpbpbpbpbpbpbnbibEbwbwbwbpbnbfbfbfbfbfbobsbfbfbfbfbfbfbfbfbfbfbfbfbfbfbfbfbfbfbfbfbqbuananan",
"ananananbCbpbpbpbpbpbpbpbpbwbpbwbpbwbpbwbpbpbpbwbnbxbnbwbwbnbpbnbqbfbfbfbfbfbfbfbfbfbfbfbfbfbfbfbfbfbfbfbfbfbfbfbfbfbfbqbuananan",
"aIanananbCbpbpbpbpbpbpbpbpbpbpbpbpbwbpbpbpbpbpbpbnbvbmbnbwbnbwbnbqbqbfbfbfbfbfbfbqbfbfbfbqbebDbzbfbfbfbfbfbfbfbfbfbfbqbqbuaIanan",
"ananananbCbpbpbpbpbpbwbpbpbpbpbpbnbwbpbpbpbwbpbpbnbnbwbwbwbwbwbpbzbfbfbfbfbfbfbfbqbzbBbGbua`anbGbfbfbfbfbfbfbfbfbfbfbqbqbuaIanan",
"aIaIaIaIbCbpbwbwbwbpbpbpbpbpbwbwbHbHbwbwbpbpbwbwbpbpbwbwbpbpbpbnbzbfbfbfbfbqbkbHbuaXaWaIaWa5bIbkbqbfbfbfbfbfbfbfbfbfbfbqbuaIanan",
"aIaIaIaIbCbpbwbwbpbpbpbpbpbpbpbJa}a}bKbLbCbIbJbHbwbpbpbwbpbpbpbnbqbfbfbfbfbwaWaIaWaXbMbmbybzbfbfbfbfbqbfbfbfbfbfbfbfbfbqbuaIanan",
"aIaIaIaIbLbwbwbwbpbpbpbpbpbpbpbJa}a}a}aIaIa}a}a}bKbLbwbwbpbpbpbnbzbfbfbfbfbebAbHbBbzbzbzbqbfbfbfbfbfbfbfbfbfbfbfbfbfbfbqbuaIanan",
"aIaIaIa}a}a}bIbwbpbpbpbwbpbpbpbpbwbIa}aIaIaIa}a}a}bKbwbpbpbpbpbnbzbqbfbfbfbfbfbfbvbIbubKbMbebfbfbfbfbfbfbfbfbfbfbfbfbfbqbuaIanan",
"aIaIaIaIaIaIa}bLbwbwbpbwbpbwbpbpbJa}aIaIaIbNbHbJbIbHbpbpbpbpbpbnbqbfbfbfbfbfbfbvbKaIaIaWbGbzbzbqbfbfbfbfbfbfbfbfbfbfbfbqbuaIanan",
"aIa}aIaIaIa}a}bNbwbwbpbpbpbpbpbpbCa}aIaIa}a}a}a}bHbpbpbpbpbpbpbpbqbfbfbfbfbfbfbnaIanaIaXbubKbubzbfbfbfbfbfbfbqbfbfbfbfbqbuaIanan",
"aIaIaIaIa}bIbwbpbpbpbpbpbpbpbpbpbIa}aIaIaIaIaIbLbwbpbpbpbpbpbpbnbqbqbfbfbfbfbfbyaXaIaIaIaIaIbMbqbfbfbfbfbfbfbfbfbfbfbfbqbuaIanan",
"aIaIaIaIbCbpbpbpbwbpbpbpbpbpbpbpbHbCa}a}a}a}bNbHbpbpbpbpbpbpbpbnbqbqbfbfbfbfbfbfbka+aXaXbKbJbzbfbfbfbfbfbfbfbfbfbfbfbfbqbuaIanan",
"aIaIaIaIbNbwbwbwbpbpbpbpbpbwbpbpbwbpbwbHbHbwbwbpbpbpbpbpbpbpbpbnbebfbfbfbfbfbfbfbfbfbzbvbzbfbfbfbfbfbfbfbfbfbfbfbfbfbfbfbuaIaIaI",
"a}aIaIaIbNbwbwbwbpbpbpbpbpbpbpbpbpbwbpbpbpbpbpbpbpbpbpbpbpbpbpbnbqbqbfbfbfbfbfbfbfbfbfbfbfbfbfbfbfbfbfbfbfbfbfbfbfbfbzbzbuaIaIaI",
"aIaIaIaIbCbpbwbpbpbwbpbpbpbpbpbpbpbpbpbpbpbpbpbpbpbpbpbpbpbpbpbnbqbfbfbfbfbfbfbfbfbfbfbfbfbfbfbfbfbfbfbfbfbfbfbfbzbkbIaXaIaWaIaI",
"aIaIaIaIbCbpbpbpbpbpbpbpbpbpbpbwbpbpbwbpbwbpbpbpbpbpbpbpbpbpbpbpbebfbfbfbfbfbfbfbfbfbfbfbfbfbfbfbqbfbfbfbfbfbzbGbuaWaIaIaIaIaIaI",
"aIaIaIaIbCbwbwbwbpbpbpbpbpbpbpbpbpbpbpbpbpbpbpbpbpbpbpbpbpbpbwbDbqbqbfbfbfbfbfbfbfbfbfbfbfbfbfbfbfbfbfbfbfbfbzbGaXaIaIaIaIaIaIaI",
"aIaIaIaIa}bLbJbwbwbwbwbpbpbpbpbpbpbpbpbpbpbpbpbpbpbpbpbpbpbpbpbpbqbfbfbfbfbfbfbfbfbfbfbqbfbfbfbfbfbfbfbfbfbfbfbfbzbmbuaWaIaWaIaI",
"aIaIaIaIa}aIa}bLbwbwbpbpbpbwbpbpbpbpbpbpbwbwbwbwbJbJbJbIbIbCbCbIbHbnbnbnbDbDbDbBbvbebzbzbqbqbfbfbfbfbfbfbfbfbfbfbFbfbzbkbKaIaWaI",
"aIaIa}aIaIbLbCbJbwbpbpbpbpbpbpbpbwbHbJbCbLbKa}a}a}a}bKbKbLbLbLbNbCbAbububua5bKa}aXa`a}bKbubMbGbDbvbzbfbfbfbfbfbfbfbfbfbfbuaIaIaI",
"aIaIaIaIbNbwbwbpbpbpbpbpbpbHbJbLa}a}a}a}a}bLbNbIbJbHbHbwbwbwbwbpbzbfbfbfbfbzbzbebybDbwbGbNbua}aXaXbubIbBbzbfbfbfbfbfbfbfbuaIaIan",
"aIaIaIaIbCbwbwbpbpbpbpbHbIbLa}bLbNbIbIbHbwbpbpbpbpbpbpbpbpbpbpbpbzbfbfbfbfbfbfbfbfbfbfbfbfbfbzbebBbDbGbGbzbfbfbfbfbfbfbfbuaIanan",
"aIaIaIa}bCbwbpbpbpbpbwbHbJbHbwbwbpbpbpbpbpbpbpbpbpbpbpbpbpbpbpbpbzbfbfbfbfbfbfbfbfbfbfbfbfbfbfbfbfbobfbfbfbfbfbfbfbfbfbfbuaIanan",
"aIaIaIaIbIbpbpbpbpbpbpbpbpbpbpbwbpbpbpbpbpbpbpbpbpbpbpbpbpbpbpbDbzbfbfbfbfbfbfbfbfbfbfbfbfbfbfbfbfbfbfbfbfbfbfbfbfbfbfbzbuaIanaI",
"aIaIaIaIbNbwbpbpbpbpbpbwbpbpbpbpbpbpbpbpbpbpbpbwbpbpbwbpbpbpbpbpbzbfbfbfbfbfbfbfbfbfbfbfbfbfbfbfbfbfbfbfbfbfbfbfbfbfbfbqbuaIanan",
"aIaIaIaIbCbwbpbwbpbpbpbpbwbpbpbpbwbpbpbpbpbpbpbpbpbpbpbpbpbpbpbpbzbfbfbfbfbfbfbfbfbfbfbfbfbfbfbfbfbfbfbfbfbfbfbfbfbfbfbqbuananan",
"aIaIaIaIbCbwbwbwbpbpbpbpbpbpbpbpbpbpbpbpbpbpbpbpbpbpbpbpbpbpbwbDbzbfbfbfbfbfbfbFbfbfbfbfbfbfbfbfbfbfbfbfbfbfbfbfbfbfbfbqbuaIanan",
"aIaIa}aIbCbwbwbwbpbwbpbpbpbpbwbpbpbpbpbpbwbpbpbpbwbpbpbpbpbpbpbpbzbfbfbfbfbfbfbfbfbfbfbfbfbfbfbfbfbfbfbfbfbfbfbfbfbfbfbfbuaIaIan",
"aIaIaIaIbCbpbpbpbpbpbpbpbpbpbwbpbpbpbpbpbwbpbpbpbwbwbwbwbwbwbwbwbzbfbfbfbfbfbfbfbfbfbfbfbfbfbfbfbfbfbfbfbfbfbfbfbfbfbfbqbuaIanan",
"aIaIaIaIbCbpbpbpbpbpbpbpbpbpbpbpbpbpbpbpbpbpbpbwbDbwbwbwbwbwbwbDbzbfbfbfbfbfbfbfbfbfbfbfbfbfbfbfbfbfbfbfbfbfbfbfbfbfbfbqbuaIanan",
"aIaIaIaIbCbpbpbpbpbpbpbwbpbpbpbpbwbpbpbwbpbpbpbpbwbwbwbwbwbwbwbwbzbfbfbfbfbfbfbfbfbfbfbfbfbfbfbfbfbfbfbfbfbfbfbfbfbfbfbqbuaIanaI",
"aIaIa}a}bCbpbpbpbpbpbpbpbpbpbpbpbpbpbpbwbpbpbpbpbwbwbDbwbwbwbwbDbfbfbfbfbfbfbfbfbfbfbfbfbfbfbfbfbfbfbfbfbfbfbfbfbfbfbfbqbuaIanan",
"aIaIaIaIbLbwbwbpbwbpbwbwbwbwbwbwbwbDbHbwbwbDbwbDbwbwbwbwbwbwbwbwbzbfbfbfbfbfbfbfbfbfbzbfbfbfbfbFbfbfbfbfbfbfbzbfbfbfbfbzbuaIaIan",
"a}aIaIaIa}a}a}bKbKbKa}a}bLbKbKbKbKbLbKbKa}bKa}bKbKbKbKbKaXbua}bububububububububububububububububububububububububububububuaXaIaIan",
"aIaIaIaIaIaIaIaIa}aIaIaIaIaIa}aIaIaIaIaIaIaIaIaIaIaIaIaIaIaIaIaIaIaIaIaIaIaIaIaIaIaIaIaIaIaIaIaIaIaIaIaIaIaIaIaIaIaIaIaIaIananan",
"aIaIaIaIaIaIa}aIaIaIaIaIaIaIaIaIaIaIaIaIaIaIaWaIaIaIaIaIaIaIaIaIaIaIaIaIaIaIaIaIananaIanananananaIananaIanaIaIananananananananan"
};
